#N canvas 308 85 1683 1090 12;
#X obj 27 336 noise~;
#X obj 147 362 line~;
#X obj 81 380 *~;
#X obj 82 578 *~;
#X floatatom 116 579 5 0 3 0 - - - 0;
#X obj 164 554 loadbang;
#X obj 503 995 dac~;
#X obj 243 229 delay 10;
#X floatatom 244 59 5 0 1 0 - - - 0;
#X msg 243 281 0;
#X obj 243 253 t b b;
#X msg 359 315 10, f 2;
#X msg 147 281 1 5;
#X obj 82 440 lop~;
#X floatatom 120 441 5 0 0 0 - - - 0;
#X obj 164 416 loadbang;
#X floatatom 122 502 5 0 0 0 - - - 0;
#X obj 166 479 loadbang;
#X obj 83 502 hip~;
#X obj 892 112 noise~;
#X obj 1147 364 line~;
#X obj 892 382 *~;
#X obj 893 581 *~;
#X floatatom 927 582 5 0 3 0 - - - 0;
#X obj 975 557 loadbang;
#X floatatom 1244 61 5 0 1 0 - - - 0;
#X msg 1243 283 0;
#X obj 1243 255 t b b;
#X msg 1359 317 10, f 2;
#X obj 672 110 noise~;
#X msg 164 441 200;
#X obj 892 146 lop~;
#X floatatom 937 146 5 0 0 0 - - - 0;
#X obj 981 121 loadbang;
#X msg 1147 283 1 15;
#X obj 1243 231 delay 15;
#X obj 892 199 lop~;
#X floatatom 930 200 5 0 0 0 - - - 0;
#X obj 974 175 loadbang;
#X floatatom 930 251 5 0 0 0 - - - 0;
#X obj 974 228 loadbang;
#X obj 891 254 hip~;
#X obj 674 332 *~;
#X floatatom 708 333 5 0 3 0 - - - 0;
#X obj 756 308 loadbang;
#X msg 756 333 0.24;
#X obj 673 148 lop~;
#X floatatom 718 148 5 0 0 0 - - - 0;
#X obj 762 123 loadbang;
#X floatatom 713 244 5 0 0 0 - - - 0;
#X obj 757 221 loadbang;
#X obj 674 247 hip~;
#X msg 164 579 1;
#X msg 975 582 1;
#X obj 893 470 lop~;
#X floatatom 941 470 5 0 0 0 - - - 0;
#X obj 985 445 loadbang;
#X floatatom 932 522 5 0 0 0 - - - 0;
#X obj 976 499 loadbang;
#X obj 893 525 hip~;
#X obj 488 109 noise~;
#X obj 490 331 *~;
#X floatatom 524 332 5 0 3 0 - - - 0;
#X obj 572 307 loadbang;
#X floatatom 529 243 5 0 0 0 - - - 0;
#X obj 573 220 loadbang;
#X obj 490 246 hip~;
#X msg 572 332 0.2;
#X msg 573 243 4000;
#X msg 762 148 2364;
#X msg 757 244 44;
#X msg 981 146 2060;
#X msg 974 200 1027;
#X msg 974 251 1920;
#X msg 976 522 993;
#X msg 985 470 1419;
#X obj 244 23 r EllenFootstepsStone @hv_param 0 2 0;
#X obj 1244 27 r EllenFootstepsGrass @hv_param 0 4 0;
#X obj 244 92 sel 2;
#X obj 302 93 sel 1;
#X obj 1244 94 sel 4;
#X obj 1302 95 sel 3;
#X msg 1168 57 4;
#X msg 168 55 2;
#X msg 166 502 354;
#X connect 0 0 2 0;
#X connect 1 0 2 1;
#X connect 2 0 13 0;
#X connect 3 0 6 0;
#X connect 3 0 6 1;
#X connect 4 0 3 1;
#X connect 5 0 52 0;
#X connect 7 0 10 0;
#X connect 8 0 78 0;
#X connect 8 0 79 0;
#X connect 9 0 1 0;
#X connect 10 0 9 0;
#X connect 10 1 11 0;
#X connect 11 0 1 1;
#X connect 12 0 1 0;
#X connect 13 0 18 0;
#X connect 14 0 13 1;
#X connect 15 0 30 0;
#X connect 16 0 18 1;
#X connect 17 0 84 0;
#X connect 18 0 3 0;
#X connect 19 0 31 0;
#X connect 20 0 21 1;
#X connect 21 0 54 0;
#X connect 22 0 6 0;
#X connect 22 0 6 1;
#X connect 23 0 22 1;
#X connect 24 0 53 0;
#X connect 25 0 80 0;
#X connect 25 0 81 0;
#X connect 26 0 20 0;
#X connect 27 0 26 0;
#X connect 27 1 28 0;
#X connect 28 0 20 1;
#X connect 29 0 46 0;
#X connect 30 0 14 0;
#X connect 31 0 36 0;
#X connect 32 0 31 1;
#X connect 33 0 71 0;
#X connect 34 0 20 0;
#X connect 35 0 27 0;
#X connect 36 0 41 0;
#X connect 37 0 36 1;
#X connect 38 0 72 0;
#X connect 39 0 41 1;
#X connect 40 0 73 0;
#X connect 41 0 21 0;
#X connect 42 0 21 0;
#X connect 43 0 42 1;
#X connect 44 0 45 0;
#X connect 45 0 43 0;
#X connect 46 0 51 0;
#X connect 47 0 46 1;
#X connect 48 0 69 0;
#X connect 49 0 51 1;
#X connect 50 0 70 0;
#X connect 51 0 42 0;
#X connect 52 0 4 0;
#X connect 53 0 23 0;
#X connect 54 0 59 0;
#X connect 55 0 54 1;
#X connect 56 0 75 0;
#X connect 57 0 59 1;
#X connect 58 0 74 0;
#X connect 59 0 22 0;
#X connect 60 0 66 0;
#X connect 61 0 21 0;
#X connect 62 0 61 1;
#X connect 63 0 67 0;
#X connect 64 0 66 1;
#X connect 65 0 68 0;
#X connect 66 0 61 0;
#X connect 67 0 62 0;
#X connect 68 0 64 0;
#X connect 69 0 47 0;
#X connect 70 0 49 0;
#X connect 71 0 32 0;
#X connect 72 0 37 0;
#X connect 73 0 39 0;
#X connect 74 0 57 0;
#X connect 75 0 55 0;
#X connect 76 0 8 0;
#X connect 77 0 25 0;
#X connect 78 0 12 0;
#X connect 78 0 7 0;
#X connect 79 0 7 0;
#X connect 80 0 34 0;
#X connect 80 0 35 0;
#X connect 81 0 35 0;
#X connect 82 0 80 0;
#X connect 83 0 78 0;
#X connect 84 0 16 0;
