#N canvas 882 225 1603 974 12;
#X obj 468 845 dac~;
#X obj 468 475 noise~;
#X obj 625 317 bng 15 250 50 0 empty empty empty 17 7 0 10 #fcfcfc
#000000 #000000;
#X obj 701 464 line~;
#X msg 701 402 0 20;
#X obj 468 559 *~;
#X obj 468 786 *~;
#X floatatom 508 788 5 0 3 0 - - - 0;
#X obj 469 610 lop~;
#X floatatom 513 611 5 0 0 0 - - - 0;
#X obj 606 758 loadbang;
#X obj 602 582 loadbang;
#X msg 625 401 1 5;
#X obj 701 378 delay 10;
#X msg 559 787 0.14;
#X msg 561 609 908;
#X obj 469 674 hip~;
#X floatatom 541 655 5 0 0 0 - - - 0;
#X obj 630 626 loadbang;
#X msg 589 653 845;
#X obj 625 258 loadbang;
#X connect 1 0 5 0;
#X connect 2 0 12 0;
#X connect 2 0 13 0;
#X connect 3 0 5 1;
#X connect 4 0 3 0;
#X connect 5 0 8 0;
#X connect 6 0 0 0;
#X connect 6 0 0 1;
#X connect 7 0 6 1;
#X connect 8 0 16 0;
#X connect 9 0 8 1;
#X connect 10 0 14 0;
#X connect 11 0 15 0;
#X connect 12 0 3 0;
#X connect 13 0 4 0;
#X connect 14 0 7 0;
#X connect 15 0 9 0;
#X connect 16 0 6 0;
#X connect 17 0 16 1;
#X connect 18 0 19 0;
#X connect 19 0 17 0;
#X connect 20 0 2 0;
