#N canvas 1389 91 1702 1058 12;
#X obj 439 120 bng 15 250 50 0 empty empty empty 17 7 0 10 #fcfcfc
#000000 #000000;
#X obj 477 470 osc~;
#X obj 477 228 bng 15 250 50 0 empty empty empty 17 7 0 10 #fcfcfc
#000000 #000000;
#X obj 418 774 *~;
#X obj 686 267 bng 15 250 50 0 empty empty empty 17 7 0 10 #fcfcfc
#000000 #000000;
#X obj 686 596 line~;
#X msg 749 292 0 20;
#X obj 420 979 dac~;
#X obj 839 589 noise~;
#X obj 1077 123 bng 15 250 50 0 empty empty empty 17 7 0 10 #fcfcfc
#000000 #000000;
#X obj 1072 578 line~;
#X obj 929 159 bng 15 250 50 0 empty empty empty 17 7 0 10 #fcfcfc
#000000 #000000;
#X msg 1153 208 0 20;
#X obj 839 673 *~;
#X msg 1077 207 1 20;
#X obj 815 792 *~;
#X floatatom 874 776 5 0 3 0 - - - 0;
#X obj 822 734 lop~;
#X floatatom 910 719 5 0 0 0 - - - 0;
#X obj 471 568 lop~;
#X floatatom 509 527 5 0 0 0 - - - 0;
#X msg 477 256 50 120;
#X obj 474 649 hip~;
#X floatatom 514 608 5 0 0 0 - - - 0;
#X obj 1027 756 loadbang;
#X obj 1045 660 loadbang;
#X msg 1019 692 299;
#X obj 564 543 loadbang;
#X msg 538 575 97;
#X obj 564 448 loadbang;
#X msg 538 480 47;
#X obj 451 69 loadbang;
#X obj 88 580 lop~;
#X floatatom 126 539 5 0 0 0 - - - 0;
#X msg 94 268 50 120;
#X obj 91 661 hip~;
#X floatatom 131 620 5 0 0 0 - - - 0;
#X obj 181 555 loadbang;
#X obj 181 460 loadbang;
#X obj 94 482 phasor~;
#X obj 1153 184 delay 30;
#X obj 288 282 bng 15 250 50 0 empty empty empty 17 7 0 10 #fcfcfc
#000000 #000000;
#X obj 288 611 line~;
#X msg 351 307 0 20;
#X obj 260 738 *~;
#X obj 142 195 bng 15 250 50 0 empty empty empty 17 7 0 10 #fcfcfc
#000000 #000000;
#X obj 749 268 delay 300;
#X msg 686 292 0.5 20;
#X obj 351 283 delay 240;
#X msg 1001 788 0.24;
#X msg 155 492 27;
#X msg 155 587 55;
#X msg 288 307 0.1 20;
#X connect 0 0 2 0;
#X connect 0 0 11 0;
#X connect 0 0 45 0;
#X connect 1 0 19 0;
#X connect 2 0 21 0;
#X connect 2 0 4 0;
#X connect 3 0 7 0;
#X connect 3 0 7 1;
#X connect 4 0 47 0;
#X connect 4 0 46 0;
#X connect 5 0 3 1;
#X connect 6 0 5 0;
#X connect 8 0 13 0;
#X connect 9 0 14 0;
#X connect 9 0 40 0;
#X connect 10 0 13 1;
#X connect 11 0 9 0;
#X connect 12 0 10 0;
#X connect 13 0 17 0;
#X connect 14 0 10 0;
#X connect 15 0 7 0;
#X connect 15 0 7 1;
#X connect 16 0 15 1;
#X connect 17 0 15 0;
#X connect 18 0 17 1;
#X connect 19 0 22 0;
#X connect 20 0 19 1;
#X connect 21 0 1 0;
#X connect 22 0 3 0;
#X connect 23 0 22 1;
#X connect 24 0 49 0;
#X connect 25 0 26 0;
#X connect 26 0 18 0;
#X connect 27 0 28 0;
#X connect 28 0 23 0;
#X connect 29 0 30 0;
#X connect 30 0 20 0;
#X connect 31 0 0 0;
#X connect 32 0 35 0;
#X connect 33 0 32 1;
#X connect 34 0 39 0;
#X connect 35 0 44 0;
#X connect 36 0 35 1;
#X connect 37 0 51 0;
#X connect 38 0 50 0;
#X connect 39 0 32 0;
#X connect 40 0 12 0;
#X connect 41 0 52 0;
#X connect 41 0 48 0;
#X connect 42 0 44 1;
#X connect 43 0 42 0;
#X connect 44 0 7 0;
#X connect 44 0 7 1;
#X connect 45 0 34 0;
#X connect 45 0 41 0;
#X connect 46 0 6 0;
#X connect 47 0 5 0;
#X connect 48 0 43 0;
#X connect 49 0 16 0;
#X connect 50 0 33 0;
#X connect 51 0 36 0;
#X connect 52 0 42 0;
