#N canvas 1111 53 1162 1204 12;
#X obj 292 195 tgl 15 0 empty empty empty 17 7 0 10 #fcfcfc #000000
#000000 0 1;
#X obj 292 247 random 8;
#X floatatom 292 276 5 0 0 0 - - - 0;
#X obj 88 349 sel 0;
#X obj 150 348 sel 1;
#X obj 209 349 sel 2;
#X obj 263 351 sel 3;
#X obj 322 349 sel 4;
#X obj 381 349 sel 5;
#X obj 439 348 sel 6;
#X obj 491 347 sel 7;
#X floatatom 275 498 5 0 0 0 - - - 0;
#X msg 157 431 180;
#X msg 209 432 160;
#X msg 269 431 240;
#X msg 322 435 320;
#X msg 385 430 210;
#X msg 439 431 290;
#X msg 494 433 340;
#X obj 278 567 osc~;
#X obj 276 764 *~;
#X floatatom 238 531 5 0 0 0 - - - 0;
#X obj 292 216 metro 20;
#X obj 272 847 dac~;
#X obj 180 532 * 3;
#X obj 719 498 bng 15 250 50 0 empty empty empty 17 7 0 10 #fcfcfc
#000000 #000000;
#X obj 712 609 line~;
#X obj 481 108 bng 15 250 50 0 empty empty empty 17 7 0 10 #fcfcfc
#000000 #000000;
#X obj 480 33 loadbang;
#X obj 277 651 lop~;
#X floatatom 319 635 5 0 0 0 - - - 0;
#X msg 364 624 231;
#X obj 393 598 loadbang;
#X msg 87 428 234;
#X floatatom 318 686 5 0 0 0 - - - 0;
#X obj 396 666 loadbang;
#X obj 278 690 hip~;
#X msg 360 680 920;
#X msg 719 523 1 20;
#X connect 0 0 22 0;
#X connect 1 0 2 0;
#X connect 2 0 3 0;
#X connect 2 0 4 0;
#X connect 2 0 5 0;
#X connect 2 0 6 0;
#X connect 2 0 7 0;
#X connect 2 0 8 0;
#X connect 2 0 9 0;
#X connect 2 0 10 0;
#X connect 3 0 33 0;
#X connect 4 0 12 0;
#X connect 5 0 13 0;
#X connect 6 0 14 0;
#X connect 7 0 15 0;
#X connect 8 0 16 0;
#X connect 9 0 17 0;
#X connect 10 0 18 0;
#X connect 11 0 19 0;
#X connect 11 0 24 0;
#X connect 12 0 11 0;
#X connect 13 0 11 0;
#X connect 14 0 11 0;
#X connect 15 0 11 0;
#X connect 16 0 11 0;
#X connect 17 0 11 0;
#X connect 18 0 11 0;
#X connect 19 0 29 0;
#X connect 20 0 23 0;
#X connect 20 0 23 1;
#X connect 21 0 19 0;
#X connect 22 0 1 0;
#X connect 24 0 21 0;
#X connect 25 0 38 0;
#X connect 26 0 20 1;
#X connect 27 0 0 0;
#X connect 27 0 25 0;
#X connect 28 0 27 0;
#X connect 29 0 36 0;
#X connect 30 0 29 1;
#X connect 31 0 30 0;
#X connect 32 0 31 0;
#X connect 33 0 11 0;
#X connect 34 0 36 1;
#X connect 35 0 37 0;
#X connect 36 0 20 0;
#X connect 37 0 34 0;
#X connect 38 0 26 0;
