#N canvas 501 25 659 1117 12;
#X obj 47 338 osc~;
#X obj 47 384 dac~;
#X obj 47 254 line;
#X floatatom 11 201 5 0 0 0 - - - 0;
#X floatatom 51 201 5 0 0 0 - - - 0;
#X floatatom 91 201 5 0 0 0 - - - 0;
#X msg 91 176 100;
#X obj 42 88 bng 15 250 50 0 empty empty empty 17 7 0 10 #fcfcfc #000000
#000000;
#X obj 127 111 delay 25;
#X msg 11 176 500;
#X msg 51 176 2000;
#X obj 47 306 *~;
#X obj 42 57 loadbang;
#X msg 142 175 0.5;
#X msg 204 175 0;
#X obj 204 112 delay 125;
#X obj 142 250 line~;
#X obj 204 136 t b b;
#X msg 240 175 10;
#X obj 372 338 osc~;
#X obj 372 384 dac~;
#X obj 372 254 line;
#X floatatom 336 201 5 0 0 0 - - - 0;
#X floatatom 376 201 5 0 0 0 - - - 0;
#X floatatom 416 201 5 0 0 0 - - - 0;
#X obj 367 88 bng 15 250 50 0 empty empty empty 17 7 0 10 #fcfcfc #000000
#000000;
#X obj 452 111 delay 25;
#X obj 372 306 *~;
#X obj 367 57 loadbang;
#X msg 467 175 0.5;
#X msg 529 175 0;
#X obj 467 250 line~;
#X obj 529 136 t b b;
#X msg 565 175 10;
#X msg 336 176 1000;
#X msg 376 176 200;
#X msg 416 176 50;
#X obj 529 112 delay 75;
#X connect 0 0 1 0;
#X connect 0 0 1 1;
#X connect 2 0 11 0;
#X connect 3 0 2 0;
#X connect 4 0 2 0;
#X connect 5 0 2 1;
#X connect 6 0 5 0;
#X connect 7 0 8 0;
#X connect 7 0 9 0;
#X connect 7 0 6 0;
#X connect 7 0 13 0;
#X connect 7 0 15 0;
#X connect 8 0 10 0;
#X connect 9 0 3 0;
#X connect 10 0 4 0;
#X connect 11 0 0 0;
#X connect 12 0 7 0;
#X connect 13 0 16 0;
#X connect 14 0 16 0;
#X connect 15 0 17 0;
#X connect 16 0 11 1;
#X connect 17 0 14 0;
#X connect 17 1 18 0;
#X connect 18 0 16 1;
#X connect 19 0 20 0;
#X connect 19 0 20 1;
#X connect 21 0 27 0;
#X connect 22 0 21 0;
#X connect 23 0 21 0;
#X connect 24 0 21 1;
#X connect 25 0 26 0;
#X connect 25 0 34 0;
#X connect 25 0 36 0;
#X connect 25 0 29 0;
#X connect 25 0 37 0;
#X connect 26 0 35 0;
#X connect 27 0 19 0;
#X connect 28 0 25 0;
#X connect 29 0 31 0;
#X connect 30 0 31 0;
#X connect 31 0 27 1;
#X connect 32 0 30 0;
#X connect 32 1 33 0;
#X connect 33 0 31 1;
#X connect 34 0 22 0;
#X connect 35 0 23 0;
#X connect 36 0 24 0;
#X connect 37 0 32 0;
