#N canvas 2262 70 1105 1179 12;
#X obj 406 349 line;
#X obj 406 376 vsl 15 128 0 127 0 0 empty empty empty 0 -9 0 10 #fcfcfc
#000000 #000000 0 1;
#X floatatom 406 513 5 0 0 0 - - - 0;
#X obj 406 295 bng 15 250 50 0 empty empty empty 17 7 0 10 #fcfcfc
#000000 #000000;
#X obj 403 933 *~;
#X floatatom 449 891 5 0 0 0 - - - 0;
#X obj 406 8 loadbang;
#X obj 406 205 bng 15 250 50 0 empty empty empty 17 7 0 10 #fcfcfc
#000000 #000000;
#X obj 403 987 dac~;
#X obj 402 891 lop~;
#X floatatom 125 612 5 0 0 0 - - - 0;
#X obj 125 706 *~;
#X floatatom 143 674 5 0 1 0 - - - 0;
#X obj 266 644 osc~;
#X floatatom 266 614 5 0 0 0 - - - 0;
#X obj 266 708 *~;
#X floatatom 284 675 5 0 1 0 - - - 0;
#X obj 266 586 * 2;
#X obj 125 585 * 1;
#X obj 403 643 osc~;
#X floatatom 403 613 5 0 0 0 - - - 0;
#X obj 403 707 *~;
#X floatatom 421 674 5 0 1 0 - - - 0;
#X obj 543 642 osc~;
#X floatatom 543 615 5 0 0 0 - - - 0;
#X obj 543 706 *~;
#X floatatom 561 673 5 0 1 0 - - - 0;
#X floatatom 682 612 5 0 0 0 - - - 0;
#X obj 683 710 *~;
#X floatatom 701 681 5 0 1 0 - - - 0;
#X obj 403 587 * 3;
#X obj 543 588 * 4;
#X obj 682 584 * 5;
#X obj 406 239 metro 500;
#X obj 479 290 delay 250;
#X msg 477 315 440 250;
#X msg 406 315 20 250;
#X msg 496 890 824;
#X obj 541 890 loadbang;
#X msg 463 673 0.12;
#X obj 187 647 loadbang;
#X obj 328 647 loadbang;
#X obj 463 646 loadbang;
#X obj 605 641 loadbang;
#X obj 750 648 loadbang;
#X msg 605 672 0.08;
#X msg 187 674 0.12;
#X msg 328 674 0.1;
#X obj 861 915 line~;
#X obj 406 119 t b b;
#X obj 406 65 bng 15 250 50 0 empty empty empty 17 7 0 10 #fcfcfc #000000
#000000;
#X obj 125 642 phasor~;
#X obj 682 641 phasor~;
#X msg 750 680 0.08;
#X msg 861 507 0.1 100;
#X obj 406 178 delay 110;
#X connect 0 0 1 0;
#X connect 1 0 2 0;
#X connect 2 0 18 0;
#X connect 2 0 17 0;
#X connect 2 0 31 0;
#X connect 2 0 32 0;
#X connect 2 0 30 0;
#X connect 3 0 36 0;
#X connect 3 0 34 0;
#X connect 4 0 8 0;
#X connect 4 0 8 1;
#X connect 5 0 9 1;
#X connect 6 0 50 0;
#X connect 7 0 33 0;
#X connect 9 0 4 0;
#X connect 10 0 51 0;
#X connect 11 0 9 0;
#X connect 12 0 11 1;
#X connect 13 0 15 0;
#X connect 14 0 13 0;
#X connect 15 0 9 0;
#X connect 16 0 15 1;
#X connect 17 0 14 0;
#X connect 18 0 10 0;
#X connect 19 0 21 0;
#X connect 20 0 19 0;
#X connect 21 0 9 0;
#X connect 22 0 21 1;
#X connect 23 0 25 0;
#X connect 24 0 23 0;
#X connect 25 0 9 0;
#X connect 26 0 25 1;
#X connect 27 0 52 0;
#X connect 28 0 9 0;
#X connect 29 0 28 1;
#X connect 30 0 20 0;
#X connect 31 0 24 0;
#X connect 32 0 27 0;
#X connect 33 0 3 0;
#X connect 34 0 35 0;
#X connect 35 0 0 0;
#X connect 36 0 0 0;
#X connect 37 0 5 0;
#X connect 38 0 37 0;
#X connect 39 0 22 0;
#X connect 40 0 46 0;
#X connect 41 0 47 0;
#X connect 42 0 39 0;
#X connect 43 0 45 0;
#X connect 44 0 53 0;
#X connect 45 0 26 0;
#X connect 46 0 12 0;
#X connect 47 0 16 0;
#X connect 48 0 4 1;
#X connect 49 0 55 0;
#X connect 49 1 54 0;
#X connect 50 0 49 0;
#X connect 51 0 11 0;
#X connect 52 0 28 0;
#X connect 53 0 29 0;
#X connect 54 0 48 0;
#X connect 55 0 7 0;
