#N canvas 1707 302 592 639 12;
#X obj 87 336 noise~;
#X obj 207 362 line~;
#X obj 141 380 *~;
#X obj 142 578 *~;
#X floatatom 176 579 5 0 3 0 - - - 0;
#X obj 224 554 loadbang;
#X obj 143 635 dac~;
#X obj 303 229 delay 10;
#X msg 224 579 0.24;
#X floatatom 304 59 5 0 1 0 - - - 0;
#X obj 304 92 sel 1;
#X obj 362 93 sel 0;
#X msg 303 281 0;
#X obj 303 253 t b b;
#X msg 419 315 10, f 2;
#X msg 207 281 1 5;
#X msg 228 55 1;
#X obj 142 440 lop~;
#X floatatom 180 441 5 0 0 0 - - - 0;
#X obj 224 416 loadbang;
#X floatatom 182 502 5 0 0 0 - - - 0;
#X obj 226 479 loadbang;
#X obj 143 502 hip~;
#X msg 226 502 503;
#X msg 224 441 497;
#X obj 304 23 r EllenFootsteps @hv_param 0 1 0;
#X connect 0 0 2 0;
#X connect 1 0 2 1;
#X connect 2 0 17 0;
#X connect 3 0 6 0;
#X connect 3 0 6 1;
#X connect 4 0 3 1;
#X connect 5 0 8 0;
#X connect 7 0 13 0;
#X connect 8 0 4 0;
#X connect 9 0 10 0;
#X connect 9 0 11 0;
#X connect 10 0 15 0;
#X connect 10 0 7 0;
#X connect 11 0 7 0;
#X connect 12 0 1 0;
#X connect 13 0 12 0;
#X connect 13 1 14 0;
#X connect 14 0 1 1;
#X connect 15 0 1 0;
#X connect 16 0 10 0;
#X connect 17 0 22 0;
#X connect 18 0 17 1;
#X connect 19 0 24 0;
#X connect 20 0 22 1;
#X connect 21 0 23 0;
#X connect 22 0 3 0;
#X connect 23 0 20 0;
#X connect 24 0 18 0;
#X connect 25 0 9 0;
