#N canvas 1718 79 1711 1213 12;
#X obj 595 -7 loadbang;
#X obj 110 479 osc~;
#X obj 110 291 line;
#X obj 110 318 vsl 15 128 0 127 0 0 empty empty empty 0 -9 0 10 #fcfcfc
#000000 #000000 0 1;
#X floatatom 110 455 5 0 0 0 - - - 0;
#X obj 110 237 bng 15 250 50 0 empty empty empty 17 7 0 10 #fcfcfc
#000000 #000000;
#X obj 110 570 *~;
#X obj 270 223 bng 15 250 50 0 empty empty empty 17 7 0 10 #fcfcfc
#000000 #000000;
#X obj 270 552 line~;
#X msg 333 248 0 20;
#X obj 109 528 hip~;
#X floatatom 149 504 5 0 0 0 - - - 0;
#X obj 110 134 bng 15 250 50 0 empty empty empty 17 7 0 10 #fcfcfc
#000000 #000000;
#X obj 311 1129 dac~;
#X obj 181 231 delay 15;
#X obj 310 1005 *~;
#X floatatom 346 988 4 0 1 0 - - - 0;
#X obj 346 938 loadbang;
#X msg 346 962 1;
#X obj 432 462 osc~;
#X obj 432 274 line;
#X obj 432 301 vsl 15 128 0 127 0 0 empty empty empty 0 -9 0 10 #fcfcfc
#000000 #000000 0 1;
#X floatatom 432 438 5 0 0 0 - - - 0;
#X obj 432 220 bng 15 250 50 0 empty empty empty 17 7 0 10 #fcfcfc
#000000 #000000;
#X obj 432 553 *~;
#X obj 592 206 bng 15 250 50 0 empty empty empty 17 7 0 10 #fcfcfc
#000000 #000000;
#X obj 592 535 line~;
#X msg 655 231 0 20;
#X obj 431 511 hip~;
#X floatatom 471 487 5 0 0 0 - - - 0;
#X obj 503 214 delay 15;
#X obj 655 207 delay 380;
#X msg 432 240 1880 15;
#X obj 765 455 osc~;
#X obj 765 267 line;
#X obj 765 294 vsl 15 128 0 127 0 0 empty empty empty 0 -9 0 10 #fcfcfc
#000000 #000000 0 1;
#X floatatom 765 431 5 0 0 0 - - - 0;
#X obj 765 213 bng 15 250 50 0 empty empty empty 17 7 0 10 #fcfcfc
#000000 #000000;
#X obj 765 546 *~;
#X obj 925 199 bng 15 250 50 0 empty empty empty 17 7 0 10 #fcfcfc
#000000 #000000;
#X obj 925 528 line~;
#X msg 988 224 0 20;
#X obj 764 504 hip~;
#X floatatom 804 480 5 0 0 0 - - - 0;
#X obj 836 207 delay 15;
#X msg 765 233 880 15;
#X obj 1069 462 noise~;
#X obj 1126 480 bp~;
#X obj 1283 171 bng 15 250 50 0 empty empty empty 17 7 0 10 #fcfcfc
#000000 #000000;
#X obj 1283 743 line~;
#X obj 1135 261 line;
#X obj 1135 288 vsl 15 128 0 127 0 0 empty empty empty 0 -9 0 10 #fcfcfc
#000000 #000000 0 1;
#X floatatom 1135 425 5 0 0 0 - - - 0;
#X obj 1135 207 bng 15 250 50 0 empty empty empty 17 7 0 10 #fcfcfc
#000000 #000000;
#X obj 1211 205 delay 170;
#X msg 1359 256 0 20;
#X floatatom 1143 597 5 0 0 0 - - - 0;
#X obj 1100 636 lop~;
#X msg 1189 454 1;
#X obj 1195 537 loadbang;
#X obj 407 1002 *~;
#X msg 1135 231 500 250;
#X obj 1088 164 delay 10;
#X msg 1211 231 40 80;
#X msg 1083 227 40 5;
#X obj 595 72 t b b;
#X obj 595 41 bng 15 250 50 0 empty empty empty 17 7 0 10 #fcfcfc #000000
#000000;
#X obj 1433 473 noise~;
#X obj 1490 491 bp~;
#X obj 1647 182 bng 15 250 50 0 empty empty empty 17 7 0 10 #fcfcfc
#000000 #000000;
#X obj 1647 754 line~;
#X obj 1499 272 line;
#X obj 1499 299 vsl 15 128 0 127 0 0 empty empty empty 0 -9 0 10 #fcfcfc
#000000 #000000 0 1;
#X floatatom 1499 436 5 0 0 0 - - - 0;
#X obj 1499 218 bng 15 250 50 0 empty empty empty 17 7 0 10 #fcfcfc
#000000 #000000;
#X obj 1575 216 delay 170;
#X obj 1723 243 delay 180;
#X msg 1723 267 0 20;
#X floatatom 1507 608 5 0 0 0 - - - 0;
#X obj 1464 647 lop~;
#X msg 1553 465 1;
#X obj 1559 548 loadbang;
#X obj 1452 175 delay 10;
#X msg 1499 242 3500 250;
#X msg 1195 561 1880;
#X msg 1575 242 400 80;
#X msg 1447 238 400 5;
#X msg 1647 267 0.01 20;
#X msg 1283 256 0.1 20;
#X obj 409 1044 *~;
#X floatatom 538 1051 4 0 1 0 - - - 0;
#X obj 538 1001 loadbang;
#X msg 538 1025 0.59;
#X obj 1359 232 delay 280;
#X msg 592 231 0.015 20;
#X msg 925 224 0.02 20;
#X obj 988 200 delay 480;
#X msg 836 233 40 520;
#X msg 110 257 6880 15;
#X msg 181 257 1400 520;
#X msg 503 240 400 320;
#X obj 333 224 delay 430;
#X msg 270 248 0.008 20;
#X msg 1559 572 1588;
#X connect 0 0 66 0;
#X connect 1 0 10 0;
#X connect 2 0 3 0;
#X connect 3 0 4 0;
#X connect 4 0 1 0;
#X connect 5 0 98 0;
#X connect 5 0 7 0;
#X connect 5 0 14 0;
#X connect 6 0 15 0;
#X connect 7 0 102 0;
#X connect 7 0 101 0;
#X connect 8 0 6 1;
#X connect 9 0 8 0;
#X connect 10 0 6 0;
#X connect 11 0 10 1;
#X connect 12 0 5 0;
#X connect 12 0 23 0;
#X connect 12 0 37 0;
#X connect 12 0 62 0;
#X connect 12 0 82 0;
#X connect 14 0 99 0;
#X connect 15 0 13 1;
#X connect 16 0 15 1;
#X connect 17 0 18 0;
#X connect 18 0 16 0;
#X connect 19 0 28 0;
#X connect 20 0 21 0;
#X connect 21 0 22 0;
#X connect 22 0 19 0;
#X connect 23 0 32 0;
#X connect 23 0 25 0;
#X connect 23 0 30 0;
#X connect 24 0 15 0;
#X connect 25 0 94 0;
#X connect 25 0 31 0;
#X connect 26 0 24 1;
#X connect 27 0 26 0;
#X connect 28 0 24 0;
#X connect 29 0 28 1;
#X connect 30 0 100 0;
#X connect 31 0 27 0;
#X connect 32 0 20 0;
#X connect 33 0 42 0;
#X connect 34 0 35 0;
#X connect 35 0 36 0;
#X connect 36 0 33 0;
#X connect 37 0 45 0;
#X connect 37 0 39 0;
#X connect 37 0 44 0;
#X connect 38 0 15 0;
#X connect 39 0 95 0;
#X connect 39 0 96 0;
#X connect 40 0 38 1;
#X connect 41 0 40 0;
#X connect 42 0 38 0;
#X connect 43 0 42 1;
#X connect 44 0 97 0;
#X connect 45 0 34 0;
#X connect 46 0 47 0;
#X connect 47 0 57 0;
#X connect 48 0 88 0;
#X connect 48 0 93 0;
#X connect 49 0 60 1;
#X connect 50 0 51 0;
#X connect 51 0 52 0;
#X connect 52 0 47 1;
#X connect 53 0 61 0;
#X connect 53 0 48 0;
#X connect 53 0 54 0;
#X connect 53 0 58 0;
#X connect 54 0 63 0;
#X connect 55 0 49 0;
#X connect 56 0 57 1;
#X connect 57 0 60 0;
#X connect 58 0 47 2;
#X connect 59 0 84 0;
#X connect 60 0 89 0;
#X connect 61 0 50 0;
#X connect 62 0 53 0;
#X connect 63 0 50 0;
#X connect 64 0 50 0;
#X connect 65 0 12 0;
#X connect 65 1 64 0;
#X connect 65 1 86 0;
#X connect 66 0 65 0;
#X connect 67 0 68 0;
#X connect 68 0 79 0;
#X connect 69 0 76 0;
#X connect 69 0 87 0;
#X connect 70 0 60 1;
#X connect 71 0 72 0;
#X connect 72 0 73 0;
#X connect 73 0 68 1;
#X connect 74 0 83 0;
#X connect 74 0 69 0;
#X connect 74 0 75 0;
#X connect 74 0 80 0;
#X connect 75 0 85 0;
#X connect 76 0 77 0;
#X connect 77 0 70 0;
#X connect 78 0 79 1;
#X connect 79 0 60 0;
#X connect 80 0 68 2;
#X connect 81 0 103 0;
#X connect 82 0 74 0;
#X connect 83 0 71 0;
#X connect 84 0 56 0;
#X connect 85 0 71 0;
#X connect 86 0 71 0;
#X connect 87 0 70 0;
#X connect 88 0 49 0;
#X connect 89 0 13 1;
#X connect 90 0 89 1;
#X connect 91 0 92 0;
#X connect 92 0 90 0;
#X connect 93 0 55 0;
#X connect 94 0 26 0;
#X connect 95 0 40 0;
#X connect 96 0 41 0;
#X connect 97 0 34 0;
#X connect 98 0 2 0;
#X connect 99 0 2 0;
#X connect 100 0 20 0;
#X connect 101 0 9 0;
#X connect 102 0 8 0;
#X connect 103 0 78 0;
