#N canvas 403 26 1250 1117 12;
#X obj 39 367 noise~;
#X obj 186 554 bp~, f 4;
#X obj 225 554 bp~, f 4;
#X obj 264 554 bp~, f 4;
#X obj 302 554 bp~, f 4;
#X obj 341 554 bp~, f 4;
#X floatatom 89 130 5 0 0 0 - - - 0;
#X floatatom 132 130 5 0 0 0 - - - 0;
#X floatatom 175 130 5 0 0 0 - - - 0;
#X floatatom 218 130 5 0 0 0 - - - 0;
#X floatatom 260 130 5 0 0 0 - - - 0;
#X obj 341 15 bng 15 250 50 0 empty empty empty 17 7 0 10 #fcfcfc #000000
#000000;
#X floatatom 47 129 5 0 0 0 - - - 0;
#X obj 279 256 line;
#X obj 320 257 line;
#X obj 401 259 line;
#X obj 361 258 line;
#X obj 443 259 line;
#X floatatom 279 280 5 0 0 0 - - - 0;
#X floatatom 320 281 5 0 0 0 - - - 0;
#X floatatom 361 282 5 0 0 0 - - - 0;
#X floatatom 401 283 5 0 0 0 - - - 0;
#X floatatom 443 283 5 0 0 0 - - - 0;
#X obj 838 47 delay 10;
#X msg 839 83 0 0 80 150 200 440 3000;
#X obj 841 115 unpack f f f f f f f;
#X floatatom 852 152 5 0 0 0 - - - 0;
#X floatatom 895 152 5 0 0 0 - - - 0;
#X floatatom 938 152 5 0 0 0 - - - 0;
#X floatatom 981 152 5 0 0 0 - - - 0;
#X floatatom 1023 152 5 0 0 0 - - - 0;
#X floatatom 1066 152 5 0 0 0 - - - 0;
#X floatatom 810 151 5 0 0 0 - - - 0;
#X obj 237 255 line;
#X obj 379 554 bp~, f 4;
#X obj 189 729 dac~;
#X msg 749 113 2000;
#X msg 140 50 80 100 120 330 400 770;
#X obj 141 85 unpack f f f f f f;
#X obj 189 677 *~;
#X msg 571 289 0.5;
#X msg 634 291 0;
#X obj 549 83 delay 100;
#X connect 0 0 1 0;
#X connect 0 0 2 0;
#X connect 0 0 3 0;
#X connect 0 0 4 0;
#X connect 0 0 5 0;
#X connect 0 0 34 0;
#X connect 1 0 39 0;
#X connect 2 0 39 0;
#X connect 3 0 39 0;
#X connect 4 0 39 0;
#X connect 5 0 39 0;
#X connect 6 0 13 0;
#X connect 7 0 14 0;
#X connect 8 0 16 0;
#X connect 9 0 15 0;
#X connect 10 0 17 0;
#X connect 11 0 37 0;
#X connect 11 0 23 0;
#X connect 11 0 42 0;
#X connect 11 0 40 0;
#X connect 12 0 33 0;
#X connect 13 0 18 0;
#X connect 14 0 19 0;
#X connect 15 0 21 0;
#X connect 16 0 20 0;
#X connect 17 0 22 0;
#X connect 18 0 1 1;
#X connect 19 0 2 1;
#X connect 20 0 3 1;
#X connect 21 0 4 1;
#X connect 22 0 5 1;
#X connect 23 0 24 0;
#X connect 23 0 36 0;
#X connect 24 0 25 0;
#X connect 25 0 32 0;
#X connect 25 1 26 0;
#X connect 25 2 27 0;
#X connect 25 3 28 0;
#X connect 25 4 29 0;
#X connect 25 5 30 0;
#X connect 25 6 31 0;
#X connect 33 0 5 2;
#X connect 33 0 4 2;
#X connect 33 0 3 2;
#X connect 33 0 2 2;
#X connect 33 0 1 2;
#X connect 33 0 34 2;
#X connect 34 0 39 0;
#X connect 37 0 38 0;
#X connect 38 0 12 0;
#X connect 38 1 6 0;
#X connect 38 2 7 0;
#X connect 38 3 8 0;
#X connect 38 4 9 0;
#X connect 38 5 10 0;
#X connect 39 0 35 0;
#X connect 40 0 39 1;
#X connect 41 0 39 1;
#X connect 42 0 41 0;
