#N canvas 1116 25 1121 723 12;
#X obj 39 28 noise~;
#X obj 110 225 *~;
#X obj 183 188 line~;
#X msg 182 133 0.5;
#X obj 178 77 t b b b;
#X obj 223 108 delay 50;
#X msg 223 133 0;
#X obj 288 109 delay 50;
#X msg 288 133 50;
#X obj 332 13 loadbang;
#X obj 332 40 bng 15 250 50 0 empty empty empty 17 7 0 10 #fcfcfc #000000
#000000;
#X obj 409 38 noise~;
#X obj 480 235 *~;
#X obj 287 278 *~ 0.5;
#X obj 287 302 dac~ 1;
#X obj 555 217 line~;
#X msg 554 162 0.5;
#X obj 550 106 t b b b;
#X obj 595 137 delay 50;
#X msg 595 162 0;
#X obj 660 138 delay 50;
#X msg 660 162 50;
#X obj 470 96 *~ 0.02;
#X obj 548 84 delay 70;
#X obj 22 76 lop~ 181 80;
#X obj 387 97 bp~ 375 100;
#X obj 117 76 *~ 0.5;
#X connect 0 0 24 0;
#X connect 0 0 26 0;
#X connect 1 0 13 0;
#X connect 2 0 1 1;
#X connect 3 0 2 0;
#X connect 4 0 3 0;
#X connect 4 1 5 0;
#X connect 4 2 7 0;
#X connect 5 0 6 0;
#X connect 6 0 2 0;
#X connect 7 0 8 0;
#X connect 8 0 2 1;
#X connect 9 0 10 0;
#X connect 10 0 4 0;
#X connect 10 0 23 0;
#X connect 11 0 22 0;
#X connect 11 0 25 0;
#X connect 12 0 13 0;
#X connect 13 0 14 0;
#X connect 15 0 12 1;
#X connect 16 0 15 0;
#X connect 17 0 16 0;
#X connect 17 1 18 0;
#X connect 17 2 20 0;
#X connect 18 0 19 0;
#X connect 19 0 15 0;
#X connect 20 0 21 0;
#X connect 21 0 15 1;
#X connect 22 0 12 0;
#X connect 23 0 17 0;
#X connect 24 0 1 0;
#X connect 25 0 12 0;
#X connect 26 0 1 0;
