#N canvas 2180 163 937 758 12;
#X declare -stdpath ./;
#X obj 224 153 noise~;
#X obj 415 33 bng 15 250 50 0 empty empty Running 17 7 0 10 #c6feff
#000000 #000000;
#X obj 224 252 *~;
#X obj 226 569 *~;
#X floatatom 303 566 5 0 1 0 - - - 0;
#X obj 226 643 dac~ 1 2;
#X obj 709 32 bng 15 250 50 0 empty empty Walking 17 7 0 10 #00faff
#000000 #000000;
#N canvas 1657 596 693 436 FootstepEnvelope1 0;
#X obj 183 103 inlet;
#X obj 183 127 bng 15 250 50 0 empty empty empty 17 7 0 10 #fcfcfc
#000000 #000000;
#X obj 183 272 vline~;
#X obj 183 147 t b b;
#X obj 183 296 outlet~;
#X obj 98 170 loadbang;
#X msg 269 229 1 20;
#X msg 183 238 0 80;
#X obj 184 195 delay 10;
#X obj 269 196 delay 5;
#X connect 0 0 1 0;
#X connect 1 0 3 0;
#X connect 2 0 4 0;
#X connect 3 0 8 0;
#X connect 3 1 9 0;
#X connect 5 0 7 0;
#X connect 6 0 2 0;
#X connect 7 0 2 0;
#X connect 8 0 7 0;
#X connect 9 0 6 0;
#X restore 349 153 pd FootstepEnvelope1;
#N canvas 2292 367 880 602 Filters1 0;
#X obj 80 328 inlet~;
#X msg 195 307 \$1 30;
#X obj 195 331 vline~;
#X floatatom 198 214 5 0 0 0 - - - 0;
#X msg 694 323 \$1 30;
#X obj 694 347 line;
#X floatatom 694 220 5 0 0 0 - - - 0;
#X obj 328 531 outlet~;
#X obj 196 92 inlet grassSurface;
#X msg 304 307 \$1 30;
#X obj 304 331 vline~;
#X obj 266 397 vcf~ 100 80;
#X floatatom 248 206 5 0 0 0 - - - 0;
#X obj 195 179 unpack f f f f f;
#X floatatom 296 210 5 0 0 0 - - - 0;
#X floatatom 349 210 5 0 0 0 - - - 0;
#X msg 405 304 \$1 30;
#X obj 405 328 vline~;
#X obj 369 394 vcf~ 100 80;
#X msg 513 309 \$1 30;
#X obj 513 333 vline~;
#X obj 472 397 vcf~ 100 80;
#X msg 192 142 19084 19462 18238 19476 30;
#X obj 329 506 *~ 0.7;
#X obj 157 396 vcf~ 1000 40;
#X obj 98 96 loadbang;
#X connect 0 0 11 0;
#X connect 0 0 18 0;
#X connect 0 0 21 0;
#X connect 0 0 24 0;
#X connect 1 0 2 0;
#X connect 2 0 24 1;
#X connect 3 0 1 0;
#X connect 4 0 5 0;
#X connect 5 0 11 2;
#X connect 5 0 18 2;
#X connect 5 0 21 2;
#X connect 5 0 24 2;
#X connect 6 0 4 0;
#X connect 8 0 22 0;
#X connect 9 0 10 0;
#X connect 10 0 11 1;
#X connect 11 1 23 0;
#X connect 12 0 9 0;
#X connect 13 0 3 0;
#X connect 13 1 12 0;
#X connect 13 2 14 0;
#X connect 13 3 15 0;
#X connect 13 4 6 0;
#X connect 14 0 16 0;
#X connect 15 0 19 0;
#X connect 16 0 17 0;
#X connect 17 0 18 1;
#X connect 18 1 23 0;
#X connect 19 0 20 0;
#X connect 20 0 21 1;
#X connect 21 0 23 0;
#X connect 22 0 13 0;
#X connect 23 0 7 0;
#X connect 24 1 23 0;
#X connect 25 0 22 0;
#X restore 224 350 pd Filters1;
#N canvas 2231 791 693 436 FootstepEnvelope2 0;
#X obj 183 103 inlet;
#X obj 183 127 bng 15 250 50 0 empty empty empty 17 7 0 10 #fcfcfc
#000000 #000000;
#X obj 183 272 vline~;
#X obj 183 147 t b b;
#X obj 183 296 outlet~;
#X obj 98 170 loadbang;
#X msg 183 227 0 5;
#X obj 183 193 delay 15;
#X msg 305 206 0.25 5;
#X connect 0 0 1 0;
#X connect 1 0 3 0;
#X connect 2 0 4 0;
#X connect 3 0 7 0;
#X connect 3 1 8 0;
#X connect 5 0 6 0;
#X connect 6 0 2 0;
#X connect 7 0 6 0;
#X connect 8 0 2 0;
#X restore 512 153 pd FootstepEnvelope2;
#X obj 274 252 *~;
#N canvas 2257 206 722 602 Filters2 0;
#X obj 80 328 inlet~;
#X msg 195 307 \$1 30;
#X obj 195 331 vline~;
#X floatatom 195 206 5 0 0 0 - - - 0;
#X msg 475 324 \$1 30;
#X obj 475 348 line;
#X floatatom 475 221 5 0 0 0 - - - 0;
#X obj 230 492 outlet~;
#X obj 196 92 inlet grassSurface;
#X obj 195 179 unpack f f f;
#X msg 304 307 \$1 30;
#X obj 304 331 vline~;
#X floatatom 252 210 5 0 0 0 - - - 0;
#X obj 231 467 *~ 0.25;
#X obj 266 396 vcf~ 100 80;
#X obj 157 396 vcf~ 100 80;
#X msg 195 142 14684 18462 5;
#X obj 98 96 loadbang;
#X connect 0 0 14 0;
#X connect 0 0 15 0;
#X connect 1 0 2 0;
#X connect 2 0 15 1;
#X connect 3 0 1 0;
#X connect 4 0 5 0;
#X connect 5 0 14 2;
#X connect 5 0 15 2;
#X connect 6 0 4 0;
#X connect 8 0 16 0;
#X connect 9 0 3 0;
#X connect 9 1 12 0;
#X connect 9 2 6 0;
#X connect 10 0 11 0;
#X connect 11 0 14 1;
#X connect 12 0 10 0;
#X connect 13 0 7 0;
#X connect 15 1 13 0;
#X connect 16 0 9 0;
#X connect 17 0 16 0;
#X restore 326 351 pd Filters2;
#N canvas 2722 906 693 426 FootstepEnvelope3 0;
#X obj 183 103 inlet;
#X obj 183 127 bng 15 250 50 0 empty empty empty 17 7 0 10 #fcfcfc
#000000 #000000;
#X obj 183 272 vline~;
#X obj 183 147 t b b;
#X obj 183 296 outlet~;
#X obj 98 170 loadbang;
#X msg 183 227 0 10;
#X obj 182 192 delay 40;
#X obj 270 183 delay 25;
#X msg 326 218 0.1 10;
#X connect 0 0 1 0;
#X connect 1 0 3 0;
#X connect 2 0 4 0;
#X connect 3 0 7 0;
#X connect 3 1 8 0;
#X connect 5 0 6 0;
#X connect 6 0 2 0;
#X connect 7 0 6 0;
#X connect 8 0 9 0;
#X connect 9 0 2 0;
#X restore 705 153 pd FootstepEnvelope3;
#X obj 326 253 *~;
#N canvas 2434 87 722 602 Filters3 0;
#X obj 80 328 inlet~;
#X msg 195 307 \$1 30;
#X obj 195 331 vline~;
#X floatatom 195 206 5 0 0 0 - - - 0;
#X msg 475 324 \$1 30;
#X obj 475 348 line;
#X floatatom 475 221 5 0 0 0 - - - 0;
#X obj 230 492 outlet~;
#X obj 196 92 inlet grassSurface;
#X obj 195 179 unpack f f f;
#X msg 304 307 \$1 30;
#X obj 304 331 vline~;
#X floatatom 252 210 5 0 0 0 - - - 0;
#X obj 231 467 *~ 0.5;
#X obj 157 396 vcf~ 100 80;
#X obj 266 396 vcf~ 100 80;
#X msg 195 142 8684 11462 10;
#X obj 98 96 loadbang;
#X connect 0 0 14 0;
#X connect 0 0 15 0;
#X connect 1 0 2 0;
#X connect 2 0 14 1;
#X connect 3 0 1 0;
#X connect 4 0 5 0;
#X connect 5 0 14 2;
#X connect 5 0 15 2;
#X connect 6 0 4 0;
#X connect 8 0 16 0;
#X connect 9 0 3 0;
#X connect 9 1 12 0;
#X connect 9 2 6 0;
#X connect 10 0 11 0;
#X connect 11 0 15 1;
#X connect 12 0 10 0;
#X connect 13 0 7 0;
#X connect 14 1 13 0;
#X connect 15 1 13 0;
#X connect 16 0 9 0;
#X connect 17 0 16 0;
#X restore 447 352 pd Filters3;
#N canvas 2217 314 1027 814 PitchShifter 0;
#X floatatom 246 236 0 0 0 0 - - - 0;
#X obj 246 607 *~;
#X obj 369 534 line~;
#X floatatom 369 274 0 0 0 0 - - - 0;
#X text 434 21 PITCH SHIFTER;
#X obj 369 508 pack 0 200;
#X obj 369 245 r window;
#X obj 246 292 exp;
#X floatatom 246 318 6 0 0 0 - - - 0;
#X obj 246 408 /;
#X obj 294 342 * 0.001;
#X obj 468 595 line~;
#X obj 468 570 pack 0 200;
#X floatatom 468 521 0 0 0 0 - - - 0;
#X obj 468 493 r delay;
#X obj 246 633 +~;
#X obj 183 659 cos~;
#X obj 183 686 *~;
#X obj 324 730 +~;
#X obj 310 536 wrap~;
#X obj 405 590 *~;
#X obj 405 642 +~;
#X obj 342 669 cos~;
#X obj 342 696 *~;
#X obj 625 163 loadbang;
#X obj 294 369 t b f;
#X floatatom 246 434 6 0 0 0 - - - 0;
#X obj 310 509 +~ 0.5;
#X obj 183 607 -~ 0.5;
#X obj 183 633 *~ 0.5;
#X obj 342 589 -~ 0.5;
#X obj 342 641 *~ 0.5;
#X obj 246 345 - 1;
#X obj 246 266 * 0.05776;
#X obj 246 371 * -1;
#X text 199 312 speed;
#X text 192 326 change;
#X text 174 425 tape head;
#X obj 246 465 phasor~;
#X text 471 452 delay;
#X text 468 470 (msec);
#X obj 369 298 max 1;
#X text 174 438 rotation freq, f 9;
#X obj 246 659 vd~ G09-del;
#X obj 405 671 vd~ G09-del;
#X obj 55 129 delwrite~ G09-del 5000;
#X text 402 271 <= window (msec);
#X text 137 221 transposition;
#X text 136 234 (halftones) =>;
#X obj 788 166 declare -stdpath ./;
#X obj 55 85 inlet~;
#X obj 324 774 outlet~;
#X obj 294 83 inlet;
#X floatatom 294 180 5 0 0 0 - - - 0;
#X obj 383 77 bng 15 250 50 0 empty empty empty 17 7 0 10 #fcfcfc #000000
#000000;
#X obj 468 546 max 0.5;
#X msg 625 189 \; transpose 0 \; window 25 \; delay 0;
#X obj 294 121 random 3;
#X connect 0 0 33 0;
#X connect 1 0 15 0;
#X connect 2 0 1 1;
#X connect 2 0 20 1;
#X connect 3 0 41 0;
#X connect 5 0 2 0;
#X connect 6 0 3 0;
#X connect 7 0 8 0;
#X connect 8 0 32 0;
#X connect 9 0 26 0;
#X connect 10 0 25 0;
#X connect 11 0 15 1;
#X connect 11 0 21 1;
#X connect 12 0 11 0;
#X connect 13 0 55 0;
#X connect 14 0 13 0;
#X connect 15 0 43 0;
#X connect 16 0 17 0;
#X connect 17 0 18 0;
#X connect 18 0 51 0;
#X connect 19 0 20 0;
#X connect 19 0 30 0;
#X connect 20 0 21 0;
#X connect 21 0 44 0;
#X connect 22 0 23 0;
#X connect 23 0 18 1;
#X connect 24 0 56 0;
#X connect 25 0 9 0;
#X connect 25 1 9 1;
#X connect 26 0 38 0;
#X connect 27 0 19 0;
#X connect 28 0 29 0;
#X connect 29 0 16 0;
#X connect 30 0 31 0;
#X connect 31 0 22 0;
#X connect 32 0 34 0;
#X connect 33 0 7 0;
#X connect 34 0 9 0;
#X connect 38 0 1 0;
#X connect 38 0 28 0;
#X connect 38 0 27 0;
#X connect 41 0 10 0;
#X connect 41 0 5 0;
#X connect 43 0 17 1;
#X connect 44 0 23 1;
#X connect 50 0 45 0;
#X connect 52 0 57 0;
#X connect 53 0 0 0;
#X connect 54 0 57 0;
#X connect 55 0 12 0;
#X connect 57 0 53 0;
#X restore 225 524 pd PitchShifter;
#X obj 415 70 t b b;
#N canvas 2536 490 685 564 random-amplitude 0;
#X obj 47 152 inlet~;
#X obj 49 422 outlet~;
#X obj 48 267 *~;
#X obj 82 233 vline~;
#X obj 164 203 \$1 20;
#X obj 164 106 / 66;
#X floatatom 164 130 5 0 0 0 - - - 0;
#X obj 164 58 bng 15 250 50 0 empty empty empty 17 7 0 10 #fcfcfc #000000
#000000;
#X obj 164 82 random 100;
#X obj 164 18 inlet;
#X obj 164 153 clip 0.5 1;
#X connect 0 0 2 0;
#X connect 2 0 1 0;
#X connect 3 0 2 1;
#X connect 4 0 3 0;
#X connect 5 0 6 0;
#X connect 6 0 10 0;
#X connect 7 0 8 0;
#X connect 8 0 5 0;
#X connect 9 0 7 0;
#X connect 10 0 4 0;
#X restore 224 403 pd random-amplitude;
#X obj 636 364 bng 15 250 50 0 empty empty empty 17 7 0 10 #fcfcfc
#000000 #000000;
#X obj 120 685 writesf~;
#X msg 19 568 open Footsteps(Grass).wav;
#X msg 78 602 start;
#X msg 115 629 stop;
#X obj 406 538 loadbang;
#X msg 406 562 1;
#X connect 0 0 2 0;
#X connect 0 0 10 0;
#X connect 0 0 13 0;
#X connect 1 0 16 0;
#X connect 2 0 8 0;
#X connect 3 0 5 0;
#X connect 3 0 5 1;
#X connect 3 0 19 0;
#X connect 4 0 3 1;
#X connect 7 0 2 1;
#X connect 8 0 17 0;
#X connect 9 0 10 1;
#X connect 10 0 11 0;
#X connect 11 0 17 0;
#X connect 12 0 13 1;
#X connect 13 0 14 0;
#X connect 14 0 17 0;
#X connect 15 0 3 0;
#X connect 16 0 7 0;
#X connect 16 0 9 0;
#X connect 16 0 12 0;
#X connect 16 1 18 0;
#X connect 17 0 15 0;
#X connect 18 0 17 1;
#X connect 18 0 15 1;
#X connect 20 0 19 0;
#X connect 21 0 19 0;
#X connect 22 0 19 0;
#X connect 23 0 24 0;
#X connect 24 0 4 0;
