#N canvas 1643 61 1034 937 12;
#X obj 77 93 loadbang;
#N canvas 0 50 450 250 (subpatch) 0;
#X array clang 3231 float 2;
#X coords 0 1 3231 -1 200 140 1;
#X restore 74 254 graph;
#X obj 77 155 soundfiler;
#X obj 77 179 s samples \$1;
#N canvas 2439 422 732 599 sword 1;
#X obj 37 55 inlet envelope;
#X obj 187 57 inlet pitch;
#X obj 187 141 *;
#X obj 205 85 r samples;
#X obj 106 100 r samples;
#X obj 38 232 tabread4~ clang;
#X obj 269 204 inlet duration;
#X obj 269 248 t f b;
#X msg 88 293 0 \$1;
#X obj 92 335 line~;
#X obj 38 353 *~;
#N canvas 1920 266 509 425 randopan 1;
#X obj 76 60 inlet~ signal;
#X obj 281 56 r envelope;
#X obj 281 80 t b;
#X obj 281 104 random 100;
#X obj 281 128 / 100;
#X obj 281 162 swap 1;
#X obj 281 196 -;
#X obj 76 214 *~;
#X obj 251 254 *~;
#X obj 76 288 outlet~ left;
#X obj 251 288 outlet~ right;
#X obj 108 176 sqrt~;
#X obj 281 220 sqrt~;
#X connect 0 0 7 0;
#X connect 0 0 8 0;
#X connect 1 0 2 0;
#X connect 2 0 3 0;
#X connect 3 0 4 0;
#X connect 4 0 5 0;
#X connect 4 0 11 0;
#X connect 5 0 6 0;
#X connect 5 1 6 1;
#X connect 6 0 12 0;
#X connect 7 0 9 0;
#X connect 8 0 10 0;
#X connect 11 0 7 1;
#X connect 12 0 8 1;
#X restore 35 395 pd randopan;
#X obj 37 446 outlet~ left;
#X obj 151 447 outlet~ right;
#X obj 205 109 / 44.1;
#X msg 301 295 1;
#X obj 39 204 adsr~ 0 10 50 10 10;
#X connect 0 0 16 0;
#X connect 1 0 2 0;
#X connect 2 0 16 2;
#X connect 3 0 14 0;
#X connect 4 0 16 1;
#X connect 5 0 10 0;
#X connect 6 0 7 0;
#X connect 7 0 8 0;
#X connect 7 1 15 0;
#X connect 8 0 9 0;
#X connect 9 0 10 1;
#X connect 10 0 11 0;
#X connect 11 0 12 0;
#X connect 11 1 13 0;
#X connect 14 0 2 1;
#X connect 15 0 9 0;
#X connect 16 0 5 0;
#X restore 277 603 pd sword;
#X obj 272 483 r envelope;
#X obj 311 516 r pitch;
#X obj 344 545 r duration;
#X obj 276 692 dac~;
#X obj 277 647 *~;
#X floatatom 345 628 5 0 1 0 - - - 0;
#X msg 77 124 read -resize knife2.wav clang;
#X msg 461 468 \; pitch 2.01 \; envelope 0 \; envelope 1 \; duration
300;
#X msg 34 750 open WeaponPickUp.wav;
#X obj 164 855 writesf~;
#X msg 99 775 start;
#X msg 152 775 stop;
#X msg 79 465 \; pitch 1 \; envelope 0 \; envelope 1 \; duration 200
;
#X msg 452 629 \; pitch 3 \; envelope 0 \; envelope 1 \; duration 400
;
#X msg 78 627 \; pitch 2.5 \; envelope 0 \; envelope 1 \; duration
300;
#X obj 432 569 loadbang;
#X msg 423 596 1;
#X text 47 590 Click on this message box to play a sound;
#X connect 0 0 11 0;
#X connect 2 0 3 0;
#X connect 4 0 9 0;
#X connect 5 0 4 0;
#X connect 6 0 4 1;
#X connect 7 0 4 2;
#X connect 9 0 8 0;
#X connect 9 0 8 1;
#X connect 9 0 14 0;
#X connect 10 0 9 1;
#X connect 11 0 2 0;
#X connect 13 0 14 0;
#X connect 15 0 14 0;
#X connect 16 0 14 0;
#X connect 20 0 21 0;
#X connect 21 0 10 0;
