#N canvas 900 25 1340 1118 12;
#X obj 117 964 dac~ 1 2;
#X obj 127 771 bp~, f 6;
#X obj 127 846 *~ 0.2;
#X obj 279 529 vsl 15 128 100 300 0 0 empty empty empty 0 -9 0 10 #fcfcfc
#000000 #000000 0 1;
#X floatatom 279 671 6 0 0 0 - - - 0;
#X obj 184 769 bp~, f 6;
#X obj 364 528 vsl 15 128 400 800 0 0 empty empty empty 0 -9 0 10 #fcfcfc
#000000 #000000 0 1;
#X floatatom 364 669 7 0 0 0 - - - 0;
#X obj 32 596 hsl 128 15 0 5 0 0 empty empty empty -2 -8 0 10 #fcfcfc
#000000 #000000 0 1;
#X floatatom 27 626 5 0 0 0 - - - 0;
#X obj 212 415 + 100;
#X floatatom 212 439 5 0 0 0 - - - 0;
#X obj 7 7 loadbang;
#X floatatom 374 432 5 0 0 0 - - - 0;
#X floatatom 20 529 5 0 0 0 - - - 0;
#X obj 19 477 / 10;
#X obj 279 500 line;
#X obj 364 500 line;
#X obj 27 564 line;
#X floatatom 109 477 5 0 0 0 - - - 0;
#X floatatom 299 438 5 0 0 0 - - - 0;
#X msg 299 414 10000;
#X floatatom 437 431 5 0 0 0 - - - 0;
#X msg 437 407 10000;
#X obj 195 497 noise~;
#X obj 458 108 delay;
#X obj 271 112 metro;
#X obj 130 44 bng 15 250 50 0 empty empty empty 17 7 0 10 #fcfcfc #000000
#000000;
#X floatatom 303 80 5 0 0 0 - - - 0;
#X obj 377 132 random;
#X obj 20 506 + 1;
#X msg 109 453 10000;
#X msg 8 147 3;
#X obj 20 452 random 20, f 11;
#X obj 207 298 random 250, f 11;
#X obj 185 805 *~ 0.5;
#X obj 374 408 + 400;
#X floatatom 573 616 5 0 0 0 - - - 0;
#X floatatom 566 530 5 0 0 0 - - - 0;
#X obj 573 565 line;
#X floatatom 655 478 5 0 0 0 - - - 0;
#X msg 655 454 10000;
#X obj 566 453 random 70, f 11;
#X obj 576 591 hsl 128 15 0 70 0 0 empty empty empty -2 -8 0 10 #fcfcfc
#000000 #000000 0 1;
#X obj 566 507 + 10;
#X obj 303 53 random 5000;
#X obj 127 803 *~ 0.2;
#X msg 456 818 open -bytes 3 WindPatch2.wav;
#X msg 292 820 start;
#X msg 371 818 stop;
#X obj 302 892 writesf~;
#X obj 27 649 + -5;
#X obj 27 673 * -1;
#X obj 11 711 hsl 128 15 0 5 0 0 empty empty empty -2 -8 0 10 #fcfcfc
#000000 #000000 0 1;
#X obj 127 870 *~;
#X connect 1 0 46 0;
#X connect 2 0 54 0;
#X connect 3 0 4 0;
#X connect 4 0 1 1;
#X connect 5 0 35 0;
#X connect 6 0 7 0;
#X connect 7 0 5 1;
#X connect 8 0 9 0;
#X connect 9 0 1 2;
#X connect 9 0 51 0;
#X connect 10 0 11 0;
#X connect 11 0 16 0;
#X connect 12 0 27 0;
#X connect 12 0 32 0;
#X connect 13 0 17 0;
#X connect 14 0 18 0;
#X connect 15 0 30 0;
#X connect 16 0 3 0;
#X connect 17 0 6 0;
#X connect 18 0 8 0;
#X connect 19 0 18 1;
#X connect 20 0 16 1;
#X connect 21 0 20 0;
#X connect 22 0 17 1;
#X connect 23 0 22 0;
#X connect 24 0 1 0;
#X connect 24 0 5 0;
#X connect 25 0 45 0;
#X connect 26 0 29 0;
#X connect 26 0 34 0;
#X connect 26 0 21 0;
#X connect 26 0 23 0;
#X connect 26 0 33 0;
#X connect 26 0 31 0;
#X connect 26 0 42 0;
#X connect 26 0 41 0;
#X connect 27 0 26 0;
#X connect 27 0 45 0;
#X connect 28 0 26 1;
#X connect 28 0 29 1;
#X connect 29 0 25 0;
#X connect 30 0 14 0;
#X connect 31 0 19 0;
#X connect 32 0 18 0;
#X connect 33 0 15 0;
#X connect 34 0 10 0;
#X connect 34 0 36 0;
#X connect 35 0 2 0;
#X connect 36 0 13 0;
#X connect 37 0 5 2;
#X connect 38 0 39 0;
#X connect 39 0 43 0;
#X connect 40 0 39 1;
#X connect 41 0 40 0;
#X connect 42 0 44 0;
#X connect 43 0 37 0;
#X connect 44 0 38 0;
#X connect 45 0 28 0;
#X connect 46 0 2 0;
#X connect 47 0 50 0;
#X connect 48 0 50 0;
#X connect 49 0 50 0;
#X connect 51 0 52 0;
#X connect 52 0 53 0;
#X connect 53 0 54 1;
#X connect 54 0 0 0;
#X connect 54 0 0 1;
