#N canvas 1308 193 642 888 12;
#X obj 47 427 noise~;
#X obj 148 742 *~;
#X obj 147 766 dac~;
#X obj 264 143 bng 15 250 50 0 empty empty empty 17 7 0 10 #fcfcfc
#000000 #000000;
#X obj 147 475 bp~;
#X msg 165 446 5;
#X obj 148 559 lop~;
#X floatatom 183 516 5 0 0 0 - - - 0;
#X obj 148 607 hip~;
#X floatatom 193 576 5 0 0 0 - - - 0;
#X obj 254 544 loadbang;
#X msg 254 574 376;
#X obj 254 489 loadbang;
#X obj 402 521 line~;
#X msg 441 382 0;
#X msg 387 381 0.5;
#X obj 156 225 + 11000;
#X obj 156 201 random 400;
#X obj 420 252 delay 30;
#X msg 254 513 1557;
#X obj 220 60 loadbang;
#X connect 0 0 4 0;
#X connect 1 0 2 0;
#X connect 1 0 2 1;
#X connect 3 0 5 0;
#X connect 3 0 15 0;
#X connect 3 0 17 0;
#X connect 3 0 18 0;
#X connect 4 0 6 0;
#X connect 5 0 4 2;
#X connect 6 0 8 0;
#X connect 7 0 6 1;
#X connect 8 0 1 0;
#X connect 9 0 8 1;
#X connect 10 0 11 0;
#X connect 11 0 9 0;
#X connect 12 0 19 0;
#X connect 13 0 1 1;
#X connect 14 0 13 0;
#X connect 15 0 13 0;
#X connect 16 0 4 1;
#X connect 17 0 16 0;
#X connect 18 0 14 0;
#X connect 19 0 7 0;
#X connect 20 0 3 0;
