#N canvas 1694 358 575 481 12;
#X obj 62 79 inlet trig;
#X obj 62 113 sel 0;
#X msg 62 157 stop;
#X obj 181 89 inlet;
#X obj 260 89 inlet;
#X obj 340 89 inlet;
#X obj 156 132 t b;
#X obj 276 165 del \$2;
#X obj 276 209 f \$4;
#X obj 276 233 * 0.01;
#X obj 357 149 inlet;
#X obj 276 277 * \$1;
#X obj 156 251 f \$1;
#X obj 276 301 pack 0 \$3;
#X obj 200 301 pack 0 \$2;
#X obj 358 300 pack 0 \$5;
#X obj 306 371 line~;
#X obj 306 395 outlet~;
#X obj 458 254 inlet;
#X connect 0 0 1 0;
#X connect 1 0 2 0;
#X connect 1 0 15 0;
#X connect 1 1 6 0;
#X connect 2 0 7 0;
#X connect 3 0 12 1;
#X connect 3 0 11 1;
#X connect 4 0 14 1;
#X connect 4 0 7 1;
#X connect 5 0 13 1;
#X connect 6 0 12 0;
#X connect 6 0 7 0;
#X connect 7 0 8 0;
#X connect 8 0 9 0;
#X connect 9 0 11 0;
#X connect 10 0 8 0;
#X connect 11 0 13 0;
#X connect 12 0 14 0;
#X connect 13 0 16 0;
#X connect 14 0 16 0;
#X connect 15 0 16 0;
#X connect 16 0 17 0;
#X connect 18 0 15 1;
