#N canvas 961 121 1062 1053 12;
#X obj 248 896 dac~;
#X obj 248 708 noise~;
#X obj 248 732 bp~ 100 20;
#X obj 248 756 *~ 10;
#X obj 248 780 clip~ -0.5 1;
#X floatatom 30 93 5 0 0 0 - - - 0;
#X obj 249 832 *~;
#X obj 30 448 delay 250;
#X obj 30 407 metro 800;
#X obj 581 545 bng 15 250 50 0 empty empty empty 17 7 0 10 #fcfcfc
#000000 #000000;
#X obj 581 814 line~;
#X msg 640 670 0 20;
#X msg 581 670 0.2 20;
#X obj 30 198 tgl 15 0 empty empty empty 17 7 0 10 #fcfcfc #000000
#000000 0 1;
#X obj 368 198 tgl 15 0 empty empty empty 17 7 0 10 #fcfcfc #000000
#000000 0 1;
#X obj 726 198 tgl 15 0 empty empty empty 17 7 0 10 #fcfcfc #000000
#000000 0 1;
#X obj 368 398 delay 170;
#X obj 726 318 delay 150;
#X obj 640 646 delay 90;
#X obj 417 152 sel 3;
#X obj 726 152 sel 2;
#X obj 775 152 sel 1;
#X floatatom 368 91 5 0 0 0 - - - 0;
#X floatatom 726 91 5 0 0 0 - - - 0;
#X obj 726 277 metro 400;
#X obj 368 357 metro 550;
#X obj 30 152 sel 6;
#X obj 79 152 sel 5;
#X obj 368 152 sel 4;
#X obj 30 69 r EllenHeartBeatSlow @hv_param 0 6 0;
#X obj 368 67 r EllenHeartBeatMedium @hv_param 0 4 0;
#X obj 726 67 r EllenHeartBeatFast @hv_param 0 2 0;
#X connect 1 0 2 0;
#X connect 2 0 3 0;
#X connect 3 0 4 0;
#X connect 4 0 6 0;
#X connect 5 0 26 0;
#X connect 5 0 27 0;
#X connect 6 0 0 0;
#X connect 6 0 0 1;
#X connect 7 0 9 0;
#X connect 8 0 7 0;
#X connect 8 0 9 0;
#X connect 9 0 12 0;
#X connect 9 0 18 0;
#X connect 10 0 6 1;
#X connect 11 0 10 0;
#X connect 12 0 10 0;
#X connect 13 0 8 0;
#X connect 14 0 25 0;
#X connect 15 0 24 0;
#X connect 16 0 9 0;
#X connect 17 0 9 0;
#X connect 18 0 11 0;
#X connect 19 0 14 0;
#X connect 20 0 15 0;
#X connect 21 0 15 0;
#X connect 22 0 19 0;
#X connect 22 0 28 0;
#X connect 23 0 20 0;
#X connect 23 0 21 0;
#X connect 24 0 9 0;
#X connect 24 0 17 0;
#X connect 25 0 9 0;
#X connect 25 0 16 0;
#X connect 26 0 13 0;
#X connect 27 0 13 0;
#X connect 28 0 14 0;
#X connect 29 0 5 0;
#X connect 30 0 22 0;
#X connect 31 0 23 0;
