#N canvas 398 25 292 835 12;
#X obj 41 738 dac~;
#X obj 32 258 bng 15 250 50 0 empty empty empty 17 7 0 10 #fcfcfc #000000
#000000;
#X floatatom 62 557 5 0 0 0 - - - 0;
#X obj 62 586 osc~;
#X floatatom 23 603 5 0 0 0 - - - 0;
#X obj 43 655 *~;
#X obj 62 616 *~;
#X floatatom 105 586 5 0 0 0 - - - 0;
#X obj 43 698 osc~;
#X obj 104 446 vsl 15 128 0 2000 0 0 empty empty empty 0 -9 0 10 #fcfcfc
#000000 #000000 0 1;
#X obj 105 412 line;
#X msg 144 344 2000;
#X obj 189 307 t b b;
#X msg 231 359 2000;
#X msg 59 374 150;
#X msg 193 345 250;
#X msg 62 527 750;
#X msg 23 573 9;
#X obj 188 283 delay 1000;
#X connect 1 0 14 0;
#X connect 1 0 11 0;
#X connect 1 0 16 0;
#X connect 1 0 17 0;
#X connect 1 0 18 0;
#X connect 2 0 3 0;
#X connect 3 0 6 0;
#X connect 4 0 5 0;
#X connect 5 0 8 0;
#X connect 6 0 5 1;
#X connect 7 0 6 1;
#X connect 8 0 0 0;
#X connect 9 0 7 0;
#X connect 10 0 9 0;
#X connect 11 0 10 1;
#X connect 12 0 15 0;
#X connect 12 1 13 0;
#X connect 13 0 10 1;
#X connect 14 0 10 0;
#X connect 15 0 10 0;
#X connect 16 0 2 0;
#X connect 17 0 4 0;
#X connect 18 0 12 0;
