#N canvas 1290 252 726 680 12;
#X obj 149 188 adc~;
#X obj 149 252 samphold~;
#X obj 236 252 samphold~;
#X obj 192 313 dac~;
#X obj 210 83 r SampleRateDivisionL @hv_param 4 24000 24000;
#X obj 296 153 r SampleRateDivisionR @hv_param 4 24000 24000;
#X obj 210 107 phasor~;
#X obj 296 177 phasor~;
#X connect 0 0 1 0;
#X connect 0 1 2 0;
#X connect 1 0 3 0;
#X connect 2 0 3 1;
#X connect 4 0 6 0;
#X connect 5 0 7 0;
#X connect 6 0 1 1;
#X connect 7 0 2 1;
