#N canvas 963 220 2000 1123 12;
#X obj 595 -7 loadbang;
#X obj 110 291 line;
#X obj 110 318 vsl 15 128 0 127 0 0 empty empty empty 0 -9 0 10 #fcfcfc
#000000 #000000 0 1;
#X floatatom 110 455 5 0 0 0 - - - 0;
#X obj 110 237 bng 15 250 50 0 empty empty empty 17 7 0 10 #fcfcfc
#000000 #000000;
#X obj 110 570 *~;
#X obj 270 223 bng 15 250 50 0 empty empty empty 17 7 0 10 #fcfcfc
#000000 #000000;
#X obj 270 552 line~;
#X msg 341 248 0 20;
#X obj 109 528 hip~;
#X floatatom 149 504 5 0 0 0 - - - 0;
#X obj 110 134 bng 15 250 50 0 empty empty empty 17 7 0 10 #fcfcfc
#000000 #000000;
#X obj 311 1079 dac~;
#X obj 181 231 delay 15;
#X obj 310 1005 *~;
#X floatatom 346 988 4 0 1 0 - - - 0;
#X obj 346 938 loadbang;
#X msg 346 962 1;
#X obj 432 462 osc~;
#X obj 432 274 line;
#X obj 432 301 vsl 15 128 0 127 0 0 empty empty empty 0 -9 0 10 #fcfcfc
#000000 #000000 0 1;
#X floatatom 432 438 5 0 0 0 - - - 0;
#X obj 432 220 bng 15 250 50 0 empty empty empty 17 7 0 10 #fcfcfc
#000000 #000000;
#X obj 432 553 *~;
#X obj 592 206 bng 15 250 50 0 empty empty empty 17 7 0 10 #fcfcfc
#000000 #000000;
#X obj 592 535 line~;
#X msg 655 231 0 20;
#X obj 431 511 hip~;
#X floatatom 471 487 5 0 0 0 - - - 0;
#X obj 503 214 delay 15;
#X obj 765 455 osc~;
#X obj 765 267 line;
#X obj 765 294 vsl 15 128 0 127 0 0 empty empty empty 0 -9 0 10 #fcfcfc
#000000 #000000 0 1;
#X floatatom 765 431 5 0 0 0 - - - 0;
#X obj 765 213 bng 15 250 50 0 empty empty empty 17 7 0 10 #fcfcfc
#000000 #000000;
#X obj 765 546 *~;
#X obj 925 199 bng 15 250 50 0 empty empty empty 17 7 0 10 #fcfcfc
#000000 #000000;
#X obj 925 528 line~;
#X msg 988 224 0 20;
#X obj 764 504 hip~;
#X floatatom 804 480 5 0 0 0 - - - 0;
#X obj 836 207 delay 15;
#X msg 765 233 880 15;
#X obj 407 1002 *~;
#X obj 595 72 t b b;
#X obj 595 41 bng 15 250 50 0 empty empty empty 17 7 0 10 #fcfcfc #000000
#000000;
#X obj 1096 455 noise~;
#X obj 1153 473 bp~;
#X obj 1310 164 bng 15 250 50 0 empty empty empty 17 7 0 10 #fcfcfc
#000000 #000000;
#X obj 1310 736 line~;
#X obj 1162 254 line;
#X obj 1162 281 vsl 15 128 0 127 0 0 empty empty empty 0 -9 0 10 #fcfcfc
#000000 #000000 0 1;
#X floatatom 1162 418 5 0 0 0 - - - 0;
#X obj 1162 200 bng 15 250 50 0 empty empty empty 17 7 0 10 #fcfcfc
#000000 #000000;
#X obj 1238 198 delay 170;
#X obj 1386 225 delay 180;
#X floatatom 1170 590 5 0 0 0 - - - 0;
#X obj 1127 629 lop~;
#X msg 1216 447 1;
#X obj 1222 530 loadbang;
#X obj 1115 157 delay 10;
#X msg 1162 224 3500 250;
#X msg 1238 224 400 80;
#X msg 1110 220 400 5;
#X obj 409 1044 *~;
#X floatatom 538 1051 4 0 1 0 - - - 0;
#X obj 538 1001 loadbang;
#X obj 988 200 delay 480;
#X msg 836 233 40 520;
#X msg 110 257 6880 15;
#X msg 1222 554 1588;
#X obj 110 479 phasor~;
#X msg 1310 249 0.04 20;
#X msg 270 248 0.004 20;
#X msg 925 224 0.01 20;
#X msg 432 240 8880 15;
#X msg 503 242 400 720;
#X obj 655 207 delay 780;
#X msg 181 257 1400 620;
#X obj 341 224 delay 630;
#X msg 1386 249 0 500;
#X msg 592 231 0.008 20;
#X msg 538 1025 1;
#X connect 0 0 45 0;
#X connect 1 0 2 0;
#X connect 2 0 3 0;
#X connect 3 0 71 0;
#X connect 4 0 69 0;
#X connect 4 0 6 0;
#X connect 4 0 13 0;
#X connect 5 0 14 0;
#X connect 6 0 73 0;
#X connect 6 0 79 0;
#X connect 7 0 5 1;
#X connect 8 0 7 0;
#X connect 9 0 5 0;
#X connect 10 0 9 1;
#X connect 11 0 4 0;
#X connect 11 0 22 0;
#X connect 11 0 34 0;
#X connect 11 0 60 0;
#X connect 13 0 78 0;
#X connect 14 0 12 0;
#X connect 14 0 12 1;
#X connect 15 0 14 1;
#X connect 16 0 17 0;
#X connect 17 0 15 0;
#X connect 18 0 27 0;
#X connect 19 0 20 0;
#X connect 20 0 21 0;
#X connect 21 0 18 0;
#X connect 22 0 75 0;
#X connect 22 0 24 0;
#X connect 22 0 29 0;
#X connect 23 0 14 0;
#X connect 24 0 81 0;
#X connect 24 0 77 0;
#X connect 25 0 23 1;
#X connect 26 0 25 0;
#X connect 27 0 23 0;
#X connect 28 0 27 1;
#X connect 29 0 76 0;
#X connect 30 0 39 0;
#X connect 31 0 32 0;
#X connect 32 0 33 0;
#X connect 33 0 30 0;
#X connect 34 0 42 0;
#X connect 34 0 36 0;
#X connect 34 0 41 0;
#X connect 35 0 14 0;
#X connect 36 0 74 0;
#X connect 36 0 67 0;
#X connect 37 0 35 1;
#X connect 38 0 37 0;
#X connect 39 0 35 0;
#X connect 40 0 39 1;
#X connect 41 0 68 0;
#X connect 42 0 31 0;
#X connect 43 0 64 0;
#X connect 44 0 11 0;
#X connect 44 1 63 0;
#X connect 45 0 44 0;
#X connect 46 0 47 0;
#X connect 47 0 57 0;
#X connect 48 0 55 0;
#X connect 48 0 72 0;
#X connect 49 0 43 1;
#X connect 50 0 51 0;
#X connect 51 0 52 0;
#X connect 52 0 47 1;
#X connect 53 0 61 0;
#X connect 53 0 48 0;
#X connect 53 0 54 0;
#X connect 53 0 58 0;
#X connect 54 0 62 0;
#X connect 55 0 80 0;
#X connect 56 0 57 1;
#X connect 57 0 43 0;
#X connect 58 0 47 2;
#X connect 59 0 70 0;
#X connect 60 0 53 0;
#X connect 61 0 50 0;
#X connect 62 0 50 0;
#X connect 63 0 50 0;
#X connect 64 0 12 0;
#X connect 64 0 12 1;
#X connect 65 0 64 1;
#X connect 66 0 82 0;
#X connect 67 0 38 0;
#X connect 68 0 31 0;
#X connect 69 0 1 0;
#X connect 70 0 56 0;
#X connect 71 0 9 0;
#X connect 72 0 49 0;
#X connect 73 0 7 0;
#X connect 74 0 37 0;
#X connect 75 0 19 0;
#X connect 76 0 19 0;
#X connect 77 0 26 0;
#X connect 78 0 1 0;
#X connect 79 0 8 0;
#X connect 80 0 49 0;
#X connect 81 0 25 0;
#X connect 82 0 65 0;
