#N canvas 1184 251 1190 831 12;
#X obj 478 500 osc~;
#X obj 478 312 line;
#X obj 478 339 vsl 15 128 0 127 0 0 empty empty empty 0 -9 0 10 #fcfcfc
#000000 #000000 0 1;
#X floatatom 478 476 5 0 0 0 - - - 0;
#X obj 478 258 bng 15 250 50 0 empty empty empty 17 7 0 10 #fcfcfc
#000000 #000000;
#X obj 549 252 delay 170;
#X obj 478 585 *~;
#X msg 478 278 880 150;
#X msg 549 278 0 50;
#X obj 638 244 bng 15 250 50 0 empty empty empty 17 7 0 10 #fcfcfc
#000000 #000000;
#X obj 638 573 line~;
#X msg 701 269 0 20;
#X msg 638 269 0.05 20;
#X obj 152 512 osc~;
#X obj 152 324 line;
#X obj 152 351 vsl 15 128 0 127 0 0 empty empty empty 0 -9 0 10 #fcfcfc
#000000 #000000 0 1;
#X floatatom 152 488 5 0 0 0 - - - 0;
#X obj 152 270 bng 15 250 50 0 empty empty empty 17 7 0 10 #fcfcfc
#000000 #000000;
#X obj 223 264 delay 170;
#X obj 152 603 *~;
#X msg 223 290 0 50;
#X obj 312 256 bng 15 250 50 0 empty empty empty 17 7 0 10 #fcfcfc
#000000 #000000;
#X obj 312 585 line~;
#X obj 375 257 delay 180;
#X msg 375 281 0 20;
#X obj 379 130 bng 15 250 50 0 empty empty empty 17 7 0 10 #fcfcfc
#000000 #000000;
#X msg 152 290 1760 150;
#X obj 807 492 osc~;
#X obj 807 304 line;
#X obj 807 331 vsl 15 128 0 127 0 0 empty empty empty 0 -9 0 10 #fcfcfc
#000000 #000000 0 1;
#X floatatom 807 468 5 0 0 0 - - - 0;
#X obj 807 250 bng 15 250 50 0 empty empty empty 17 7 0 10 #fcfcfc
#000000 #000000;
#X obj 878 244 delay 170;
#X obj 807 577 *~;
#X msg 878 270 0 50;
#X obj 967 236 bng 15 250 50 0 empty empty empty 17 7 0 10 #fcfcfc
#000000 #000000;
#X obj 967 565 line~;
#X obj 1030 237 delay 180;
#X msg 1030 261 0 20;
#X msg 967 261 0.05 20;
#X msg 807 270 440 150;
#X obj 478 742 *~;
#X floatatom 563 724 5 0 1 0 - - - 0;
#X obj 478 786 dac~;
#X obj 701 245 delay 120;
#X msg 312 281 0.03 20;
#X obj 659 684 loadbang;
#X msg 654 720 1;
#X obj 379 58 loadbang;
#X connect 0 0 6 0;
#X connect 1 0 2 0;
#X connect 2 0 3 0;
#X connect 3 0 0 0;
#X connect 4 0 7 0;
#X connect 4 0 5 0;
#X connect 4 0 9 0;
#X connect 5 0 8 0;
#X connect 6 0 41 0;
#X connect 7 0 1 0;
#X connect 8 0 1 0;
#X connect 9 0 12 0;
#X connect 9 0 44 0;
#X connect 10 0 6 1;
#X connect 11 0 10 0;
#X connect 12 0 10 0;
#X connect 13 0 19 0;
#X connect 14 0 15 0;
#X connect 15 0 16 0;
#X connect 16 0 13 0;
#X connect 17 0 26 0;
#X connect 17 0 18 0;
#X connect 17 0 21 0;
#X connect 18 0 20 0;
#X connect 19 0 41 0;
#X connect 20 0 14 0;
#X connect 21 0 23 0;
#X connect 21 0 45 0;
#X connect 22 0 19 1;
#X connect 23 0 24 0;
#X connect 24 0 22 0;
#X connect 25 0 17 0;
#X connect 25 0 4 0;
#X connect 25 0 31 0;
#X connect 26 0 14 0;
#X connect 27 0 33 0;
#X connect 28 0 29 0;
#X connect 29 0 30 0;
#X connect 30 0 27 0;
#X connect 31 0 40 0;
#X connect 31 0 32 0;
#X connect 31 0 35 0;
#X connect 32 0 34 0;
#X connect 33 0 41 0;
#X connect 34 0 28 0;
#X connect 35 0 37 0;
#X connect 35 0 39 0;
#X connect 36 0 33 1;
#X connect 37 0 38 0;
#X connect 38 0 36 0;
#X connect 39 0 36 0;
#X connect 40 0 28 0;
#X connect 41 0 43 0;
#X connect 41 0 43 1;
#X connect 42 0 41 1;
#X connect 44 0 11 0;
#X connect 45 0 22 0;
#X connect 46 0 47 0;
#X connect 47 0 42 0;
#X connect 48 0 25 0;
