#N canvas 401 25 882 794 12;
#X obj 161 480 osc~;
#X obj 170 310 vsl 15 128 0 5000 0 0 empty empty empty 0 -9 0 10 #fcfcfc
#000000 #000000 0 1;
#X obj 167 662 *~ 0.5;
#X obj 167 688 dac~;
#X floatatom 170 446 19 0 0 0 - - - 0;
#X obj 146 100 bng 15 250 50 0 empty empty empty 17 7 0 10 #fcfcfc
#000000 #000000;
#X floatatom 170 283 5 0 0 0 - - - 0;
#X obj 145 229 random 2000;
#X obj 145 256 + 2000;
#X obj 146 194 metro 2000;
#X obj 255 153 random 2000;
#X floatatom 255 177 5 0 0 0 - - - 0;
#X obj 161 545 +~;
#X floatatom 347 176 5 0 0 0 - - - 0;
#X floatatom 434 176 5 0 0 0 - - - 0;
#X obj 434 152 random 200;
#X obj 326 516 *~;
#X obj 347 152 random 10;
#X obj 314 484 osc~;
#X obj 735 110 delay 25;
#X obj 599 639 osc~;
#X floatatom 651 315 5 0 0 0 - - - 0;
#X obj 631 549 osc~;
#X floatatom 599 582 5 0 0 0 - - - 0;
#X obj 643 581 *~;
#X floatatom 694 343 5 0 0 0 - - - 0;
#X obj 599 608 +~;
#X msg 638 155 0;
#X obj 651 291 line;
#X obj 694 320 line;
#X msg 673 154 20;
#X obj 650 344 vsl 15 128 0 2 0 0 empty empty empty 0 -9 0 10 #fcfcfc
#000000 #000000 0 1;
#X obj 695 367 vsl 15 128 0 10 0 0 empty empty empty 0 -9 0 10 #fcfcfc
#000000 #000000 0 1;
#X obj 735 134 t b b b;
#X msg 757 157 10;
#X msg 790 157 3975;
#X msg 725 156 4;
#X msg 584 155 523.25;
#X floatatom 304 418 5 0 0 0 - - - 0;
#X floatatom 351 418 5 0 0 0 - - - 0;
#X obj 221 555 hsl 128 15 0 500 0 0 empty empty empty -2 -8 0 10 #fcfcfc
#000000 #000000 0 1;
#X floatatom 220 574 5 0 0 0 - - - 0;
#X obj 367 558 hsl 128 15 0 120 0 0 empty empty empty -2 -8 0 10 #fcfcfc
#000000 #000000 0 1;
#X floatatom 364 578 5 0 0 0 - - - 0;
#X obj 166 618 hip~, f 5;
#X connect 0 0 12 0;
#X connect 1 0 4 0;
#X connect 2 0 3 0;
#X connect 4 0 0 0;
#X connect 5 0 9 0;
#X connect 6 0 1 0;
#X connect 7 0 8 0;
#X connect 8 0 6 0;
#X connect 9 0 10 0;
#X connect 9 0 15 0;
#X connect 9 0 17 0;
#X connect 10 0 11 0;
#X connect 11 0 9 1;
#X connect 12 0 44 0;
#X connect 15 0 14 0;
#X connect 16 0 12 1;
#X connect 17 0 13 0;
#X connect 18 0 16 0;
#X connect 19 0 33 0;
#X connect 21 0 31 0;
#X connect 22 0 24 0;
#X connect 23 0 26 0;
#X connect 24 0 26 1;
#X connect 25 0 32 0;
#X connect 26 0 20 0;
#X connect 27 0 28 0;
#X connect 27 0 29 0;
#X connect 28 0 21 0;
#X connect 29 0 25 0;
#X connect 30 0 28 1;
#X connect 30 0 29 1;
#X connect 31 0 22 0;
#X connect 32 0 24 1;
#X connect 33 0 36 0;
#X connect 33 1 34 0;
#X connect 33 2 35 0;
#X connect 34 0 29 0;
#X connect 35 0 28 1;
#X connect 35 0 29 1;
#X connect 36 0 28 0;
#X connect 37 0 23 0;
#X connect 38 0 18 0;
#X connect 39 0 16 1;
#X connect 40 0 41 0;
#X connect 41 0 44 1;
#X connect 42 0 43 0;
#X connect 44 0 2 0;
