#N canvas 404 25 1057 835 12;
#X obj 168 556 osc~;
#X obj 250 556 phasor~;
#X obj 195 800 dac~;
#X obj 253 196 delay 50;
#X obj 249 23 bng 15 250 50 0 empty empty empty 17 7 0 10 #fcfcfc #000000
#000000;
#X obj 167 470 line;
#X msg 482 266 0;
#X obj 206 655 *~;
#X msg 169 266 0.5;
#X obj 482 405 line;
#X obj 195 776 clip~ -0.8 0.8;
#X msg 359 266 15;
#X msg 286 266 20;
#X msg 447 266 5;
#X obj 253 220 t b b;
#X obj 324 220 t b b;
#X obj 402 220 t b b;
#X msg 211 266 440;
#X msg 253 244 880;
#X msg 324 244 220;
#X msg 402 244 1660;
#X obj 402 196 delay 75;
#X obj 481 196 delay 100;
#X obj 324 196 delay 25;
#X obj 255 470 * 2;
#X obj 310 470 * 2;
#X obj 372 470 * 2;
#X obj 133 556 osc~;
#X msg 516 266 200;
#X connect 0 0 7 0;
#X connect 1 0 7 0;
#X connect 3 0 14 0;
#X connect 4 0 17 0;
#X connect 4 0 3 0;
#X connect 4 0 8 0;
#X connect 4 0 21 0;
#X connect 4 0 22 0;
#X connect 4 0 23 0;
#X connect 5 0 0 0;
#X connect 6 0 9 0;
#X connect 7 0 10 0;
#X connect 8 0 7 1;
#X connect 9 0 7 1;
#X connect 10 0 2 0;
#X connect 11 0 5 1;
#X connect 12 0 5 1;
#X connect 13 0 5 1;
#X connect 14 0 18 0;
#X connect 14 1 12 0;
#X connect 15 0 19 0;
#X connect 15 1 11 0;
#X connect 16 0 20 0;
#X connect 16 1 13 0;
#X connect 17 0 5 0;
#X connect 17 0 27 0;
#X connect 18 0 5 0;
#X connect 18 0 24 0;
#X connect 19 0 5 0;
#X connect 19 0 25 0;
#X connect 20 0 5 0;
#X connect 20 0 26 0;
#X connect 21 0 16 0;
#X connect 22 0 6 0;
#X connect 22 0 28 0;
#X connect 23 0 15 0;
#X connect 24 0 1 0;
#X connect 25 0 1 0;
#X connect 26 0 1 0;
#X connect 27 0 7 0;
#X connect 28 0 9 1;
