#N canvas 401 25 1504 1114 12;
#X obj 78 885 osc~;
#X obj 25 1071 dac~;
#X msg 67 290 500;
#X obj 113 204 delay 50;
#X msg 206 274 700;
#X obj 201 206 delay 70;
#X obj 109 87 bng 15 250 50 0 empty empty empty 17 7 0 10 #fcfcfc #000000
#000000;
#X obj 78 858 line;
#X obj 272 205 delay 85;
#X msg 277 273 850;
#X obj 340 205 delay 90;
#X msg 345 273 500;
#X obj 405 205 delay 95;
#X msg 410 273 0;
#X msg 491 378 20;
#X obj 25 1022 *~;
#X msg 23 288 0.5;
#X obj 411 414 line;
#X obj 78 911 clip~ -0.8 0.8;
#X obj 123 400 +;
#X msg 118 273 300;
#X floatatom 484 263 5 0 0 0 - - - 0;
#X obj 350 393 +;
#X obj 282 393 +;
#X obj 211 394 +;
#X msg 241 273 15;
#X msg 162 273 20;
#X msg 311 274 5;
#X msg 377 273 5;
#X obj 113 228 t b b;
#X obj 201 229 t b b;
#X obj 272 229 t b b;
#X obj 340 231 t b b;
#X obj 72 396 +;
#X floatatom 558 263 5 0 0 0 - - - 0;
#X obj 484 208 random 50;
#X floatatom 638 262 5 0 0 0 - - - 0;
#X msg 337 60 1;
#X obj 337 84 +;
#X floatatom 402 107 5 0 0 0 - - - 0;
#X obj 389 134 sel 1;
#X obj 434 134 sel 2;
#X obj 477 134 sel 3;
#X obj 67 25 r HealthCollected;
#X msg 452 58 0;
#X obj 519 134 sel 4;
#X obj 566 133 sel 5;
#X floatatom 804 261 5 0 0 0 - - - 0;
#X floatatom 724 260 5 0 0 0 - - - 0;
#X obj 558 208 random 50;
#X obj 638 208 random 50;
#X obj 724 207 random 50;
#X obj 804 207 random 50;
#X obj 484 236 + 0;
#X obj 638 234 + 80;
#X obj 724 232 + 120;
#X obj 804 233 + 160;
#X obj 558 234 + 40;
#X connect 0 0 18 0;
#X connect 2 0 33 0;
#X connect 3 0 29 0;
#X connect 4 0 24 0;
#X connect 5 0 30 0;
#X connect 6 0 2 0;
#X connect 6 0 3 0;
#X connect 6 0 5 0;
#X connect 6 0 16 0;
#X connect 6 0 8 0;
#X connect 6 0 10 0;
#X connect 6 0 12 0;
#X connect 6 0 37 0;
#X connect 6 0 14 0;
#X connect 7 0 0 0;
#X connect 8 0 31 0;
#X connect 9 0 23 0;
#X connect 10 0 32 0;
#X connect 11 0 22 0;
#X connect 12 0 13 0;
#X connect 13 0 17 0;
#X connect 14 0 17 1;
#X connect 15 0 1 0;
#X connect 16 0 15 1;
#X connect 17 0 15 1;
#X connect 18 0 15 0;
#X connect 19 0 7 0;
#X connect 20 0 19 0;
#X connect 21 0 19 1;
#X connect 21 0 24 1;
#X connect 21 0 23 1;
#X connect 21 0 22 1;
#X connect 21 0 33 1;
#X connect 22 0 7 0;
#X connect 23 0 7 0;
#X connect 24 0 7 0;
#X connect 25 0 7 1;
#X connect 26 0 7 1;
#X connect 27 0 7 1;
#X connect 28 0 7 1;
#X connect 29 0 20 0;
#X connect 29 1 26 0;
#X connect 30 0 4 0;
#X connect 30 1 25 0;
#X connect 31 0 9 0;
#X connect 31 1 27 0;
#X connect 32 0 11 0;
#X connect 32 1 28 0;
#X connect 33 0 7 0;
#X connect 34 0 33 1;
#X connect 34 0 19 1;
#X connect 34 0 24 1;
#X connect 34 0 23 1;
#X connect 34 0 22 1;
#X connect 35 0 53 0;
#X connect 36 0 33 1;
#X connect 36 0 19 1;
#X connect 36 0 24 1;
#X connect 36 0 23 1;
#X connect 36 0 22 1;
#X connect 37 0 38 0;
#X connect 38 0 39 0;
#X connect 39 0 40 0;
#X connect 39 0 38 1;
#X connect 39 0 41 0;
#X connect 39 0 42 0;
#X connect 39 0 46 0;
#X connect 39 0 45 0;
#X connect 40 0 35 0;
#X connect 41 0 49 0;
#X connect 42 0 50 0;
#X connect 43 0 6 0;
#X connect 44 0 39 0;
#X connect 45 0 51 0;
#X connect 46 0 44 0;
#X connect 46 0 52 0;
#X connect 47 0 33 1;
#X connect 47 0 19 1;
#X connect 47 0 23 1;
#X connect 47 0 22 1;
#X connect 48 0 33 1;
#X connect 48 0 19 1;
#X connect 48 0 24 1;
#X connect 48 0 23 1;
#X connect 48 0 22 1;
#X connect 49 0 57 0;
#X connect 50 0 54 0;
#X connect 51 0 55 0;
#X connect 52 0 56 0;
#X connect 53 0 21 0;
#X connect 54 0 36 0;
#X connect 55 0 48 0;
#X connect 56 0 47 0;
#X connect 57 0 34 0;
