#N canvas 15 25 2238 1117 12;
#X obj 89 519 osc~;
#X msg 15 255 500;
#X obj 52 170 delay 50;
#X obj 781 40 bng 15 250 50 0 empty empty empty 17 7 0 10 #fcfcfc #000000
#000000;
#X obj 89 492 line;
#X obj 89 545 clip~ -0.8 0.8;
#X msg 90 256 20;
#X obj 52 194 t b b;
#X obj 781 11 r HealthCollected;
#X msg 53 256 700;
#X obj 543 1089 dac~;
#X obj 469 565 *~;
#X obj 792 257 delay 50;
#X obj 1513 34 delay 100;
#X obj 1592 33 delay 150;
#X obj 1665 30 delay 200;
#X msg 200 256 700;
#X msg 282 255 850;
#X msg 350 255 500;
#X msg 421 255 0;
#X msg 461 348 20;
#X obj 427 381 line;
#X obj 112 350 +;
#X msg 124 256 300;
#X floatatom 544 306 5 0 0 0 - - - 0;
#X obj 361 356 +;
#X obj 293 359 +;
#X obj 197 353 +;
#X msg 234 255 15;
#X msg 164 257 20;
#X msg 316 256 5;
#X msg 382 255 5;
#X obj 123 195 t b b;
#X obj 199 195 t b b;
#X obj 282 196 t b b;
#X obj 350 198 t b b;
#X floatatom 622 425 5 0 0 0 - - - 0;
#X obj 544 251 random 50;
#X floatatom 1211 404 5 0 0 0 - - - 0;
#X msg 768 79 1;
#X obj 768 103 +;
#X floatatom 833 126 5 0 0 0 - - - 0;
#X obj 542 95 sel 1;
#X obj 622 219 sel 2;
#X obj 1211 320 sel 3;
#X msg 883 77 0;
#X obj 1723 117 sel 4;
#X obj 1804 115 sel 5;
#X floatatom 1803 213 5 0 0 0 - - - 0;
#X floatatom 1723 212 5 0 0 0 - - - 0;
#X obj 622 370 random 50;
#X obj 1211 350 random 50;
#X obj 1723 159 random 50;
#X obj 1803 159 random 50;
#X obj 544 279 + 0;
#X obj 1211 376 + 80;
#X obj 1723 184 + 120;
#X obj 1803 185 + 160;
#X obj 622 396 + 40;
#X obj 123 171 delay 70;
#X obj 199 172 delay 90;
#X obj 282 172 delay 105;
#X obj 350 172 delay 110;
#X obj 421 172 delay 115;
#X obj 542 1063 *~;
#X msg 504 171 0.5;
#X obj 744 668 osc~;
#X msg 670 404 500;
#X obj 707 319 delay 50;
#X obj 744 641 line;
#X obj 744 694 clip~ -0.8 0.8;
#X msg 745 405 20;
#X obj 707 343 t b b;
#X msg 708 405 700;
#X obj 1124 714 *~;
#X msg 855 405 700;
#X msg 937 404 850;
#X msg 1005 404 500;
#X msg 1076 404 0;
#X msg 1116 497 20;
#X obj 1082 530 line;
#X obj 767 499 +;
#X msg 779 405 300;
#X obj 1016 505 +;
#X obj 948 508 +;
#X obj 852 502 +;
#X msg 889 404 15;
#X msg 819 406 20;
#X msg 971 405 5;
#X msg 1037 404 5;
#X obj 778 344 t b b;
#X obj 854 344 t b b;
#X obj 937 345 t b b;
#X obj 1005 347 t b b;
#X obj 778 320 delay 70;
#X obj 854 321 delay 90;
#X obj 937 321 delay 105;
#X obj 1005 321 delay 110;
#X obj 1076 321 delay 115;
#X msg 1159 320 0.5;
#X obj 792 281 bng 15 250 50 0 empty empty empty 17 7 0 10 #fcfcfc
#000000 #000000;
#X obj 364 11 r HealthReleased;
#X connect 0 0 5 0;
#X connect 1 0 4 0;
#X connect 2 0 7 0;
#X connect 3 0 39 0;
#X connect 4 0 0 0;
#X connect 5 0 11 0;
#X connect 6 0 4 1;
#X connect 7 0 9 0;
#X connect 7 1 6 0;
#X connect 8 0 3 0;
#X connect 9 0 4 0;
#X connect 11 0 64 0;
#X connect 12 0 100 0;
#X connect 16 0 27 0;
#X connect 17 0 26 0;
#X connect 18 0 25 0;
#X connect 19 0 21 0;
#X connect 20 0 21 1;
#X connect 21 0 11 1;
#X connect 22 0 4 0;
#X connect 23 0 22 0;
#X connect 24 0 22 1;
#X connect 24 0 27 1;
#X connect 24 0 26 1;
#X connect 24 0 25 1;
#X connect 25 0 4 0;
#X connect 26 0 4 0;
#X connect 27 0 4 0;
#X connect 28 0 4 1;
#X connect 29 0 4 1;
#X connect 30 0 4 1;
#X connect 31 0 4 1;
#X connect 32 0 23 0;
#X connect 32 1 29 0;
#X connect 33 0 16 0;
#X connect 33 1 28 0;
#X connect 34 0 17 0;
#X connect 34 1 30 0;
#X connect 35 0 18 0;
#X connect 35 1 31 0;
#X connect 36 0 81 1;
#X connect 36 0 85 1;
#X connect 36 0 84 1;
#X connect 36 0 83 1;
#X connect 37 0 54 0;
#X connect 39 0 40 0;
#X connect 40 0 41 0;
#X connect 41 0 42 0;
#X connect 41 0 40 1;
#X connect 41 0 43 0;
#X connect 41 0 44 0;
#X connect 41 0 47 0;
#X connect 41 0 46 0;
#X connect 42 0 37 0;
#X connect 42 0 1 0;
#X connect 42 0 2 0;
#X connect 42 0 59 0;
#X connect 42 0 60 0;
#X connect 42 0 61 0;
#X connect 42 0 62 0;
#X connect 42 0 63 0;
#X connect 42 0 65 0;
#X connect 43 0 50 0;
#X connect 43 0 12 0;
#X connect 44 0 51 0;
#X connect 45 0 41 0;
#X connect 46 0 52 0;
#X connect 47 0 45 0;
#X connect 47 0 53 0;
#X connect 50 0 58 0;
#X connect 51 0 55 0;
#X connect 52 0 56 0;
#X connect 53 0 57 0;
#X connect 54 0 24 0;
#X connect 55 0 38 0;
#X connect 56 0 49 0;
#X connect 57 0 48 0;
#X connect 58 0 36 0;
#X connect 59 0 32 0;
#X connect 60 0 33 0;
#X connect 61 0 34 0;
#X connect 62 0 35 0;
#X connect 63 0 19 0;
#X connect 63 0 20 0;
#X connect 64 0 10 0;
#X connect 65 0 11 1;
#X connect 65 0 64 1;
#X connect 66 0 70 0;
#X connect 67 0 69 0;
#X connect 68 0 72 0;
#X connect 69 0 66 0;
#X connect 70 0 74 0;
#X connect 71 0 69 1;
#X connect 72 0 73 0;
#X connect 72 1 71 0;
#X connect 73 0 69 0;
#X connect 74 0 64 0;
#X connect 75 0 85 0;
#X connect 76 0 84 0;
#X connect 77 0 83 0;
#X connect 78 0 80 0;
#X connect 79 0 80 1;
#X connect 80 0 74 1;
#X connect 81 0 69 0;
#X connect 82 0 81 0;
#X connect 83 0 69 0;
#X connect 84 0 69 0;
#X connect 85 0 69 0;
#X connect 86 0 69 1;
#X connect 87 0 69 1;
#X connect 88 0 69 1;
#X connect 89 0 69 1;
#X connect 90 0 82 0;
#X connect 90 1 87 0;
#X connect 91 0 75 0;
#X connect 91 1 86 0;
#X connect 92 0 76 0;
#X connect 92 1 88 0;
#X connect 93 0 77 0;
#X connect 93 1 89 0;
#X connect 94 0 90 0;
#X connect 95 0 91 0;
#X connect 96 0 92 0;
#X connect 97 0 93 0;
#X connect 98 0 78 0;
#X connect 98 0 79 0;
#X connect 99 0 74 1;
#X connect 100 0 67 0;
#X connect 100 0 68 0;
#X connect 100 0 94 0;
#X connect 100 0 95 0;
#X connect 100 0 96 0;
#X connect 100 0 97 0;
#X connect 100 0 98 0;
#X connect 100 0 99 0;
