#N canvas 402 25 1838 1117 12;
#X obj 36 298 osc~;
#X msg 7 156 500;
#X obj 39 99 delay 50;
#X obj 36 220 line;
#X obj 36 323 clip~ -0.8 0.8;
#X msg 77 154 20;
#X obj 39 123 t b b;
#X msg 40 154 700;
#X obj 589 71 delay 100;
#X obj 933 70 delay 150;
#X obj 1201 73 delay 200;
#X obj 11 7 r HealthReleased;
#X obj 11 31 bng 15 250 50 0 empty empty empty 17 7 0 10 #fcfcfc #000000
#000000;
#X obj 108 1074 dac~;
#X obj 177 246 line;
#X msg 180 154 0;
#X msg 112 154 0.5;
#X obj 180 129 delay 40;
#X obj 34 488 *~ 0.5;
#X obj 102 358 *~;
#X obj 322 75 delay 50;
#X obj 309 626 osc~;
#X msg 117 557 500;
#X obj 149 500 delay 50;
#X obj 309 599 line;
#X obj 309 651 clip~ -0.8 0.8;
#X msg 187 555 20;
#X obj 149 524 t b b;
#X msg 150 555 700;
#X msg 219 500 0.5;
#X obj 309 676 *~;
#X msg 330 554 700;
#X msg 412 553 850;
#X msg 489 551 500;
#X msg 565 552 0;
#X obj 563 624 line;
#X msg 254 554 300;
#X msg 364 553 15;
#X msg 294 555 20;
#X msg 446 554 5;
#X msg 521 551 5;
#X obj 253 524 t b b;
#X obj 329 524 t b b;
#X obj 412 525 t b b;
#X obj 489 525 t b b;
#X obj 253 500 delay 70;
#X obj 329 501 delay 90;
#X obj 412 501 delay 105;
#X obj 489 499 delay 110;
#X obj 572 499 delay 115;
#X obj 163 348 r HealthPickUp;
#X obj 163 370 bng 15 250 50 0 empty empty empty 17 7 0 10 #fcfcfc
#000000 #000000;
#X obj 667 460 delay 50;
#X obj 1198 455 delay 100;
#X obj 370 774 delay 150;
#X obj 1007 763 delay 200;
#X msg 643 551 500;
#X obj 675 494 delay 50;
#X msg 713 549 20;
#X obj 675 518 t b b;
#X msg 676 549 700;
#X msg 745 494 0.5;
#X msg 856 548 700;
#X msg 938 547 850;
#X msg 1015 545 500;
#X msg 1091 546 0;
#X obj 1089 618 line;
#X msg 780 548 300;
#X msg 890 547 15;
#X msg 820 549 20;
#X msg 972 548 5;
#X msg 1047 545 5;
#X obj 779 518 t b b;
#X obj 855 518 t b b;
#X obj 938 519 t b b;
#X obj 1015 519 t b b;
#X obj 779 494 delay 70;
#X obj 855 495 delay 90;
#X obj 938 495 delay 105;
#X obj 1015 493 delay 110;
#X obj 1098 493 delay 115;
#X obj 869 625 osc~;
#X obj 869 598 line;
#X obj 869 650 clip~ -0.8 0.8;
#X obj 869 675 *~;
#X msg 1183 545 500;
#X obj 1215 488 delay 50;
#X msg 1253 543 20;
#X obj 1215 512 t b b;
#X msg 1216 543 700;
#X msg 1285 488 0.5;
#X msg 1396 542 700;
#X msg 1478 541 850;
#X msg 1555 539 500;
#X msg 1631 540 0;
#X obj 1629 612 line;
#X msg 1320 542 300;
#X msg 1430 541 15;
#X msg 1360 543 20;
#X msg 1512 542 5;
#X msg 1587 539 5;
#X obj 1319 512 t b b;
#X obj 1395 512 t b b;
#X obj 1478 513 t b b;
#X obj 1555 513 t b b;
#X obj 1319 488 delay 70;
#X obj 1395 489 delay 90;
#X obj 1478 489 delay 105;
#X obj 1555 487 delay 110;
#X obj 1638 487 delay 115;
#X obj 1409 619 osc~;
#X obj 1409 592 line;
#X obj 1409 644 clip~ -0.8 0.8;
#X obj 1409 669 *~;
#X msg 346 865 500;
#X obj 378 808 delay 50;
#X msg 416 863 20;
#X obj 378 832 t b b;
#X msg 379 863 700;
#X msg 448 808 0.5;
#X msg 559 862 700;
#X msg 641 861 850;
#X msg 718 859 500;
#X msg 794 860 0;
#X obj 792 932 line;
#X msg 483 862 300;
#X msg 593 861 15;
#X msg 523 863 20;
#X msg 675 862 5;
#X msg 750 859 5;
#X obj 482 832 t b b;
#X obj 558 832 t b b;
#X obj 641 833 t b b;
#X obj 718 833 t b b;
#X obj 482 808 delay 70;
#X obj 558 809 delay 90;
#X obj 641 809 delay 105;
#X obj 718 807 delay 110;
#X obj 801 807 delay 115;
#X obj 572 939 osc~;
#X obj 572 912 line;
#X obj 572 964 clip~ -0.8 0.8;
#X obj 570 990 *~;
#X msg 1004 855 500;
#X obj 1036 798 delay 50;
#X msg 1074 853 20;
#X obj 1036 822 t b b;
#X msg 1037 853 700;
#X msg 1106 798 0.5;
#X msg 1217 852 700;
#X msg 1299 851 850;
#X msg 1376 849 500;
#X msg 1452 850 0;
#X obj 1450 922 line;
#X msg 1141 852 300;
#X msg 1251 851 15;
#X msg 1181 853 20;
#X msg 1333 852 5;
#X msg 1408 849 5;
#X obj 1140 822 t b b;
#X obj 1216 822 t b b;
#X obj 1299 823 t b b;
#X obj 1376 823 t b b;
#X obj 1140 798 delay 70;
#X obj 1216 799 delay 90;
#X obj 1299 799 delay 105;
#X obj 1376 797 delay 110;
#X obj 1459 797 delay 115;
#X obj 1230 929 osc~;
#X obj 1230 902 line;
#X obj 1230 954 clip~ -0.8 0.8;
#X obj 1230 979 *~;
#X obj 153 1032 *~ 0.5;
#X msg 147 155 200;
#X obj 30 259 hsl 128 15 200 900 0 0 empty empty empty -2 -8 0 10 #fcfcfc
#000000 #000000 0 1;
#X msg 253 155 500;
#X msg 218 156 500;
#X obj 335 245 osc~;
#X msg 306 156 500;
#X obj 338 99 delay 50;
#X obj 335 220 line;
#X obj 335 270 clip~ -0.8 0.8;
#X msg 376 154 20;
#X obj 338 123 t b b;
#X msg 339 154 700;
#X obj 476 246 line;
#X msg 479 154 0;
#X msg 411 154 0.5;
#X obj 479 129 delay 40;
#X obj 401 358 *~;
#X msg 446 155 200;
#X msg 552 155 500;
#X msg 517 156 500;
#X obj 617 244 osc~;
#X msg 588 155 500;
#X obj 620 98 delay 50;
#X obj 617 219 line;
#X obj 617 269 clip~ -0.8 0.8;
#X msg 658 153 20;
#X obj 620 122 t b b;
#X msg 621 153 700;
#X obj 758 245 line;
#X msg 761 153 0;
#X msg 693 153 0.5;
#X obj 761 128 delay 40;
#X obj 683 357 *~;
#X msg 728 154 200;
#X msg 834 154 500;
#X msg 799 155 500;
#X obj 935 242 osc~;
#X msg 906 154 500;
#X obj 938 97 delay 50;
#X obj 935 218 line;
#X obj 935 267 clip~ -0.8 0.8;
#X msg 976 152 20;
#X obj 938 121 t b b;
#X msg 939 152 700;
#X obj 1076 244 line;
#X msg 1079 152 0;
#X msg 1011 152 0.5;
#X obj 1079 127 delay 40;
#X obj 1001 356 *~;
#X msg 1046 153 200;
#X msg 1152 153 500;
#X msg 1117 154 500;
#X obj 1218 241 osc~;
#X msg 1189 153 500;
#X obj 1221 96 delay 50;
#X obj 1218 217 line;
#X obj 1218 266 clip~ -0.8 0.8;
#X msg 1259 151 20;
#X obj 1221 120 t b b;
#X msg 1222 151 700;
#X obj 1359 243 line;
#X msg 1362 151 0;
#X msg 1294 151 0.5;
#X obj 1362 126 delay 40;
#X obj 1284 355 *~;
#X msg 1329 152 200;
#X msg 1435 152 500;
#X msg 1400 153 500;
#X msg 607 551 500;
#X msg 1133 545 500;
#X msg 1673 539 500;
#X msg 837 859 500;
#X msg 1494 849 500;
#X obj 235 1078 writesf~;
#X msg 311 1041 start;
#X msg 362 1041 stop;
#X msg 313 996 open -bytes 3 HealthPickUp;
#X obj 12 735 writesf~;
#X msg 88 698 start;
#X msg 139 698 stop;
#X msg 90 653 open -bytes 3 HealthReleased;
#X connect 0 0 4 0;
#X connect 1 0 3 0;
#X connect 2 0 6 0;
#X connect 2 0 17 0;
#X connect 3 0 174 0;
#X connect 4 0 19 0;
#X connect 5 0 3 1;
#X connect 6 0 7 0;
#X connect 6 1 5 0;
#X connect 7 0 3 0;
#X connect 8 0 195 0;
#X connect 8 0 194 0;
#X connect 8 0 203 0;
#X connect 9 0 210 0;
#X connect 9 0 211 0;
#X connect 9 0 219 0;
#X connect 10 0 227 0;
#X connect 10 0 226 0;
#X connect 10 0 235 0;
#X connect 11 0 12 0;
#X connect 12 0 2 0;
#X connect 12 0 1 0;
#X connect 12 0 8 0;
#X connect 12 0 9 0;
#X connect 12 0 10 0;
#X connect 12 0 16 0;
#X connect 12 0 20 0;
#X connect 14 0 19 1;
#X connect 15 0 14 0;
#X connect 16 0 14 0;
#X connect 17 0 15 0;
#X connect 17 0 176 0;
#X connect 17 0 173 0;
#X connect 17 0 175 0;
#X connect 18 0 13 0;
#X connect 18 0 250 0;
#X connect 19 0 18 0;
#X connect 20 0 179 0;
#X connect 20 0 178 0;
#X connect 20 0 187 0;
#X connect 21 0 25 0;
#X connect 22 0 24 0;
#X connect 23 0 27 0;
#X connect 24 0 21 0;
#X connect 25 0 30 0;
#X connect 26 0 24 1;
#X connect 27 0 28 0;
#X connect 27 1 26 0;
#X connect 28 0 24 0;
#X connect 29 0 35 0;
#X connect 30 0 172 0;
#X connect 31 0 24 0;
#X connect 32 0 24 0;
#X connect 33 0 24 0;
#X connect 34 0 35 0;
#X connect 35 0 30 1;
#X connect 36 0 24 0;
#X connect 37 0 24 1;
#X connect 38 0 24 1;
#X connect 39 0 24 1;
#X connect 40 0 24 1;
#X connect 41 0 36 0;
#X connect 41 1 38 0;
#X connect 42 0 31 0;
#X connect 42 1 37 0;
#X connect 43 0 32 0;
#X connect 43 1 39 0;
#X connect 44 0 33 0;
#X connect 44 1 40 0;
#X connect 45 0 41 0;
#X connect 46 0 42 0;
#X connect 47 0 43 0;
#X connect 48 0 44 0;
#X connect 49 0 34 0;
#X connect 49 0 241 0;
#X connect 50 0 51 0;
#X connect 51 0 23 0;
#X connect 51 0 22 0;
#X connect 51 0 29 0;
#X connect 51 0 45 0;
#X connect 51 0 46 0;
#X connect 51 0 47 0;
#X connect 51 0 48 0;
#X connect 51 0 49 0;
#X connect 51 0 52 0;
#X connect 51 0 53 0;
#X connect 52 0 57 0;
#X connect 52 0 76 0;
#X connect 52 0 61 0;
#X connect 52 0 77 0;
#X connect 52 0 78 0;
#X connect 52 0 79 0;
#X connect 52 0 80 0;
#X connect 52 0 56 0;
#X connect 53 0 86 0;
#X connect 53 0 90 0;
#X connect 53 0 85 0;
#X connect 53 0 105 0;
#X connect 53 0 106 0;
#X connect 53 0 107 0;
#X connect 53 0 108 0;
#X connect 53 0 109 0;
#X connect 54 0 114 0;
#X connect 54 0 115 0;
#X connect 54 0 119 0;
#X connect 54 0 134 0;
#X connect 54 0 135 0;
#X connect 54 0 136 0;
#X connect 54 0 137 0;
#X connect 54 0 138 0;
#X connect 55 0 143 0;
#X connect 55 0 144 0;
#X connect 55 0 148 0;
#X connect 55 0 163 0;
#X connect 55 0 164 0;
#X connect 55 0 165 0;
#X connect 55 0 166 0;
#X connect 55 0 167 0;
#X connect 56 0 82 0;
#X connect 57 0 59 0;
#X connect 58 0 82 1;
#X connect 59 0 60 0;
#X connect 59 1 58 0;
#X connect 60 0 82 0;
#X connect 61 0 66 0;
#X connect 62 0 82 0;
#X connect 63 0 82 0;
#X connect 64 0 82 0;
#X connect 65 0 66 0;
#X connect 66 0 84 1;
#X connect 67 0 82 0;
#X connect 68 0 82 1;
#X connect 69 0 82 1;
#X connect 70 0 82 1;
#X connect 71 0 82 1;
#X connect 72 0 67 0;
#X connect 72 1 69 0;
#X connect 73 0 62 0;
#X connect 73 1 68 0;
#X connect 74 0 63 0;
#X connect 74 1 70 0;
#X connect 75 0 64 0;
#X connect 75 1 71 0;
#X connect 76 0 72 0;
#X connect 77 0 73 0;
#X connect 78 0 74 0;
#X connect 79 0 75 0;
#X connect 80 0 65 0;
#X connect 80 0 242 0;
#X connect 81 0 83 0;
#X connect 82 0 81 0;
#X connect 83 0 84 0;
#X connect 84 0 172 0;
#X connect 85 0 111 0;
#X connect 86 0 88 0;
#X connect 87 0 111 1;
#X connect 88 0 89 0;
#X connect 88 1 87 0;
#X connect 89 0 111 0;
#X connect 90 0 95 0;
#X connect 91 0 111 0;
#X connect 92 0 111 0;
#X connect 93 0 111 0;
#X connect 94 0 95 0;
#X connect 95 0 113 1;
#X connect 96 0 111 0;
#X connect 97 0 111 1;
#X connect 98 0 111 1;
#X connect 99 0 111 1;
#X connect 100 0 111 1;
#X connect 101 0 96 0;
#X connect 101 1 98 0;
#X connect 102 0 91 0;
#X connect 102 1 97 0;
#X connect 103 0 92 0;
#X connect 103 1 99 0;
#X connect 104 0 93 0;
#X connect 104 1 100 0;
#X connect 105 0 101 0;
#X connect 106 0 102 0;
#X connect 107 0 103 0;
#X connect 108 0 104 0;
#X connect 109 0 94 0;
#X connect 109 0 243 0;
#X connect 110 0 112 0;
#X connect 111 0 110 0;
#X connect 112 0 113 0;
#X connect 113 0 172 0;
#X connect 114 0 140 0;
#X connect 115 0 117 0;
#X connect 116 0 140 1;
#X connect 117 0 118 0;
#X connect 117 1 116 0;
#X connect 118 0 140 0;
#X connect 119 0 124 0;
#X connect 120 0 140 0;
#X connect 121 0 140 0;
#X connect 122 0 140 0;
#X connect 123 0 124 0;
#X connect 124 0 142 1;
#X connect 125 0 140 0;
#X connect 126 0 140 1;
#X connect 127 0 140 1;
#X connect 128 0 140 1;
#X connect 129 0 140 1;
#X connect 130 0 125 0;
#X connect 130 1 127 0;
#X connect 131 0 120 0;
#X connect 131 1 126 0;
#X connect 132 0 121 0;
#X connect 132 1 128 0;
#X connect 133 0 122 0;
#X connect 133 1 129 0;
#X connect 134 0 130 0;
#X connect 135 0 131 0;
#X connect 136 0 132 0;
#X connect 137 0 133 0;
#X connect 138 0 123 0;
#X connect 138 0 244 0;
#X connect 139 0 141 0;
#X connect 140 0 139 0;
#X connect 141 0 142 0;
#X connect 142 0 172 0;
#X connect 143 0 169 0;
#X connect 144 0 146 0;
#X connect 145 0 169 1;
#X connect 146 0 147 0;
#X connect 146 1 145 0;
#X connect 147 0 169 0;
#X connect 148 0 153 0;
#X connect 149 0 169 0;
#X connect 150 0 169 0;
#X connect 151 0 169 0;
#X connect 152 0 153 0;
#X connect 153 0 171 1;
#X connect 154 0 169 0;
#X connect 155 0 169 1;
#X connect 156 0 169 1;
#X connect 157 0 169 1;
#X connect 158 0 169 1;
#X connect 159 0 154 0;
#X connect 159 1 156 0;
#X connect 160 0 149 0;
#X connect 160 1 155 0;
#X connect 161 0 150 0;
#X connect 161 1 157 0;
#X connect 162 0 151 0;
#X connect 162 1 158 0;
#X connect 163 0 159 0;
#X connect 164 0 160 0;
#X connect 165 0 161 0;
#X connect 166 0 162 0;
#X connect 167 0 152 0;
#X connect 167 0 245 0;
#X connect 168 0 170 0;
#X connect 169 0 168 0;
#X connect 170 0 171 0;
#X connect 171 0 172 0;
#X connect 172 0 13 1;
#X connect 172 0 246 0;
#X connect 173 0 3 0;
#X connect 174 0 0 0;
#X connect 175 0 14 1;
#X connect 176 0 3 1;
#X connect 177 0 181 0;
#X connect 178 0 180 0;
#X connect 179 0 183 0;
#X connect 179 0 188 0;
#X connect 180 0 177 0;
#X connect 181 0 189 0;
#X connect 182 0 180 1;
#X connect 183 0 184 0;
#X connect 183 1 182 0;
#X connect 184 0 180 0;
#X connect 185 0 189 1;
#X connect 186 0 185 0;
#X connect 187 0 185 0;
#X connect 188 0 186 0;
#X connect 188 0 192 0;
#X connect 188 0 190 0;
#X connect 188 0 191 0;
#X connect 189 0 18 0;
#X connect 190 0 180 0;
#X connect 191 0 185 1;
#X connect 192 0 180 1;
#X connect 193 0 197 0;
#X connect 194 0 196 0;
#X connect 195 0 199 0;
#X connect 195 0 204 0;
#X connect 196 0 193 0;
#X connect 197 0 205 0;
#X connect 198 0 196 1;
#X connect 199 0 200 0;
#X connect 199 1 198 0;
#X connect 200 0 196 0;
#X connect 201 0 205 1;
#X connect 202 0 201 0;
#X connect 203 0 201 0;
#X connect 204 0 202 0;
#X connect 204 0 208 0;
#X connect 204 0 206 0;
#X connect 204 0 207 0;
#X connect 205 0 18 0;
#X connect 206 0 196 0;
#X connect 207 0 201 1;
#X connect 208 0 196 1;
#X connect 209 0 213 0;
#X connect 210 0 212 0;
#X connect 211 0 215 0;
#X connect 211 0 220 0;
#X connect 212 0 209 0;
#X connect 213 0 221 0;
#X connect 214 0 212 1;
#X connect 215 0 216 0;
#X connect 215 1 214 0;
#X connect 216 0 212 0;
#X connect 217 0 221 1;
#X connect 218 0 217 0;
#X connect 219 0 217 0;
#X connect 220 0 218 0;
#X connect 220 0 224 0;
#X connect 220 0 222 0;
#X connect 220 0 223 0;
#X connect 221 0 18 0;
#X connect 222 0 212 0;
#X connect 223 0 217 1;
#X connect 224 0 212 1;
#X connect 225 0 229 0;
#X connect 226 0 228 0;
#X connect 227 0 231 0;
#X connect 227 0 236 0;
#X connect 228 0 225 0;
#X connect 229 0 237 0;
#X connect 230 0 228 1;
#X connect 231 0 232 0;
#X connect 231 1 230 0;
#X connect 232 0 228 0;
#X connect 233 0 237 1;
#X connect 234 0 233 0;
#X connect 235 0 233 0;
#X connect 236 0 234 0;
#X connect 236 0 240 0;
#X connect 236 0 238 0;
#X connect 236 0 239 0;
#X connect 237 0 18 0;
#X connect 238 0 228 0;
#X connect 239 0 233 1;
#X connect 240 0 228 1;
#X connect 241 0 35 1;
#X connect 242 0 66 1;
#X connect 243 0 95 1;
#X connect 244 0 124 1;
#X connect 245 0 153 1;
#X connect 247 0 246 0;
#X connect 248 0 246 0;
#X connect 249 0 246 0;
#X connect 251 0 250 0;
#X connect 252 0 250 0;
#X connect 253 0 250 0;
