#N canvas 842 25 362 427 12;
#X obj 47 338 osc~;
#X obj 47 384 dac~;
#X obj 47 254 line;
#X floatatom 11 201 5 0 0 0 - - - 0;
#X floatatom 51 201 5 0 0 0 - - - 0;
#X floatatom 91 201 5 0 0 0 - - - 0;
#X msg 91 176 100;
#X obj 37 44 bng 15 250 50 0 empty empty empty 17 7 0 10 #fcfcfc #000000
#000000;
#X obj 130 128 delay 25;
#X msg 11 176 500;
#X msg 51 176 2000;
#X obj 47 306 *~;
#X msg 142 175 0.5;
#X msg 204 175 0;
#X obj 207 129 delay 125;
#X obj 142 250 line~;
#X obj 207 153 t b b;
#X msg 240 175 10;
#X obj 151 391 writesf~;
#X msg 187 285 open -bytes 3 Jump.wav;
#X msg 192 314 start;
#X msg 251 316 stop;
#X obj 37 13 loadbang;
#X msg 273 176 10;
#X connect 0 0 1 0;
#X connect 0 0 1 1;
#X connect 0 0 18 0;
#X connect 2 0 11 0;
#X connect 3 0 2 0;
#X connect 4 0 2 0;
#X connect 5 0 2 1;
#X connect 6 0 5 0;
#X connect 7 0 23 0;
#X connect 7 0 14 0;
#X connect 7 0 8 0;
#X connect 7 0 6 0;
#X connect 7 0 9 0;
#X connect 7 0 12 0;
#X connect 8 0 10 0;
#X connect 9 0 3 0;
#X connect 10 0 4 0;
#X connect 11 0 0 0;
#X connect 12 0 15 0;
#X connect 13 0 15 0;
#X connect 14 0 16 0;
#X connect 15 0 11 1;
#X connect 16 0 13 0;
#X connect 16 1 17 0;
#X connect 17 0 15 1;
#X connect 19 0 18 0;
#X connect 20 0 18 0;
#X connect 21 0 18 0;
#X connect 22 0 7 0;
#X connect 23 0 15 1;
