#N canvas 504 25 1250 1117 12;
#X obj 385 473 dac~;
#X obj 243 46 bng 15 250 50 0 empty empty empty 17 7 0 10 #fcfcfc #000000
#000000;
#X floatatom 245 185 5 0 0 0 - - - 0;
#X floatatom 329 139 5 0 0 0 - - - 0;
#X msg 329 107 0.5;
#X obj 187 360 *~, f 9;
#X msg 245 137 0;
#X msg 287 137 10;
#X msg 373 108 10;
#X obj 9 186 noise~;
#X obj 247 337 line~;
#X obj 243 109 delay 50;
#X obj 243 16 r smash;
#X obj 684 132 hsl 128 15 0 100 0 0 empty empty empty -2 -8 0 10 #fcfcfc
#000000 #000000 0 1;
#X floatatom 162 186 5 0 0 0 - - - 0;
#X msg 204 138 10;
#X msg 162 138 0.5;
#X obj 143 266 *~;
#X obj 187 333 *~ 0.8;
#X msg 122 110 0;
#X floatatom 681 156 5 0 0 0 - - - 0;
#X obj 587 296 bp~, f 5;
#X obj 630 279 bp~, f 5;
#X obj 577 65 vsl 15 128 0 800 0 0 empty empty empty 0 -9 0 10 #fcfcfc
#000000 #000000 0 1;
#X floatatom 577 200 5 0 0 0 - - - 0;
#X obj 626 58 vsl 15 128 0 800 0 0 empty empty empty 0 -9 0 10 #fcfcfc
#000000 #000000 0 1;
#X floatatom 626 198 5 0 0 0 - - - 0;
#X obj 597 406 *~;
#X obj 470 329 line;
#X floatatom 458 167 5 0 0 0 - - - 0;
#X msg 458 133 0;
#X obj 79 235 lop~ 200;
#X obj 161 110 delay 35;
#X msg 500 133 50;
#X obj 456 105 delay 100;
#X connect 1 0 4 0;
#X connect 1 0 8 0;
#X connect 1 0 11 0;
#X connect 1 0 19 0;
#X connect 1 0 32 0;
#X connect 1 0 34 0;
#X connect 2 0 10 0;
#X connect 3 0 10 0;
#X connect 3 0 28 0;
#X connect 4 0 3 0;
#X connect 5 0 0 0;
#X connect 5 0 0 1;
#X connect 6 0 2 0;
#X connect 7 0 10 1;
#X connect 8 0 10 1;
#X connect 8 0 28 1;
#X connect 9 0 22 0;
#X connect 9 0 21 0;
#X connect 9 0 31 0;
#X connect 10 0 5 1;
#X connect 11 0 6 0;
#X connect 11 0 7 0;
#X connect 12 0 1 0;
#X connect 13 0 20 0;
#X connect 14 0 17 1;
#X connect 16 0 14 0;
#X connect 17 0 18 0;
#X connect 18 0 5 0;
#X connect 19 0 17 1;
#X connect 20 0 22 2;
#X connect 20 0 21 2;
#X connect 21 0 27 0;
#X connect 22 0 27 0;
#X connect 23 0 24 0;
#X connect 24 0 21 1;
#X connect 25 0 26 0;
#X connect 26 0 22 1;
#X connect 27 0 0 0;
#X connect 27 0 0 1;
#X connect 28 0 27 1;
#X connect 29 0 28 0;
#X connect 30 0 29 0;
#X connect 31 0 17 0;
#X connect 32 0 16 0;
#X connect 32 0 15 0;
#X connect 33 0 28 1;
#X connect 34 0 30 0;
#X connect 34 0 33 0;
