#N canvas 535 25 386 434 12;
#X obj 39 20 noise~;
#X obj 28 351 dac~ 1 2;
#X obj 41 157 bp~ 1100 4;
#X obj 120 158 bp~ 1200 6;
#X obj 41 211 *~ 0.06;
#X obj 189 313 writesf~;
#X msg 192 266 start;
#X msg 251 266 stop;
#X msg 168 232 open WaterPatch.wav;
#X connect 0 0 2 0;
#X connect 0 0 3 0;
#X connect 2 0 4 0;
#X connect 3 0 4 0;
#X connect 4 0 5 0;
#X connect 4 0 1 0;
#X connect 4 0 1 1;
#X connect 6 0 5 0;
#X connect 7 0 5 0;
#X connect 8 0 5 0;
