#N canvas 504 25 536 1117 12;
#X obj 209 591 dac~;
#X obj 207 11 loadbang;
#X obj 207 41 bng 15 250 50 0 empty empty empty 17 7 0 10 #fcfcfc #000000
#000000;
#X obj 192 127 t b b;
#X obj 172 209 line;
#X obj 267 122 t b b;
#X floatatom 346 174 5 0 0 0 - - - 0;
#X floatatom 431 128 5 0 0 0 - - - 0;
#X msg 431 96 0.5;
#X obj 192 101 delay 10;
#X floatatom 180 154 5 0 0 0 - - - 0;
#X floatatom 263 154 5 0 0 0 - - - 0;
#X obj 348 222 vline~;
#X obj 164 511 *~, f 27;
#X obj 172 249 vsl 15 128 350 600 0 0 empty empty empty 0 -9 0 10 #fcfcfc
#000000 #000000 0 1;
#X msg 348 126 0;
#X floatatom 172 393 5 0 0 0 - - - 0;
#X obj 267 98 delay 110;
#X msg 389 126 10;
#X obj 14 120 + 400;
#X msg 475 97 10;
#X msg 225 156 100;
#X msg 308 156 70;
#X obj 345 98 delay 180;
#X obj 248 312 noise~;
#X obj 244 442 bp~;
#X msg 309 359 20;
#X obj 115 313 osc~;
#X obj 138 477 *~ 0.5;
#X obj 51 202 line;
#X obj 13 96 random 10;
#X obj 97 120 + 500;
#X obj 31 443 phasor~;
#X obj 31 467 *~ 0.1;
#X obj 90 616 writesf~;
#X msg 68 544 stop;
#X msg 3 564 start;
#X obj 96 96 random 50;
#X msg 2 512 open WeaponSwing1.wav;
#X floatatom 51 226 5 0 0 0 - - - 0;
#X obj 72 311 osc~;
#X obj 93 256 * 2;
#X connect 1 0 2 0;
#X connect 2 0 8 0;
#X connect 2 0 9 0;
#X connect 2 0 17 0;
#X connect 2 0 20 0;
#X connect 2 0 23 0;
#X connect 2 0 26 0;
#X connect 2 0 30 0;
#X connect 2 0 37 0;
#X connect 3 0 10 0;
#X connect 3 1 21 0;
#X connect 4 0 14 0;
#X connect 5 0 11 0;
#X connect 5 1 22 0;
#X connect 6 0 12 0;
#X connect 7 0 12 0;
#X connect 8 0 7 0;
#X connect 9 0 3 0;
#X connect 10 0 4 0;
#X connect 10 0 29 0;
#X connect 11 0 4 0;
#X connect 12 0 13 1;
#X connect 13 0 0 0;
#X connect 13 0 34 0;
#X connect 13 0 0 1;
#X connect 14 0 16 0;
#X connect 15 0 6 0;
#X connect 16 0 25 1;
#X connect 17 0 5 0;
#X connect 18 0 12 1;
#X connect 19 0 11 0;
#X connect 19 0 32 0;
#X connect 20 0 12 1;
#X connect 21 0 4 1;
#X connect 21 0 29 1;
#X connect 22 0 4 1;
#X connect 23 0 15 0;
#X connect 23 0 18 0;
#X connect 24 0 25 0;
#X connect 25 0 28 0;
#X connect 26 0 25 2;
#X connect 27 0 28 0;
#X connect 28 0 13 0;
#X connect 29 0 39 0;
#X connect 30 0 19 0;
#X connect 31 0 10 0;
#X connect 32 0 33 0;
#X connect 33 0 13 0;
#X connect 35 0 34 0;
#X connect 36 0 34 0;
#X connect 37 0 31 0;
#X connect 38 0 34 0;
#X connect 39 0 40 0;
#X connect 39 0 41 0;
#X connect 40 0 28 0;
#X connect 41 0 27 0;
