#N canvas 344 25 1896 1117 12;
#X obj 575 414 osc~;
#X obj 38 57 metro 1 120 permin;
#X floatatom 38 257 5 0 0 0 - - - 0;
#X obj 575 392 line;
#X text 5 25 state1;
#X text 12 583 state2;
#X msg 10 334 349.228;
#X msg 69 334 415.305;
#X msg 132 335 523.251;
#X text 132 312 F minor;
#X obj 156 105 tgl 15 0 empty empty empty 17 7 0 10 #fcfcfc #000000
#000000 0 1;
#X msg 150 134 0;
#X obj 610 414 osc~;
#X obj 646 414 osc~;
#X obj 610 392 line;
#X obj 646 392 line;
#X text 344 315 Ab major;
#X msg 223 335 415.305;
#X msg 284 336 523.251;
#X msg 343 336 622.254;
#X obj 38 305 t b b b b;
#X msg 190 335 100;
#X obj 234 304 t b b b b;
#X msg 403 336 100;
#X msg 450 336 466.164;
#X text 578 310 Bb Minor;
#X msg 631 336 100;
#X obj 484 306 t b b b b;
#X msg 509 337 554.365;
#X msg 570 336 349.228;
#X text 793 315 C minor;
#X msg 670 336 523.251;
#X msg 730 337 622.254;
#X msg 791 337 391.995;
#X msg 851 337 100;
#X obj 708 306 t b b b b;
#X msg 944 335 698.456;
#X msg 1003 334 415.305;
#X msg 885 335 554.365;
#X msg 1067 334 100;
#X obj 931 304 t b b b b;
#X obj 38 80 bng 15 250 50 0 empty empty empty 17 7 0 10 #fcfcfc #000000
#000000;
#X msg 38 100 1;
#X obj 38 124 +;
#X floatatom 39 152 5 0 0 0 - - - 0;
#X obj 39 186 == 4;
#X obj 39 209 sel 1;
#X obj 38 282 sel 1 3 5 7 9, f 160;
#X obj 38 233 random 10;
#X floatatom 57 828 5 0 0 0 - - - 0;
#X obj 581 1066 line;
#X text 141 1178 boss;
#X msg 29 905 349.228;
#X text 151 883 F minor;
#X msg 169 705 0;
#X text 363 886 Ab major;
#X msg 242 906 415.305;
#X obj 57 876 t b b b b;
#X msg 209 906 100;
#X obj 253 875 t b b b b;
#X msg 422 907 100;
#X msg 469 907 466.164;
#X text 597 881 Bb Minor;
#X msg 650 907 100;
#X obj 503 877 t b b b b;
#X obj 468 830 bng 15 250 50 0 empty empty empty 17 7 0 10 #fcfcfc
#000000 #000000;
#X obj 257 834 bng 15 250 50 0 empty empty empty 17 7 0 10 #fcfcfc
#000000 #000000;
#X obj 121 829 bng 15 250 50 0 empty empty empty 17 7 0 10 #fcfcfc
#000000 #000000;
#X text 812 886 C minor;
#X msg 689 907 523.251;
#X msg 870 908 100;
#X obj 727 877 t b b b b;
#X obj 674 831 bng 15 250 50 0 empty empty empty 17 7 0 10 #fcfcfc
#000000 #000000;
#X text 1017 883 Db Major;
#X msg 904 907 554.365;
#X msg 1086 905 100;
#X obj 950 875 t b b b b;
#X obj 932 826 bng 15 250 50 0 empty empty empty 17 7 0 10 #fcfcfc
#000000 #000000;
#X obj 57 651 bng 15 250 50 0 empty empty empty 17 7 0 10 #fcfcfc #000000
#000000;
#X msg 57 671 1;
#X obj 57 695 +;
#X floatatom 58 723 5 0 0 0 - - - 0;
#X obj 58 757 == 4;
#X obj 58 780 sel 1;
#X obj 57 853 sel 1 3 5 7 9, f 160;
#X obj 57 804 random 10;
#X obj 57 628 metro 1 240 permin;
#X obj 581 1091 phasor~;
#X obj 244 1176 metro 1 120 permin;
#X floatatom 244 1376 5 0 0 0 - - - 0;
#X obj 1527 1171 dac~ 1;
#X msg 371 1708 415.305;
#X text 120 1511 F minor;
#X msg 356 1253 0;
#X obj 244 1199 bng 15 250 50 0 empty empty empty 17 7 0 10 #fcfcfc
#000000 #000000;
#X msg 244 1219 1;
#X obj 244 1243 +;
#X floatatom 245 1271 5 0 0 0 - - - 0;
#X obj 245 1305 == 4;
#X obj 245 1328 sel 1;
#X obj 445 1427 sel 1 3 5 7 9, f 160;
#X obj 244 1352 random 10;
#X msg 340 1637 10;
#X obj 817 1869 line;
#X obj 371 1578 delay 100;
#X obj 41 1637 delay 500;
#X obj 41 1661 t b b;
#X msg 72 1709 10;
#X obj 396 1657 t b b;
#X msg 428 1708 10;
#X msg 11 1708 349.228;
#X obj 111 1661 t b b;
#X msg 145 1710 10;
#X obj 111 1637 delay 1000;
#X obj 188 1661 t b b;
#X msg 222 1712 10;
#X obj 188 1637 delay 1500;
#X obj 264 1661 t b b;
#X msg 297 1711 10;
#X obj 264 1637 delay 2000;
#X obj 12 1573 t b b b b b b, f 26;
#X msg 696 1633 10;
#X obj 467 1657 t b b;
#X obj 544 1657 t b b;
#X obj 620 1657 t b b;
#X obj 396 1633 delay 600;
#X obj 467 1633 delay 1100;
#X obj 544 1633 delay 1600;
#X obj 620 1633 delay 2100;
#X obj 371 1554 t b b b b b b, f 18;
#X msg 499 1708 10;
#X msg 577 1710 10;
#X msg 652 1708 10;
#X obj 750 1655 t b b;
#X msg 782 1706 10;
#X msg 1050 1631 10;
#X obj 821 1655 t b b;
#X obj 898 1655 t b b;
#X obj 974 1655 t b b;
#X obj 725 1552 t b b b b b b, f 18;
#X msg 853 1706 10;
#X msg 931 1708 10;
#X msg 1006 1706 10;
#X obj 725 1576 delay 200;
#X obj 750 1631 delay 700;
#X obj 821 1631 delay 1200;
#X obj 898 1631 delay 1700;
#X obj 974 1631 delay 2200;
#X msg 725 1706 523.251;
#X msg 1083 1705 415.305;
#X obj 1108 1654 t b b;
#X msg 1140 1705 10;
#X msg 1408 1630 10;
#X obj 1179 1654 t b b;
#X obj 1256 1654 t b b;
#X obj 1332 1654 t b b;
#X obj 1083 1551 t b b b b b b, f 18;
#X msg 1211 1705 10;
#X msg 1289 1707 10;
#X msg 1364 1705 10;
#X obj 1083 1575 delay 300;
#X obj 1108 1630 delay 800;
#X obj 1179 1630 delay 1300;
#X obj 1256 1630 delay 1800;
#X obj 1332 1630 delay 2300;
#X msg 1772 1639 10;
#X obj 1473 1663 t b b;
#X msg 1504 1709 10;
#X msg 1443 1708 349.228;
#X obj 1543 1663 t b b;
#X msg 1577 1710 10;
#X obj 1620 1663 t b b;
#X msg 1654 1712 10;
#X obj 1696 1663 t b b;
#X msg 1729 1711 10;
#X obj 1443 1567 t b b b b b b, f 26;
#X obj 1443 1590 delay 400;
#X obj 1473 1639 delay 900;
#X obj 1543 1639 delay 1400;
#X obj 1620 1639 delay 1900;
#X obj 1696 1639 delay 2400;
#X msg 333 2062 10;
#X obj 810 2294 line;
#X obj 364 2003 delay 100;
#X obj 34 2062 delay 500;
#X obj 34 2086 t b b;
#X msg 65 2134 10;
#X obj 389 2082 t b b;
#X msg 421 2133 10;
#X obj 104 2086 t b b;
#X msg 138 2135 10;
#X obj 104 2062 delay 1000;
#X obj 181 2086 t b b;
#X msg 215 2137 10;
#X obj 181 2062 delay 1500;
#X obj 257 2086 t b b;
#X msg 290 2136 10;
#X obj 257 2062 delay 2000;
#X obj 5 1998 t b b b b b b, f 26;
#X msg 689 2058 10;
#X obj 460 2082 t b b;
#X obj 537 2082 t b b;
#X obj 613 2082 t b b;
#X obj 389 2058 delay 600;
#X obj 460 2058 delay 1100;
#X obj 537 2058 delay 1600;
#X obj 613 2058 delay 2100;
#X obj 364 1979 t b b b b b b, f 18;
#X msg 492 2133 10;
#X msg 570 2135 10;
#X msg 645 2133 10;
#X obj 743 2080 t b b;
#X msg 775 2131 10;
#X msg 1043 2056 10;
#X obj 814 2080 t b b;
#X obj 891 2080 t b b;
#X obj 967 2080 t b b;
#X obj 718 1977 t b b b b b b, f 18;
#X msg 846 2131 10;
#X msg 924 2133 10;
#X msg 999 2131 10;
#X obj 718 2001 delay 200;
#X obj 743 2056 delay 700;
#X obj 814 2056 delay 1200;
#X obj 891 2056 delay 1700;
#X obj 967 2056 delay 2200;
#X obj 1101 2079 t b b;
#X msg 1133 2130 10;
#X msg 1401 2055 10;
#X obj 1172 2079 t b b;
#X obj 1249 2079 t b b;
#X obj 1325 2079 t b b;
#X obj 1076 1976 t b b b b b b, f 18;
#X msg 1204 2130 10;
#X msg 1282 2132 10;
#X msg 1357 2130 10;
#X obj 1076 2000 delay 300;
#X obj 1101 2055 delay 800;
#X obj 1172 2055 delay 1300;
#X obj 1249 2055 delay 1800;
#X obj 1325 2055 delay 2300;
#X msg 1765 2064 10;
#X obj 1466 2088 t b b;
#X msg 1497 2134 10;
#X obj 1536 2088 t b b;
#X msg 1570 2135 10;
#X obj 1613 2088 t b b;
#X msg 1647 2137 10;
#X obj 1689 2088 t b b;
#X msg 1722 2136 10;
#X obj 1436 1992 t b b b b b b, f 26;
#X obj 1436 2015 delay 400;
#X obj 1466 2064 delay 900;
#X obj 1536 2064 delay 1400;
#X obj 1613 2064 delay 1900;
#X obj 1689 2064 delay 2400;
#X msg 4 2133 415.305;
#X msg 364 2133 523.251;
#X msg 718 2131 622.254;
#X msg 1076 2130 523.251;
#X msg 1436 2133 415.305;
#X msg 349 2478 10;
#X obj 826 2710 line;
#X obj 380 2419 delay 100;
#X obj 50 2478 delay 500;
#X obj 50 2502 t b b;
#X msg 81 2550 10;
#X obj 405 2498 t b b;
#X msg 437 2549 10;
#X obj 120 2502 t b b;
#X msg 154 2551 10;
#X obj 120 2478 delay 1000;
#X obj 197 2502 t b b;
#X msg 231 2553 10;
#X obj 197 2478 delay 1500;
#X obj 273 2502 t b b;
#X msg 306 2552 10;
#X obj 273 2478 delay 2000;
#X obj 21 2414 t b b b b b b, f 26;
#X msg 705 2474 10;
#X obj 476 2498 t b b;
#X obj 553 2498 t b b;
#X obj 629 2498 t b b;
#X obj 405 2474 delay 600;
#X obj 476 2474 delay 1100;
#X obj 553 2474 delay 1600;
#X obj 629 2474 delay 2100;
#X obj 380 2395 t b b b b b b, f 18;
#X msg 508 2549 10;
#X msg 586 2551 10;
#X msg 661 2549 10;
#X obj 759 2496 t b b;
#X msg 791 2547 10;
#X msg 1059 2472 10;
#X obj 830 2496 t b b;
#X obj 907 2496 t b b;
#X obj 983 2496 t b b;
#X obj 734 2393 t b b b b b b, f 18;
#X msg 862 2547 10;
#X msg 940 2549 10;
#X msg 1015 2547 10;
#X obj 734 2417 delay 200;
#X obj 759 2472 delay 700;
#X obj 830 2472 delay 1200;
#X obj 907 2472 delay 1700;
#X obj 983 2472 delay 2200;
#X obj 1117 2495 t b b;
#X msg 1149 2546 10;
#X msg 1417 2471 10;
#X obj 1188 2495 t b b;
#X obj 1265 2495 t b b;
#X obj 1341 2495 t b b;
#X obj 1092 2392 t b b b b b b, f 18;
#X msg 1220 2546 10;
#X msg 1298 2548 10;
#X msg 1373 2546 10;
#X obj 1092 2416 delay 300;
#X obj 1117 2471 delay 800;
#X obj 1188 2471 delay 1300;
#X obj 1265 2471 delay 1800;
#X obj 1341 2471 delay 2300;
#X msg 1781 2480 10;
#X obj 1482 2504 t b b;
#X msg 1513 2550 10;
#X obj 1552 2504 t b b;
#X msg 1586 2551 10;
#X obj 1629 2504 t b b;
#X msg 1663 2553 10;
#X obj 1705 2504 t b b;
#X msg 1738 2552 10;
#X obj 1452 2408 t b b b b b b, f 26;
#X obj 1452 2431 delay 400;
#X obj 1482 2480 delay 900;
#X obj 1552 2480 delay 1400;
#X obj 1629 2480 delay 1900;
#X obj 1705 2480 delay 2400;
#X msg 372 2896 10;
#X obj 849 3128 line;
#X obj 403 2837 delay 100;
#X obj 73 2896 delay 500;
#X obj 73 2920 t b b;
#X msg 104 2968 10;
#X obj 428 2916 t b b;
#X msg 460 2967 10;
#X obj 143 2920 t b b;
#X msg 177 2969 10;
#X obj 143 2896 delay 1000;
#X obj 220 2920 t b b;
#X msg 254 2971 10;
#X obj 220 2896 delay 1500;
#X obj 296 2920 t b b;
#X msg 329 2970 10;
#X obj 296 2896 delay 2000;
#X obj 44 2832 t b b b b b b, f 26;
#X msg 728 2892 10;
#X obj 499 2916 t b b;
#X obj 576 2916 t b b;
#X obj 652 2916 t b b;
#X obj 428 2892 delay 600;
#X obj 499 2892 delay 1100;
#X obj 576 2892 delay 1600;
#X obj 652 2892 delay 2100;
#X obj 403 2813 t b b b b b b, f 18;
#X msg 531 2967 10;
#X msg 609 2969 10;
#X msg 684 2967 10;
#X obj 782 2914 t b b;
#X msg 814 2965 10;
#X msg 1082 2890 10;
#X obj 853 2914 t b b;
#X obj 930 2914 t b b;
#X obj 1006 2914 t b b;
#X obj 757 2811 t b b b b b b, f 18;
#X msg 885 2965 10;
#X msg 963 2967 10;
#X msg 1038 2965 10;
#X obj 757 2835 delay 200;
#X obj 782 2890 delay 700;
#X obj 853 2890 delay 1200;
#X obj 930 2890 delay 1700;
#X obj 1006 2890 delay 2200;
#X obj 1140 2913 t b b;
#X msg 1172 2964 10;
#X msg 1440 2889 10;
#X obj 1211 2913 t b b;
#X obj 1288 2913 t b b;
#X obj 1364 2913 t b b;
#X obj 1115 2810 t b b b b b b, f 18;
#X msg 1243 2964 10;
#X msg 1321 2966 10;
#X msg 1396 2964 10;
#X obj 1115 2834 delay 300;
#X obj 1140 2889 delay 800;
#X obj 1211 2889 delay 1300;
#X obj 1288 2889 delay 1800;
#X obj 1364 2889 delay 2300;
#X msg 1804 2898 10;
#X obj 1505 2922 t b b;
#X msg 1536 2968 10;
#X obj 1575 2922 t b b;
#X msg 1609 2969 10;
#X obj 1652 2922 t b b;
#X msg 1686 2971 10;
#X obj 1728 2922 t b b;
#X msg 1761 2970 10;
#X obj 1475 2826 t b b b b b b, f 26;
#X obj 1475 2849 delay 400;
#X obj 1505 2898 delay 900;
#X obj 1575 2898 delay 1400;
#X obj 1652 2898 delay 1900;
#X obj 1728 2898 delay 2400;
#X msg 20 2549 466.164;
#X msg 380 2549 554.365;
#X msg 734 2547 349.228;
#X msg 1093 2546 554.365;
#X msg 1452 2549 466.164;
#X msg 44 2968 523.251;
#X msg 403 2967 622.254;
#X msg 757 2965 391.995;
#X msg 1115 2964 622.254;
#X msg 1475 2967 523.251;
#X msg 379 3315 10;
#X obj 1881 1070 osc~;
#X obj 856 3547 line;
#X obj 410 3256 delay 100;
#X obj 80 3315 delay 500;
#X obj 80 3339 t b b;
#X msg 111 3387 10;
#X obj 435 3335 t b b;
#X msg 467 3386 10;
#X obj 150 3339 t b b;
#X msg 184 3388 10;
#X obj 150 3315 delay 1000;
#X obj 227 3339 t b b;
#X msg 261 3390 10;
#X obj 227 3315 delay 1500;
#X obj 303 3339 t b b;
#X msg 336 3389 10;
#X obj 303 3315 delay 2000;
#X obj 51 3251 t b b b b b b, f 26;
#X msg 735 3311 10;
#X obj 506 3335 t b b;
#X obj 583 3335 t b b;
#X obj 659 3335 t b b;
#X obj 435 3311 delay 600;
#X obj 506 3311 delay 1100;
#X obj 583 3311 delay 1600;
#X obj 659 3311 delay 2100;
#X obj 410 3232 t b b b b b b, f 18;
#X msg 538 3386 10;
#X msg 616 3388 10;
#X msg 691 3386 10;
#X obj 789 3333 t b b;
#X msg 821 3384 10;
#X msg 1089 3309 10;
#X obj 860 3333 t b b;
#X obj 937 3333 t b b;
#X obj 1013 3333 t b b;
#X obj 764 3230 t b b b b b b, f 18;
#X msg 892 3384 10;
#X msg 970 3386 10;
#X msg 1045 3384 10;
#X obj 764 3254 delay 200;
#X obj 789 3309 delay 700;
#X obj 860 3309 delay 1200;
#X obj 937 3309 delay 1700;
#X obj 1013 3309 delay 2200;
#X obj 1147 3332 t b b;
#X msg 1179 3383 10;
#X msg 1447 3308 10;
#X obj 1218 3332 t b b;
#X obj 1295 3332 t b b;
#X obj 1371 3332 t b b;
#X obj 1122 3229 t b b b b b b, f 18;
#X msg 1250 3383 10;
#X msg 1328 3385 10;
#X msg 1403 3383 10;
#X obj 1122 3253 delay 300;
#X obj 1147 3308 delay 800;
#X obj 1218 3308 delay 1300;
#X obj 1295 3308 delay 1800;
#X obj 1371 3308 delay 2300;
#X msg 1811 3317 10;
#X obj 1512 3341 t b b;
#X msg 1543 3387 10;
#X obj 1582 3341 t b b;
#X msg 1616 3388 10;
#X obj 1659 3341 t b b;
#X msg 1693 3390 10;
#X obj 1735 3341 t b b;
#X msg 1768 3389 10;
#X obj 1482 3245 t b b b b b b, f 26;
#X obj 1482 3268 delay 400;
#X obj 1512 3317 delay 900;
#X obj 1582 3317 delay 1400;
#X obj 1659 3317 delay 1900;
#X obj 1735 3317 delay 2400;
#X msg 50 3386 523.251;
#X msg 410 3386 698.456;
#X msg 764 3384 415.305;
#X msg 1123 3383 698.456;
#X msg 1482 3386 523.251;
#X obj 1881 1094 clip~ -0.5 0.5;
#X text 140 1936 Ab major;
#X text 188 2337 Bb Minor;
#X text 178 2753 C minor;
#X text 196 3177 Db Major;
#X obj 979 1468 delay 2500;
#X obj 1056 1469 delay 3500;
#X obj 1133 1469 delay 4500;
#X obj 438 1501 t b b b b b b b b, f 97;
#X obj 2098 2807 line~;
#X obj 418 1923 t b b b b b b b b, f 97;
#X obj 1033 1881 delay 2500;
#X obj 1110 1882 delay 3500;
#X obj 1187 1882 delay 4500;
#X obj 1034 2301 delay 2500;
#X obj 1111 2302 delay 3500;
#X obj 1188 2302 delay 4500;
#X obj 434 2339 t b b b b b b b b, f 97;
#X obj 457 2757 t b b b b b b b b, f 97;
#X obj 1036 2714 delay 2500;
#X obj 1113 2715 delay 3500;
#X obj 1190 2715 delay 4500;
#X obj 464 3176 t b b b b b b b b, f 97;
#X obj 1073 3142 delay 2500;
#X obj 1150 3143 delay 3500;
#X obj 1227 3143 delay 4500;
#X floatatom 307 38 5 0 2 0 - - - 0;
#X obj 368 143 tgl 15 0 empty empty empty 17 7 0 10 #fcfcfc #000000
#000000 0 1;
#X obj 285 523 tgl 15 0 empty empty empty 17 7 0 10 #fcfcfc #000000
#000000 0 1;
#X obj 284 66 sel 0;
#X obj 327 67 sel 1;
#X obj 370 67 sel 2;
#X obj 581 1114 *~;
#X obj 777 1062 line;
#X msg 789 1018 50;
#X obj 350 715 t b b;
#X obj 1035 665 *~;
#X obj 823 497 line;
#X msg 851 447 50;
#X msg 818 448 0;
#X msg 784 448 50;
#X obj 1767 1130 *~;
#X obj 1664 1002 line;
#X msg 1672 951 50;
#X msg 1639 952 0.5;
#X obj 571 448 *~ 0.5;
#X obj 619 448 *~ 0.5;
#X obj 667 449 *~ 0.5;
#X msg 259 146 1;
#X floatatom 957 1029 5 0 1 0 - - - 0;
#X obj 957 1005 r MelodyGain @hv_param 0 1 0;
#X obj 307 12 r MusicState @hv_param 0 2 0;
#X floatatom 1140 509 5 0 1 0 - - - 0;
#X obj 1140 485 r ChordsGain @hv_param 0 1 0;
#X floatatom 1728 841 5 0 1 0 - - - 0;
#X obj 1728 817 r ARPGain @hv_param 0 1 0;
#X msg 875 1001 50;
#X msg 842 1002 0;
#X obj 224 97 t b b b b b b;
#X obj 572 508 clip~ -1 1;
#X msg 192 42 0;
#X obj 164 12 loadbang;
#X msg 751 449 0.3;
#X obj 289 438 t b b;
#X obj 436 698 t b b b b;
#X msg 1674 862 50;
#X msg 1641 863 0;
#X msg 756 1019 0.2;
#X obj 387 102 t b b b b b b b;
#X connect 0 0 547 0;
#X connect 1 0 41 0;
#X connect 2 0 47 0;
#X connect 3 0 0 0;
#X connect 6 0 3 0;
#X connect 7 0 14 0;
#X connect 8 0 15 0;
#X connect 10 0 1 0;
#X connect 10 0 11 0;
#X connect 11 0 44 0;
#X connect 12 0 548 0;
#X connect 13 0 549 0;
#X connect 14 0 12 0;
#X connect 15 0 13 0;
#X connect 17 0 3 0;
#X connect 18 0 14 0;
#X connect 19 0 15 0;
#X connect 20 0 6 0;
#X connect 20 1 7 0;
#X connect 20 2 8 0;
#X connect 20 3 21 0;
#X connect 21 0 3 1;
#X connect 21 0 14 1;
#X connect 21 0 15 1;
#X connect 22 0 17 0;
#X connect 22 1 18 0;
#X connect 22 2 19 0;
#X connect 22 3 23 0;
#X connect 23 0 3 1;
#X connect 23 0 14 1;
#X connect 23 0 15 1;
#X connect 24 0 3 0;
#X connect 26 0 15 1;
#X connect 26 0 14 1;
#X connect 26 0 3 1;
#X connect 27 0 24 0;
#X connect 27 1 28 0;
#X connect 27 2 29 0;
#X connect 27 3 26 0;
#X connect 28 0 14 0;
#X connect 29 0 15 0;
#X connect 31 0 3 0;
#X connect 32 0 14 0;
#X connect 33 0 15 0;
#X connect 34 0 15 1;
#X connect 34 0 14 1;
#X connect 34 0 3 1;
#X connect 35 0 31 0;
#X connect 35 1 32 0;
#X connect 35 2 33 0;
#X connect 35 3 34 0;
#X connect 36 0 14 0;
#X connect 37 0 15 0;
#X connect 38 0 3 0;
#X connect 39 0 15 1;
#X connect 39 0 14 1;
#X connect 39 0 3 1;
#X connect 40 0 38 0;
#X connect 40 1 36 0;
#X connect 40 2 37 0;
#X connect 40 3 39 0;
#X connect 41 0 42 0;
#X connect 42 0 43 0;
#X connect 43 0 44 0;
#X connect 44 0 43 1;
#X connect 44 0 45 0;
#X connect 45 0 46 0;
#X connect 46 0 11 0;
#X connect 46 0 48 0;
#X connect 47 0 20 0;
#X connect 47 1 22 0;
#X connect 47 2 27 0;
#X connect 47 3 35 0;
#X connect 47 4 40 0;
#X connect 48 0 2 0;
#X connect 49 0 84 0;
#X connect 50 0 87 0;
#X connect 52 0 50 0;
#X connect 54 0 81 0;
#X connect 56 0 50 0;
#X connect 57 0 52 0;
#X connect 57 3 58 0;
#X connect 59 0 56 0;
#X connect 59 3 60 0;
#X connect 61 0 50 0;
#X connect 64 0 61 0;
#X connect 64 3 63 0;
#X connect 65 0 64 0;
#X connect 66 0 59 0;
#X connect 67 0 57 0;
#X connect 69 0 50 0;
#X connect 71 0 69 0;
#X connect 71 3 70 0;
#X connect 72 0 71 0;
#X connect 74 0 50 0;
#X connect 76 0 74 0;
#X connect 76 3 75 0;
#X connect 77 0 76 0;
#X connect 78 0 79 0;
#X connect 79 0 80 0;
#X connect 80 0 81 0;
#X connect 81 0 80 1;
#X connect 81 0 82 0;
#X connect 82 0 83 0;
#X connect 83 0 54 0;
#X connect 83 0 85 0;
#X connect 84 0 57 0;
#X connect 84 1 59 0;
#X connect 84 2 64 0;
#X connect 84 3 71 0;
#X connect 84 4 76 0;
#X connect 85 0 49 0;
#X connect 86 0 78 0;
#X connect 87 0 534 0;
#X connect 88 0 94 0;
#X connect 89 0 100 0;
#X connect 91 0 103 0;
#X connect 93 0 97 0;
#X connect 94 0 95 0;
#X connect 95 0 96 0;
#X connect 96 0 97 0;
#X connect 97 0 96 1;
#X connect 97 0 98 0;
#X connect 98 0 99 0;
#X connect 99 0 93 0;
#X connect 99 0 101 0;
#X connect 100 0 510 0;
#X connect 100 1 512 0;
#X connect 100 2 519 0;
#X connect 100 3 520 0;
#X connect 100 4 524 0;
#X connect 101 0 89 0;
#X connect 102 0 103 1;
#X connect 103 0 511 0;
#X connect 104 0 91 0;
#X connect 105 0 106 0;
#X connect 106 0 110 0;
#X connect 106 1 107 0;
#X connect 107 0 103 1;
#X connect 108 0 91 0;
#X connect 108 1 109 0;
#X connect 109 0 103 1;
#X connect 110 0 103 0;
#X connect 111 0 110 0;
#X connect 111 1 112 0;
#X connect 112 0 103 1;
#X connect 113 0 111 0;
#X connect 114 0 110 0;
#X connect 114 1 115 0;
#X connect 115 0 103 1;
#X connect 116 0 114 0;
#X connect 117 0 110 0;
#X connect 117 1 118 0;
#X connect 118 0 103 1;
#X connect 119 0 117 0;
#X connect 120 0 110 0;
#X connect 120 1 105 0;
#X connect 120 2 113 0;
#X connect 120 3 116 0;
#X connect 120 4 119 0;
#X connect 120 5 102 0;
#X connect 121 0 103 1;
#X connect 122 0 91 0;
#X connect 122 1 130 0;
#X connect 123 0 91 0;
#X connect 123 1 131 0;
#X connect 124 0 91 0;
#X connect 124 1 132 0;
#X connect 125 0 108 0;
#X connect 126 0 122 0;
#X connect 127 0 123 0;
#X connect 128 0 124 0;
#X connect 129 0 104 0;
#X connect 129 1 125 0;
#X connect 129 2 126 0;
#X connect 129 3 127 0;
#X connect 129 4 128 0;
#X connect 129 5 121 0;
#X connect 130 0 103 1;
#X connect 131 0 103 1;
#X connect 132 0 103 1;
#X connect 133 0 148 0;
#X connect 133 1 134 0;
#X connect 134 0 103 1;
#X connect 135 0 103 1;
#X connect 136 0 148 0;
#X connect 136 1 140 0;
#X connect 137 0 148 0;
#X connect 137 1 141 0;
#X connect 138 0 148 0;
#X connect 138 1 142 0;
#X connect 139 0 143 0;
#X connect 139 1 144 0;
#X connect 139 2 145 0;
#X connect 139 3 146 0;
#X connect 139 4 147 0;
#X connect 139 5 135 0;
#X connect 140 0 103 1;
#X connect 141 0 103 1;
#X connect 142 0 103 1;
#X connect 143 0 148 0;
#X connect 144 0 133 0;
#X connect 145 0 136 0;
#X connect 146 0 137 0;
#X connect 147 0 138 0;
#X connect 148 0 103 0;
#X connect 149 0 103 0;
#X connect 150 0 149 0;
#X connect 150 1 151 0;
#X connect 151 0 103 1;
#X connect 152 0 103 1;
#X connect 153 0 149 0;
#X connect 153 1 157 0;
#X connect 154 0 149 0;
#X connect 154 1 158 0;
#X connect 155 0 149 0;
#X connect 155 1 159 0;
#X connect 156 0 160 0;
#X connect 156 1 161 0;
#X connect 156 2 162 0;
#X connect 156 3 163 0;
#X connect 156 4 164 0;
#X connect 156 5 152 0;
#X connect 157 0 103 1;
#X connect 158 0 103 1;
#X connect 159 0 103 1;
#X connect 160 0 149 0;
#X connect 161 0 150 0;
#X connect 162 0 153 0;
#X connect 163 0 154 0;
#X connect 164 0 155 0;
#X connect 165 0 103 1;
#X connect 166 0 168 0;
#X connect 166 1 167 0;
#X connect 167 0 103 1;
#X connect 168 0 103 0;
#X connect 169 0 168 0;
#X connect 169 1 170 0;
#X connect 170 0 103 1;
#X connect 171 0 168 0;
#X connect 171 1 172 0;
#X connect 172 0 103 1;
#X connect 173 0 168 0;
#X connect 173 1 174 0;
#X connect 174 0 103 1;
#X connect 175 0 176 0;
#X connect 175 1 177 0;
#X connect 175 2 178 0;
#X connect 175 3 179 0;
#X connect 175 4 180 0;
#X connect 175 5 165 0;
#X connect 176 0 168 0;
#X connect 177 0 166 0;
#X connect 178 0 169 0;
#X connect 179 0 171 0;
#X connect 180 0 173 0;
#X connect 181 0 182 1;
#X connect 182 0 511 0;
#X connect 183 0 257 0;
#X connect 184 0 185 0;
#X connect 185 0 256 0;
#X connect 185 1 186 0;
#X connect 186 0 182 1;
#X connect 187 0 257 0;
#X connect 187 1 188 0;
#X connect 188 0 182 1;
#X connect 189 0 256 0;
#X connect 189 1 190 0;
#X connect 190 0 182 1;
#X connect 191 0 189 0;
#X connect 192 0 256 0;
#X connect 192 1 193 0;
#X connect 193 0 182 1;
#X connect 194 0 192 0;
#X connect 195 0 256 0;
#X connect 195 1 196 0;
#X connect 196 0 182 1;
#X connect 197 0 195 0;
#X connect 198 0 256 0;
#X connect 198 1 184 0;
#X connect 198 2 191 0;
#X connect 198 3 194 0;
#X connect 198 4 197 0;
#X connect 198 5 181 0;
#X connect 199 0 182 1;
#X connect 200 0 257 0;
#X connect 200 1 208 0;
#X connect 201 0 257 0;
#X connect 201 1 209 0;
#X connect 202 0 257 0;
#X connect 202 1 210 0;
#X connect 203 0 187 0;
#X connect 204 0 200 0;
#X connect 205 0 201 0;
#X connect 206 0 202 0;
#X connect 207 0 183 0;
#X connect 207 1 203 0;
#X connect 207 2 204 0;
#X connect 207 3 205 0;
#X connect 207 4 206 0;
#X connect 207 5 199 0;
#X connect 208 0 182 1;
#X connect 209 0 182 1;
#X connect 210 0 182 1;
#X connect 211 0 258 0;
#X connect 211 1 212 0;
#X connect 212 0 182 1;
#X connect 213 0 182 1;
#X connect 214 0 258 0;
#X connect 214 1 218 0;
#X connect 215 0 258 0;
#X connect 215 1 219 0;
#X connect 216 0 258 0;
#X connect 216 1 220 0;
#X connect 217 0 221 0;
#X connect 217 1 222 0;
#X connect 217 2 223 0;
#X connect 217 3 224 0;
#X connect 217 4 225 0;
#X connect 217 5 213 0;
#X connect 218 0 182 1;
#X connect 219 0 182 1;
#X connect 220 0 182 1;
#X connect 221 0 258 0;
#X connect 222 0 211 0;
#X connect 223 0 214 0;
#X connect 224 0 215 0;
#X connect 225 0 216 0;
#X connect 226 0 259 0;
#X connect 226 1 227 0;
#X connect 227 0 182 1;
#X connect 228 0 182 1;
#X connect 229 0 259 0;
#X connect 229 1 233 0;
#X connect 230 0 259 0;
#X connect 230 1 234 0;
#X connect 231 0 259 0;
#X connect 231 1 235 0;
#X connect 232 0 236 0;
#X connect 232 1 237 0;
#X connect 232 2 238 0;
#X connect 232 3 239 0;
#X connect 232 4 240 0;
#X connect 232 5 228 0;
#X connect 233 0 182 1;
#X connect 234 0 182 1;
#X connect 235 0 182 1;
#X connect 236 0 259 0;
#X connect 237 0 226 0;
#X connect 238 0 229 0;
#X connect 239 0 230 0;
#X connect 240 0 231 0;
#X connect 241 0 182 1;
#X connect 242 0 260 0;
#X connect 242 1 243 0;
#X connect 243 0 182 1;
#X connect 244 0 260 0;
#X connect 244 1 245 0;
#X connect 245 0 182 1;
#X connect 246 0 260 0;
#X connect 246 1 247 0;
#X connect 247 0 182 1;
#X connect 248 0 260 0;
#X connect 248 1 249 0;
#X connect 249 0 182 1;
#X connect 250 0 251 0;
#X connect 250 1 252 0;
#X connect 250 2 253 0;
#X connect 250 3 254 0;
#X connect 250 4 255 0;
#X connect 250 5 241 0;
#X connect 251 0 260 0;
#X connect 252 0 242 0;
#X connect 253 0 244 0;
#X connect 254 0 246 0;
#X connect 255 0 248 0;
#X connect 256 0 182 0;
#X connect 257 0 182 0;
#X connect 258 0 182 0;
#X connect 259 0 182 0;
#X connect 260 0 182 0;
#X connect 261 0 262 1;
#X connect 262 0 511 0;
#X connect 263 0 412 0;
#X connect 264 0 265 0;
#X connect 265 0 411 0;
#X connect 265 1 266 0;
#X connect 266 0 262 1;
#X connect 267 0 412 0;
#X connect 267 1 268 0;
#X connect 268 0 262 1;
#X connect 269 0 411 0;
#X connect 269 1 270 0;
#X connect 270 0 262 1;
#X connect 271 0 269 0;
#X connect 272 0 411 0;
#X connect 272 1 273 0;
#X connect 273 0 262 1;
#X connect 274 0 272 0;
#X connect 275 0 411 0;
#X connect 275 1 276 0;
#X connect 276 0 262 1;
#X connect 277 0 275 0;
#X connect 278 0 411 0;
#X connect 278 1 264 0;
#X connect 278 2 271 0;
#X connect 278 3 274 0;
#X connect 278 4 277 0;
#X connect 278 5 261 0;
#X connect 279 0 262 1;
#X connect 280 0 412 0;
#X connect 280 1 288 0;
#X connect 281 0 412 0;
#X connect 281 1 289 0;
#X connect 282 0 412 0;
#X connect 282 1 290 0;
#X connect 283 0 267 0;
#X connect 284 0 280 0;
#X connect 285 0 281 0;
#X connect 286 0 282 0;
#X connect 287 0 263 0;
#X connect 287 1 283 0;
#X connect 287 2 284 0;
#X connect 287 3 285 0;
#X connect 287 4 286 0;
#X connect 287 5 279 0;
#X connect 288 0 262 1;
#X connect 289 0 262 1;
#X connect 290 0 262 1;
#X connect 291 0 413 0;
#X connect 291 1 292 0;
#X connect 292 0 262 1;
#X connect 293 0 262 1;
#X connect 294 0 413 0;
#X connect 294 1 298 0;
#X connect 295 0 413 0;
#X connect 295 1 299 0;
#X connect 296 0 413 0;
#X connect 296 1 300 0;
#X connect 297 0 301 0;
#X connect 297 1 302 0;
#X connect 297 2 303 0;
#X connect 297 3 304 0;
#X connect 297 4 305 0;
#X connect 297 5 293 0;
#X connect 298 0 262 1;
#X connect 299 0 262 1;
#X connect 300 0 262 1;
#X connect 301 0 413 0;
#X connect 302 0 291 0;
#X connect 303 0 294 0;
#X connect 304 0 295 0;
#X connect 305 0 296 0;
#X connect 306 0 414 0;
#X connect 306 1 307 0;
#X connect 307 0 262 1;
#X connect 308 0 262 1;
#X connect 309 0 414 0;
#X connect 309 1 313 0;
#X connect 310 0 414 0;
#X connect 310 1 314 0;
#X connect 311 0 414 0;
#X connect 311 1 315 0;
#X connect 312 0 316 0;
#X connect 312 1 317 0;
#X connect 312 2 318 0;
#X connect 312 3 319 0;
#X connect 312 4 320 0;
#X connect 312 5 308 0;
#X connect 313 0 262 1;
#X connect 314 0 262 1;
#X connect 315 0 262 1;
#X connect 316 0 414 0;
#X connect 317 0 306 0;
#X connect 318 0 309 0;
#X connect 319 0 310 0;
#X connect 320 0 311 0;
#X connect 321 0 262 1;
#X connect 322 0 415 0;
#X connect 322 1 323 0;
#X connect 323 0 262 1;
#X connect 324 0 415 0;
#X connect 324 1 325 0;
#X connect 325 0 262 1;
#X connect 326 0 415 0;
#X connect 326 1 327 0;
#X connect 327 0 262 1;
#X connect 328 0 415 0;
#X connect 328 1 329 0;
#X connect 329 0 262 1;
#X connect 330 0 331 0;
#X connect 330 1 332 0;
#X connect 330 2 333 0;
#X connect 330 3 334 0;
#X connect 330 4 335 0;
#X connect 330 5 321 0;
#X connect 331 0 415 0;
#X connect 332 0 322 0;
#X connect 333 0 324 0;
#X connect 334 0 326 0;
#X connect 335 0 328 0;
#X connect 336 0 337 1;
#X connect 337 0 511 0;
#X connect 338 0 417 0;
#X connect 339 0 340 0;
#X connect 340 0 416 0;
#X connect 340 1 341 0;
#X connect 341 0 337 1;
#X connect 342 0 417 0;
#X connect 342 1 343 0;
#X connect 343 0 337 1;
#X connect 344 0 416 0;
#X connect 344 1 345 0;
#X connect 345 0 337 1;
#X connect 346 0 344 0;
#X connect 347 0 416 0;
#X connect 347 1 348 0;
#X connect 348 0 337 1;
#X connect 349 0 347 0;
#X connect 350 0 416 0;
#X connect 350 1 351 0;
#X connect 351 0 337 1;
#X connect 352 0 350 0;
#X connect 353 0 416 0;
#X connect 353 1 339 0;
#X connect 353 2 346 0;
#X connect 353 3 349 0;
#X connect 353 4 352 0;
#X connect 353 5 336 0;
#X connect 354 0 337 1;
#X connect 355 0 417 0;
#X connect 355 1 363 0;
#X connect 356 0 417 0;
#X connect 356 1 364 0;
#X connect 357 0 417 0;
#X connect 357 1 365 0;
#X connect 358 0 342 0;
#X connect 359 0 355 0;
#X connect 360 0 356 0;
#X connect 361 0 357 0;
#X connect 362 0 338 0;
#X connect 362 1 358 0;
#X connect 362 2 359 0;
#X connect 362 3 360 0;
#X connect 362 4 361 0;
#X connect 362 5 354 0;
#X connect 363 0 337 1;
#X connect 364 0 337 1;
#X connect 365 0 337 1;
#X connect 366 0 418 0;
#X connect 366 1 367 0;
#X connect 367 0 337 1;
#X connect 368 0 337 1;
#X connect 369 0 418 0;
#X connect 369 1 373 0;
#X connect 370 0 418 0;
#X connect 370 1 374 0;
#X connect 371 0 418 0;
#X connect 371 1 375 0;
#X connect 372 0 376 0;
#X connect 372 1 377 0;
#X connect 372 2 378 0;
#X connect 372 3 379 0;
#X connect 372 4 380 0;
#X connect 372 5 368 0;
#X connect 373 0 337 1;
#X connect 374 0 337 1;
#X connect 375 0 337 1;
#X connect 376 0 418 0;
#X connect 377 0 366 0;
#X connect 378 0 369 0;
#X connect 379 0 370 0;
#X connect 380 0 371 0;
#X connect 381 0 419 0;
#X connect 381 1 382 0;
#X connect 382 0 337 1;
#X connect 383 0 337 1;
#X connect 384 0 419 0;
#X connect 384 1 388 0;
#X connect 385 0 419 0;
#X connect 385 1 389 0;
#X connect 386 0 419 0;
#X connect 386 1 390 0;
#X connect 387 0 391 0;
#X connect 387 1 392 0;
#X connect 387 2 393 0;
#X connect 387 3 394 0;
#X connect 387 4 395 0;
#X connect 387 5 383 0;
#X connect 388 0 337 1;
#X connect 389 0 337 1;
#X connect 390 0 337 1;
#X connect 391 0 419 0;
#X connect 392 0 381 0;
#X connect 393 0 384 0;
#X connect 394 0 385 0;
#X connect 395 0 386 0;
#X connect 396 0 337 1;
#X connect 397 0 420 0;
#X connect 397 1 398 0;
#X connect 398 0 337 1;
#X connect 399 0 420 0;
#X connect 399 1 400 0;
#X connect 400 0 337 1;
#X connect 401 0 420 0;
#X connect 401 1 402 0;
#X connect 402 0 337 1;
#X connect 403 0 420 0;
#X connect 403 1 404 0;
#X connect 404 0 337 1;
#X connect 405 0 406 0;
#X connect 405 1 407 0;
#X connect 405 2 408 0;
#X connect 405 3 409 0;
#X connect 405 4 410 0;
#X connect 405 5 396 0;
#X connect 406 0 420 0;
#X connect 407 0 397 0;
#X connect 408 0 399 0;
#X connect 409 0 401 0;
#X connect 410 0 403 0;
#X connect 411 0 262 0;
#X connect 412 0 262 0;
#X connect 413 0 262 0;
#X connect 414 0 262 0;
#X connect 415 0 262 0;
#X connect 416 0 337 0;
#X connect 417 0 337 0;
#X connect 418 0 337 0;
#X connect 419 0 337 0;
#X connect 420 0 337 0;
#X connect 421 0 423 1;
#X connect 422 0 502 0;
#X connect 423 0 511 0;
#X connect 424 0 498 0;
#X connect 425 0 426 0;
#X connect 426 0 497 0;
#X connect 426 1 427 0;
#X connect 427 0 423 1;
#X connect 428 0 498 0;
#X connect 428 1 429 0;
#X connect 429 0 423 1;
#X connect 430 0 497 0;
#X connect 430 1 431 0;
#X connect 431 0 423 1;
#X connect 432 0 430 0;
#X connect 433 0 497 0;
#X connect 433 1 434 0;
#X connect 434 0 423 1;
#X connect 435 0 433 0;
#X connect 436 0 497 0;
#X connect 436 1 437 0;
#X connect 437 0 423 1;
#X connect 438 0 436 0;
#X connect 439 0 497 0;
#X connect 439 1 425 0;
#X connect 439 2 432 0;
#X connect 439 3 435 0;
#X connect 439 4 438 0;
#X connect 439 5 421 0;
#X connect 440 0 423 1;
#X connect 441 0 498 0;
#X connect 441 1 449 0;
#X connect 442 0 498 0;
#X connect 442 1 450 0;
#X connect 443 0 498 0;
#X connect 443 1 451 0;
#X connect 444 0 428 0;
#X connect 445 0 441 0;
#X connect 446 0 442 0;
#X connect 447 0 443 0;
#X connect 448 0 424 0;
#X connect 448 1 444 0;
#X connect 448 2 445 0;
#X connect 448 3 446 0;
#X connect 448 4 447 0;
#X connect 448 5 440 0;
#X connect 449 0 423 1;
#X connect 450 0 423 1;
#X connect 451 0 423 1;
#X connect 452 0 499 0;
#X connect 452 1 453 0;
#X connect 453 0 423 1;
#X connect 454 0 423 1;
#X connect 455 0 499 0;
#X connect 455 1 459 0;
#X connect 456 0 499 0;
#X connect 456 1 460 0;
#X connect 457 0 499 0;
#X connect 457 1 461 0;
#X connect 458 0 462 0;
#X connect 458 1 463 0;
#X connect 458 2 464 0;
#X connect 458 3 465 0;
#X connect 458 4 466 0;
#X connect 458 5 454 0;
#X connect 459 0 423 1;
#X connect 460 0 423 1;
#X connect 461 0 423 1;
#X connect 462 0 499 0;
#X connect 463 0 452 0;
#X connect 464 0 455 0;
#X connect 465 0 456 0;
#X connect 466 0 457 0;
#X connect 467 0 500 0;
#X connect 467 1 468 0;
#X connect 468 0 423 1;
#X connect 469 0 423 1;
#X connect 470 0 500 0;
#X connect 470 1 474 0;
#X connect 471 0 500 0;
#X connect 471 1 475 0;
#X connect 472 0 500 0;
#X connect 472 1 476 0;
#X connect 473 0 477 0;
#X connect 473 1 478 0;
#X connect 473 2 479 0;
#X connect 473 3 480 0;
#X connect 473 4 481 0;
#X connect 473 5 469 0;
#X connect 474 0 423 1;
#X connect 475 0 423 1;
#X connect 476 0 423 1;
#X connect 477 0 500 0;
#X connect 478 0 467 0;
#X connect 479 0 470 0;
#X connect 480 0 471 0;
#X connect 481 0 472 0;
#X connect 482 0 423 1;
#X connect 483 0 501 0;
#X connect 483 1 484 0;
#X connect 484 0 423 1;
#X connect 485 0 501 0;
#X connect 485 1 486 0;
#X connect 486 0 423 1;
#X connect 487 0 501 0;
#X connect 487 1 488 0;
#X connect 488 0 423 1;
#X connect 489 0 501 0;
#X connect 489 1 490 0;
#X connect 490 0 423 1;
#X connect 491 0 492 0;
#X connect 491 1 493 0;
#X connect 491 2 494 0;
#X connect 491 3 495 0;
#X connect 491 4 496 0;
#X connect 491 5 482 0;
#X connect 492 0 501 0;
#X connect 493 0 483 0;
#X connect 494 0 485 0;
#X connect 495 0 487 0;
#X connect 496 0 489 0;
#X connect 497 0 423 0;
#X connect 498 0 423 0;
#X connect 499 0 423 0;
#X connect 500 0 423 0;
#X connect 501 0 423 0;
#X connect 502 0 543 0;
#X connect 507 0 510 0;
#X connect 508 0 510 0;
#X connect 509 0 510 0;
#X connect 510 0 120 0;
#X connect 510 1 129 0;
#X connect 510 2 139 0;
#X connect 510 3 156 0;
#X connect 510 4 175 0;
#X connect 510 5 507 0;
#X connect 510 6 508 0;
#X connect 510 7 509 0;
#X connect 511 0 422 0;
#X connect 512 0 198 0;
#X connect 512 1 207 0;
#X connect 512 2 217 0;
#X connect 512 3 232 0;
#X connect 512 4 250 0;
#X connect 512 5 513 0;
#X connect 512 6 514 0;
#X connect 512 7 515 0;
#X connect 513 0 512 0;
#X connect 514 0 512 0;
#X connect 515 0 512 0;
#X connect 516 0 519 0;
#X connect 517 0 519 0;
#X connect 518 0 519 0;
#X connect 519 0 278 0;
#X connect 519 1 287 0;
#X connect 519 2 297 0;
#X connect 519 3 312 0;
#X connect 519 4 330 0;
#X connect 519 5 516 0;
#X connect 519 6 517 0;
#X connect 519 7 518 0;
#X connect 520 0 353 0;
#X connect 520 1 362 0;
#X connect 520 2 372 0;
#X connect 520 3 387 0;
#X connect 520 4 405 0;
#X connect 520 5 521 0;
#X connect 520 6 522 0;
#X connect 520 7 523 0;
#X connect 521 0 520 0;
#X connect 522 0 520 0;
#X connect 523 0 520 0;
#X connect 524 0 439 0;
#X connect 524 1 448 0;
#X connect 524 2 458 0;
#X connect 524 3 473 0;
#X connect 524 4 491 0;
#X connect 524 5 525 0;
#X connect 524 6 526 0;
#X connect 524 7 527 0;
#X connect 525 0 524 0;
#X connect 526 0 524 0;
#X connect 527 0 524 0;
#X connect 528 0 531 0;
#X connect 528 0 532 0;
#X connect 528 0 533 0;
#X connect 529 0 88 0;
#X connect 530 0 86 0;
#X connect 531 0 560 0;
#X connect 532 0 565 0;
#X connect 533 0 570 0;
#X connect 534 0 90 0;
#X connect 535 0 534 1;
#X connect 535 0 87 1;
#X connect 536 0 535 1;
#X connect 537 0 569 0;
#X connect 537 1 536 0;
#X connect 538 0 90 0;
#X connect 539 0 538 1;
#X connect 540 0 539 1;
#X connect 540 0 544 1;
#X connect 541 0 539 0;
#X connect 541 0 544 0;
#X connect 542 0 539 1;
#X connect 543 0 90 0;
#X connect 544 0 543 1;
#X connect 545 0 544 1;
#X connect 546 0 544 0;
#X connect 547 0 561 0;
#X connect 548 0 561 0;
#X connect 549 0 561 0;
#X connect 550 0 47 0;
#X connect 551 0 535 0;
#X connect 552 0 551 0;
#X connect 553 0 528 0;
#X connect 554 0 538 1;
#X connect 555 0 554 0;
#X connect 556 0 543 1;
#X connect 557 0 556 0;
#X connect 558 0 535 1;
#X connect 559 0 535 0;
#X connect 560 0 10 0;
#X connect 560 1 564 0;
#X connect 560 2 542 0;
#X connect 560 3 550 0;
#X connect 560 5 566 0;
#X connect 561 0 538 0;
#X connect 562 0 10 0;
#X connect 562 0 530 0;
#X connect 562 0 529 0;
#X connect 563 0 562 0;
#X connect 564 0 539 0;
#X connect 565 0 530 0;
#X connect 565 1 537 0;
#X connect 566 0 559 0;
#X connect 566 1 558 0;
#X connect 566 2 568 0;
#X connect 566 3 567 0;
#X connect 567 0 544 1;
#X connect 568 0 544 0;
#X connect 569 0 535 0;
#X connect 570 0 546 0;
#X connect 570 1 541 0;
#X connect 570 2 540 0;
#X connect 570 3 545 0;
#X connect 570 4 529 0;
#X connect 570 5 559 0;
#X connect 570 6 558 0;
