#N canvas 887 51 2356 1266 12;
#X obj 946 971 *~;
#X obj 946 1021 dac~;
#X floatatom 964 904 4 0 1 0 - - - 0;
#X obj 487 465 osc~;
#X obj 487 277 line;
#X obj 487 304 vsl 15 128 0 127 0 0 empty empty empty 0 -9 0 10 #fcfcfc
#000000 #000000 0 1;
#X floatatom 487 441 5 0 0 0 - - - 0;
#X obj 487 223 bng 15 250 50 0 empty empty empty 17 7 0 10 #fcfcfc
#000000 #000000;
#X obj 151 276 line;
#X obj 151 303 vsl 15 128 0 127 0 0 empty empty empty 0 -9 0 10 #fcfcfc
#000000 #000000 0 1;
#X floatatom 151 440 5 0 0 0 - - - 0;
#X obj 151 224 bng 15 250 50 0 empty empty empty 17 7 0 10 #fcfcfc
#000000 #000000;
#X obj 675 65 bng 15 250 50 0 empty empty empty 17 7 0 10 #fcfcfc #000000
#000000;
#X obj 1121 471 noise~;
#X obj 1178 489 bp~;
#X obj 1335 180 bng 15 250 50 0 empty empty empty 17 7 0 10 #fcfcfc
#000000 #000000;
#X obj 1335 752 line~;
#X obj 1187 270 line;
#X obj 1187 297 vsl 15 128 0 127 0 0 empty empty empty 0 -9 0 10 #fcfcfc
#000000 #000000 0 1;
#X floatatom 1187 434 5 0 0 0 - - - 0;
#X obj 1187 216 bng 15 250 50 0 empty empty empty 17 7 0 10 #fcfcfc
#000000 #000000;
#X obj 977 971 *~;
#X obj 151 465 phasor~;
#X obj 558 217 delay 170;
#X obj 1263 214 delay 170;
#X obj 1335 241 delay 150;
#X obj 1411 241 delay 180;
#X msg 1196 463 5;
#X obj 151 726 *~;
#X obj 964 854 loadbang;
#X obj 487 556 *~;
#X obj 808 455 osc~;
#X obj 808 267 line;
#X obj 808 294 vsl 15 128 0 127 0 0 empty empty empty 0 -9 0 10 #fcfcfc
#000000 #000000 0 1;
#X floatatom 808 431 5 0 0 0 - - - 0;
#X obj 808 213 bng 15 250 50 0 empty empty empty 17 7 0 10 #fcfcfc
#000000 #000000;
#X obj 879 207 delay 170;
#X obj 808 546 *~;
#X msg 487 243 440 150;
#X msg 808 233 880 150;
#X obj 1463 469 noise~;
#X obj 1520 487 bp~;
#X obj 1677 178 bng 15 250 50 0 empty empty empty 17 7 0 10 #fcfcfc
#000000 #000000;
#X obj 1677 752 line~;
#X obj 1529 268 line;
#X obj 1529 295 vsl 15 128 0 127 0 0 empty empty empty 0 -9 0 10 #fcfcfc
#000000 #000000 0 1;
#X floatatom 1529 432 5 0 0 0 - - - 0;
#X obj 1529 214 bng 15 250 50 0 empty empty empty 17 7 0 10 #fcfcfc
#000000 #000000;
#X obj 1605 212 delay 170;
#X obj 1677 239 delay 150;
#X obj 1753 239 delay 180;
#X msg 1538 461 5;
#X msg 1529 238 5000 150;
#X msg 1187 240 4500 150;
#X msg 558 243 0 30;
#X msg 220 244 0 50;
#X msg 879 233 0 50;
#X msg 1263 240 0 20;
#X msg 1411 265 0 20;
#X msg 1605 238 0 20;
#X msg 1753 263 0 20;
#X obj 307 199 bng 15 250 50 0 empty empty empty 17 7 0 10 #fcfcfc
#000000 #000000;
#X obj 307 626 line~;
#X msg 363 224 0 20;
#X obj 647 199 bng 15 250 50 0 empty empty empty 17 7 0 10 #fcfcfc
#000000 #000000;
#X obj 647 536 line~;
#X obj 709 200 delay 180;
#X msg 709 224 0 20;
#X obj 968 199 bng 15 250 50 0 empty empty empty 17 7 0 10 #fcfcfc
#000000 #000000;
#X obj 968 528 line~;
#X obj 1031 200 delay 180;
#X msg 1031 224 0 20;
#X obj 455 131 t b b;
#X obj 417 157 delay 100;
#X obj 675 21 loadbang;
#X obj 150 557 bp~;
#X floatatom 159 502 5 0 0 0 - - - 0;
#X msg 211 502 414;
#X obj 211 478 loadbang;
#X obj 486 518 hip~;
#X floatatom 526 494 5 0 0 0 - - - 0;
#X msg 151 244 100 150;
#X msg 1677 262 0.003 20;
#X msg 168 531 20;
#X obj 807 504 hip~;
#X floatatom 847 480 5 0 0 0 - - - 0;
#X floatatom 191 603 5 0 0 0 - - - 0;
#X obj 151 627 lop~;
#X floatatom 1192 621 5 0 0 0 - - - 0;
#X obj 1152 645 lop~;
#X msg 968 224 0.01 20;
#X floatatom 1477 607 5 0 0 0 - - - 0;
#X obj 1439 638 lop~;
#X obj 151 677 hip~;
#X floatatom 191 653 5 0 0 0 - - - 0;
#X msg 647 224 0.02 20;
#X obj 220 218 delay 290;
#X obj 363 200 delay 250;
#X msg 1335 265 0.004 20;
#X msg 964 878 1.5;
#X msg 307 224 0.08 20;
#X connect 0 0 1 0;
#X connect 0 0 1 1;
#X connect 2 0 0 1;
#X connect 3 0 79 0;
#X connect 4 0 5 0;
#X connect 5 0 6 0;
#X connect 6 0 3 0;
#X connect 7 0 38 0;
#X connect 7 0 23 0;
#X connect 7 0 64 0;
#X connect 8 0 9 0;
#X connect 9 0 10 0;
#X connect 10 0 22 0;
#X connect 11 0 81 0;
#X connect 11 0 61 0;
#X connect 11 0 96 0;
#X connect 12 0 20 0;
#X connect 12 0 47 0;
#X connect 12 0 72 0;
#X connect 12 0 35 0;
#X connect 13 0 14 0;
#X connect 14 0 89 0;
#X connect 15 0 26 0;
#X connect 15 0 25 0;
#X connect 16 0 21 1;
#X connect 17 0 18 0;
#X connect 18 0 19 0;
#X connect 19 0 14 1;
#X connect 20 0 53 0;
#X connect 20 0 15 0;
#X connect 20 0 24 0;
#X connect 21 0 1 0;
#X connect 21 0 1 1;
#X connect 22 0 75 0;
#X connect 23 0 54 0;
#X connect 24 0 57 0;
#X connect 25 0 98 0;
#X connect 26 0 58 0;
#X connect 27 0 14 2;
#X connect 29 0 99 0;
#X connect 30 0 0 0;
#X connect 31 0 84 0;
#X connect 32 0 33 0;
#X connect 33 0 34 0;
#X connect 34 0 31 0;
#X connect 35 0 39 0;
#X connect 35 0 36 0;
#X connect 35 0 68 0;
#X connect 36 0 56 0;
#X connect 37 0 0 0;
#X connect 38 0 4 0;
#X connect 39 0 32 0;
#X connect 40 0 41 0;
#X connect 41 0 92 0;
#X connect 42 0 50 0;
#X connect 42 0 49 0;
#X connect 43 0 21 1;
#X connect 44 0 45 0;
#X connect 45 0 46 0;
#X connect 46 0 41 1;
#X connect 47 0 52 0;
#X connect 47 0 42 0;
#X connect 47 0 48 0;
#X connect 48 0 59 0;
#X connect 49 0 82 0;
#X connect 50 0 60 0;
#X connect 51 0 41 2;
#X connect 52 0 44 0;
#X connect 53 0 17 0;
#X connect 54 0 4 0;
#X connect 55 0 8 0;
#X connect 56 0 32 0;
#X connect 57 0 17 0;
#X connect 58 0 16 0;
#X connect 59 0 44 0;
#X connect 60 0 43 0;
#X connect 61 0 100 0;
#X connect 61 0 97 0;
#X connect 62 0 28 1;
#X connect 63 0 62 0;
#X connect 64 0 66 0;
#X connect 64 0 95 0;
#X connect 65 0 30 1;
#X connect 66 0 67 0;
#X connect 67 0 65 0;
#X connect 68 0 70 0;
#X connect 68 0 90 0;
#X connect 69 0 37 1;
#X connect 70 0 71 0;
#X connect 71 0 69 0;
#X connect 72 0 73 0;
#X connect 72 1 7 0;
#X connect 73 0 7 0;
#X connect 74 0 12 0;
#X connect 75 0 87 0;
#X connect 76 0 75 1;
#X connect 77 0 76 0;
#X connect 78 0 77 0;
#X connect 79 0 30 0;
#X connect 80 0 79 1;
#X connect 81 0 8 0;
#X connect 82 0 43 0;
#X connect 83 0 75 2;
#X connect 84 0 37 0;
#X connect 85 0 84 1;
#X connect 86 0 87 1;
#X connect 87 0 93 0;
#X connect 88 0 89 1;
#X connect 89 0 21 0;
#X connect 90 0 69 0;
#X connect 91 0 92 1;
#X connect 92 0 21 0;
#X connect 93 0 28 0;
#X connect 94 0 93 1;
#X connect 95 0 65 0;
#X connect 96 0 55 0;
#X connect 97 0 63 0;
#X connect 98 0 16 0;
#X connect 99 0 2 0;
#X connect 100 0 62 0;
