#N canvas 512 6 530 794 12;
#X obj 42 654 osc~;
#X obj 200 751 dac~;
#X obj 105 444 vsl 15 128 50 200 0 0 empty empty empty 0 -9 0 10 #fcfcfc
#000000 #000000 0 1;
#X obj 42 582 + 100;
#X obj 147 581 + 828;
#X floatatom 42 606 5 0 0 0 - - - 0;
#X floatatom 147 605 5 0 0 0 - - - 0;
#X obj 42 629 * 6;
#X obj 147 628 + 302;
#X obj 147 654 osc~;
#X obj 105 418 line;
#X obj 85 286 t b b;
#X obj 39 325 random 200;
#X obj 85 257 metro 200;
#X obj 79 141 bng 15 250 50 0 empty empty empty 17 7 0 10 #fcfcfc #000000
#000000;
#X obj 117 325 random 200;
#X obj 212 358 random 50;
#X floatatom 212 382 5 0 0 0 - - - 0;
#X obj 212 333 metro 1000;
#X obj 211 406 < 25;
#X floatatom 211 430 5 0 0 0 - - - 0;
#X obj 211 453 sel 1;
#X obj 211 477 bng 15 250 50 0 empty empty empty 17 7 0 10 #fcfcfc
#000000 #000000;
#X obj 211 497 t b b;
#X obj 252 608 line~;
#X msg 211 519 0;
#X floatatom 282 430 5 0 0 0 - - - 0;
#X obj 282 453 sel 1;
#X obj 282 477 bng 15 250 50 0 empty empty empty 17 7 0 10 #fcfcfc
#000000 #000000;
#X obj 282 497 t b b;
#X msg 314 521 10;
#X msg 282 521 0.5;
#X obj 282 406 > 25;
#X obj 204 696 *~;
#X msg 243 520 2000;
#X floatatom 382 382 5 0 0 0 - - - 0;
#X obj 382 333 metro 1000;
#X floatatom 381 430 5 0 0 0 - - - 0;
#X obj 381 453 sel 1;
#X obj 381 497 t b b;
#X floatatom 452 430 5 0 0 0 - - - 0;
#X obj 452 453 sel 1;
#X obj 452 477 bng 15 250 50 0 empty empty empty 17 7 0 10 #fcfcfc
#000000 #000000;
#X obj 452 497 t b b;
#X obj 206 721 *~;
#X obj 415 601 line~;
#X obj 382 358 random 200;
#X obj 381 406 < 130;
#X obj 452 406 > 130;
#X msg 380 521 0.5;
#X msg 452 521 0;
#X obj 67 98 loadbang;
#X msg 412 520 2000;
#X msg 484 521 200;
#X connect 0 0 33 0;
#X connect 2 0 3 0;
#X connect 2 0 4 0;
#X connect 3 0 5 0;
#X connect 4 0 6 0;
#X connect 5 0 7 0;
#X connect 6 0 8 0;
#X connect 7 0 0 0;
#X connect 8 0 9 0;
#X connect 9 0 33 0;
#X connect 10 0 2 0;
#X connect 11 0 12 0;
#X connect 11 1 15 0;
#X connect 12 0 10 0;
#X connect 13 0 11 0;
#X connect 14 0 13 0;
#X connect 14 0 18 0;
#X connect 14 0 36 0;
#X connect 15 0 10 1;
#X connect 16 0 17 0;
#X connect 17 0 19 0;
#X connect 17 0 32 0;
#X connect 18 0 16 0;
#X connect 19 0 20 0;
#X connect 20 0 21 0;
#X connect 21 0 22 0;
#X connect 22 0 23 0;
#X connect 23 0 25 0;
#X connect 23 1 34 0;
#X connect 24 0 33 1;
#X connect 25 0 24 0;
#X connect 26 0 27 0;
#X connect 27 0 28 0;
#X connect 28 0 29 0;
#X connect 29 0 31 0;
#X connect 29 1 30 0;
#X connect 30 0 24 1;
#X connect 31 0 24 0;
#X connect 32 0 26 0;
#X connect 33 0 44 0;
#X connect 34 0 24 1;
#X connect 35 0 47 0;
#X connect 35 0 48 0;
#X connect 36 0 46 0;
#X connect 37 0 38 0;
#X connect 38 0 39 0;
#X connect 39 0 49 0;
#X connect 39 1 52 0;
#X connect 40 0 41 0;
#X connect 41 0 42 0;
#X connect 42 0 43 0;
#X connect 43 0 50 0;
#X connect 43 1 53 0;
#X connect 44 0 1 0;
#X connect 45 0 44 1;
#X connect 46 0 35 0;
#X connect 47 0 37 0;
#X connect 48 0 40 0;
#X connect 49 0 45 0;
#X connect 50 0 45 0;
#X connect 51 0 14 0;
#X connect 52 0 45 1;
#X connect 53 0 45 1;
