#N canvas 1044 7 737 794 12;
#X obj 275 506 + 670;
#X floatatom 225 531 5 0 0 0 - - - 0;
#X floatatom 275 530 5 0 0 0 - - - 0;
#X obj 275 556 + 35;
#X obj 249 366 vsl 15 128 50 200 0 0 empty empty empty 0 -9 0 10 #fcfcfc
#000000 #000000 0 1;
#X obj 225 554 * 5;
#X obj 249 315 line;
#X obj 229 183 t b b;
#X obj 183 222 random 200;
#X obj 229 154 metro 320;
#X obj 51 197 random 50;
#X floatatom 51 221 5 0 0 0 - - - 0;
#X obj 51 172 metro 1000;
#X obj 50 245 < 25;
#X floatatom 50 269 5 0 0 0 - - - 0;
#X obj 50 292 sel 1;
#X obj 50 316 bng 15 250 50 0 empty empty empty 17 7 0 10 #fcfcfc #000000
#000000;
#X obj 50 336 t b b;
#X obj 91 447 line~;
#X msg 50 358 0;
#X floatatom 121 269 5 0 0 0 - - - 0;
#X obj 121 292 sel 1;
#X obj 121 316 bng 15 250 50 0 empty empty empty 17 7 0 10 #fcfcfc
#000000 #000000;
#X obj 121 336 t b b;
#X msg 121 360 0.5;
#X obj 121 245 > 25;
#X obj 73 638 *~;
#X msg 153 360 10;
#X msg 82 359 2000;
#X obj 188 577 phasor~;
#X obj 275 579 phasor~;
#X obj 225 507 + 100;
#X obj 83 71 bng 15 250 50 0 empty empty empty 17 7 0 10 #fcfcfc #000000
#000000;
#X obj 72 692 dac~;
#X obj 261 222 random 2000;
#X floatatom 382 382 5 0 0 0 - - - 0;
#X obj 382 333 metro 1000;
#X floatatom 381 430 5 0 0 0 - - - 0;
#X obj 381 453 sel 1;
#X obj 381 497 t b b;
#X floatatom 452 430 5 0 0 0 - - - 0;
#X obj 452 453 sel 1;
#X obj 452 477 bng 15 250 50 0 empty empty empty 17 7 0 10 #fcfcfc
#000000 #000000;
#X obj 452 497 t b b;
#X obj 415 601 line~;
#X obj 382 358 random 200;
#X obj 381 406 < 130;
#X obj 452 406 > 130;
#X msg 380 521 0.5;
#X msg 452 521 0;
#X obj 73 662 *~;
#X obj 68 41 loadbang;
#X msg 484 521 200;
#X msg 411 520 2000;
#X connect 0 0 2 0;
#X connect 1 0 5 0;
#X connect 2 0 3 0;
#X connect 3 0 30 0;
#X connect 4 0 0 0;
#X connect 4 0 31 0;
#X connect 5 0 29 0;
#X connect 6 0 4 0;
#X connect 7 0 8 0;
#X connect 7 1 34 0;
#X connect 8 0 6 0;
#X connect 9 0 7 0;
#X connect 10 0 11 0;
#X connect 11 0 13 0;
#X connect 11 0 25 0;
#X connect 12 0 10 0;
#X connect 13 0 14 0;
#X connect 14 0 15 0;
#X connect 15 0 16 0;
#X connect 16 0 17 0;
#X connect 17 0 19 0;
#X connect 17 1 28 0;
#X connect 18 0 26 1;
#X connect 19 0 18 0;
#X connect 20 0 21 0;
#X connect 21 0 22 0;
#X connect 22 0 23 0;
#X connect 23 0 24 0;
#X connect 23 1 27 0;
#X connect 24 0 18 0;
#X connect 25 0 20 0;
#X connect 26 0 50 0;
#X connect 27 0 18 1;
#X connect 28 0 18 1;
#X connect 29 0 26 0;
#X connect 30 0 26 0;
#X connect 31 0 1 0;
#X connect 32 0 12 0;
#X connect 32 0 9 0;
#X connect 32 0 36 0;
#X connect 34 0 6 1;
#X connect 35 0 46 0;
#X connect 35 0 47 0;
#X connect 36 0 45 0;
#X connect 37 0 38 0;
#X connect 38 0 39 0;
#X connect 39 0 48 0;
#X connect 39 1 53 0;
#X connect 40 0 41 0;
#X connect 41 0 42 0;
#X connect 42 0 43 0;
#X connect 43 0 49 0;
#X connect 43 1 52 0;
#X connect 44 0 50 1;
#X connect 45 0 35 0;
#X connect 46 0 37 0;
#X connect 47 0 40 0;
#X connect 48 0 44 0;
#X connect 49 0 44 0;
#X connect 50 0 33 0;
#X connect 51 0 32 0;
#X connect 52 0 44 1;
#X connect 53 0 44 1;
