#N canvas 111 245 1796 593 12;
#X obj 660 898 dac~;
#X obj 702 8 bng 15 250 50 0 empty empty empty 17 7 0 10 #fcfcfc #000000
#000000;
#X obj 450 131 delay 25;
#X obj 314 660 osc~;
#X floatatom 366 336 5 0 0 0 - - - 0;
#X obj 346 570 osc~;
#X floatatom 314 603 5 0 0 0 - - - 0;
#X obj 358 602 *~;
#X floatatom 409 364 5 0 0 0 - - - 0;
#X obj 314 629 +~;
#X msg 367 177 0;
#X obj 366 312 line;
#X obj 409 341 line;
#X msg 402 176 20;
#X obj 365 365 vsl 15 128 0 2 0 0 empty empty empty 0 -9 0 10 #fcfcfc
#000000 #000000 0 1;
#X obj 410 388 vsl 15 128 0 10 0 0 empty empty empty 0 -9 0 10 #fcfcfc
#000000 #000000 0 1;
#X obj 450 155 t b b b;
#X msg 472 178 10;
#X msg 505 178 3975;
#X msg 440 177 4;
#X msg 333 177 880;
#X obj 659 866 *~;
#X obj 684 132 delay 25;
#X obj 548 661 osc~;
#X floatatom 600 337 5 0 0 0 - - - 0;
#X obj 580 571 osc~;
#X floatatom 548 604 5 0 0 0 - - - 0;
#X obj 592 603 *~;
#X floatatom 643 365 5 0 0 0 - - - 0;
#X obj 548 630 +~;
#X msg 601 178 0;
#X obj 600 313 line;
#X obj 643 342 line;
#X msg 636 177 20;
#X obj 599 366 vsl 15 128 0 2 0 0 empty empty empty 0 -9 0 10 #fcfcfc
#000000 #000000 0 1;
#X obj 644 389 vsl 15 128 0 10 0 0 empty empty empty 0 -9 0 10 #fcfcfc
#000000 #000000 0 1;
#X obj 684 156 t b b b;
#X msg 706 179 10;
#X msg 739 179 3975;
#X msg 674 178 4;
#X msg 551 178 1046.5;
#X obj 898 126 delay 25;
#X obj 784 665 osc~;
#X floatatom 836 341 5 0 0 0 - - - 0;
#X obj 816 575 osc~;
#X floatatom 784 608 5 0 0 0 - - - 0;
#X obj 828 607 *~;
#X floatatom 879 369 5 0 0 0 - - - 0;
#X obj 784 634 +~;
#X msg 837 182 0;
#X obj 836 317 line;
#X obj 879 346 line;
#X msg 872 181 20;
#X obj 835 370 vsl 15 128 0 2 0 0 empty empty empty 0 -9 0 10 #fcfcfc
#000000 #000000 0 1;
#X obj 880 393 vsl 15 128 0 10 0 0 empty empty empty 0 -9 0 10 #fcfcfc
#000000 #000000 0 1;
#X obj 898 150 t b b b;
#X msg 930 181 10;
#X msg 898 180 4;
#X msg 781 181 1318.51;
#X msg 1301 187 0;
#X obj 1301 141 delay 4000;
#X obj 1301 165 t b b;
#X obj 1120 139 delay 25;
#X obj 984 668 osc~;
#X floatatom 1036 344 5 0 0 0 - - - 0;
#X obj 1016 578 osc~;
#X floatatom 984 611 5 0 0 0 - - - 0;
#X obj 1028 610 *~;
#X floatatom 1079 372 5 0 0 0 - - - 0;
#X obj 984 637 +~;
#X msg 1037 185 0;
#X obj 1036 320 line;
#X obj 1079 349 line;
#X msg 1072 184 20;
#X obj 1035 373 vsl 15 128 0 2 0 0 empty empty empty 0 -9 0 10 #fcfcfc
#000000 #000000 0 1;
#X obj 1080 396 vsl 15 128 0 10 0 0 empty empty empty 0 -9 0 10 #fcfcfc
#000000 #000000 0 1;
#X obj 1120 163 t b b b;
#X msg 1142 186 10;
#X msg 1175 186 3975;
#X msg 1110 185 4;
#X obj 1282 668 line~;
#X msg 1233 188 0.5;
#X msg 1268 188 20;
#X obj 1224 152 t b b;
#X msg 981 184 1567.98;
#X obj 634 -15 loadbang;
#X obj 751 5 t b b b b b b b b b b b b b b b b b b;
#X msg 958 209 3975;
#X msg 1342 189 1000;
#X connect 1 0 86 0;
#X connect 2 0 16 0;
#X connect 3 0 21 0;
#X connect 4 0 14 0;
#X connect 5 0 7 0;
#X connect 6 0 9 0;
#X connect 7 0 9 1;
#X connect 8 0 15 0;
#X connect 9 0 3 0;
#X connect 10 0 11 0;
#X connect 10 0 12 0;
#X connect 11 0 4 0;
#X connect 12 0 8 0;
#X connect 13 0 11 1;
#X connect 13 0 12 1;
#X connect 14 0 5 0;
#X connect 15 0 7 1;
#X connect 16 0 19 0;
#X connect 16 1 17 0;
#X connect 16 2 18 0;
#X connect 17 0 12 0;
#X connect 18 0 11 1;
#X connect 18 0 12 1;
#X connect 19 0 11 0;
#X connect 20 0 6 0;
#X connect 21 0 0 0;
#X connect 22 0 36 0;
#X connect 23 0 21 0;
#X connect 24 0 34 0;
#X connect 25 0 27 0;
#X connect 26 0 29 0;
#X connect 27 0 29 1;
#X connect 28 0 35 0;
#X connect 29 0 23 0;
#X connect 30 0 31 0;
#X connect 30 0 32 0;
#X connect 31 0 24 0;
#X connect 32 0 28 0;
#X connect 33 0 31 1;
#X connect 33 0 32 1;
#X connect 34 0 25 0;
#X connect 35 0 27 1;
#X connect 36 0 39 0;
#X connect 36 1 37 0;
#X connect 36 2 38 0;
#X connect 37 0 32 0;
#X connect 38 0 31 1;
#X connect 38 0 32 1;
#X connect 39 0 31 0;
#X connect 40 0 26 0;
#X connect 41 0 55 0;
#X connect 42 0 21 0;
#X connect 43 0 53 0;
#X connect 44 0 46 0;
#X connect 45 0 48 0;
#X connect 46 0 48 1;
#X connect 47 0 54 0;
#X connect 48 0 42 0;
#X connect 49 0 50 0;
#X connect 49 0 51 0;
#X connect 50 0 43 0;
#X connect 51 0 47 0;
#X connect 52 0 50 1;
#X connect 52 0 51 1;
#X connect 53 0 44 0;
#X connect 54 0 46 1;
#X connect 55 0 57 0;
#X connect 55 1 56 0;
#X connect 55 2 87 0;
#X connect 56 0 51 0;
#X connect 57 0 50 0;
#X connect 58 0 45 0;
#X connect 59 0 80 0;
#X connect 60 0 61 0;
#X connect 61 0 59 0;
#X connect 61 1 88 0;
#X connect 62 0 76 0;
#X connect 63 0 21 0;
#X connect 64 0 74 0;
#X connect 65 0 67 0;
#X connect 66 0 69 0;
#X connect 67 0 69 1;
#X connect 68 0 75 0;
#X connect 69 0 63 0;
#X connect 70 0 71 0;
#X connect 70 0 72 0;
#X connect 71 0 64 0;
#X connect 72 0 68 0;
#X connect 73 0 71 1;
#X connect 73 0 72 1;
#X connect 74 0 65 0;
#X connect 75 0 67 1;
#X connect 76 0 79 0;
#X connect 76 1 77 0;
#X connect 76 2 78 0;
#X connect 77 0 72 0;
#X connect 78 0 71 1;
#X connect 78 0 72 1;
#X connect 79 0 71 0;
#X connect 80 0 21 1;
#X connect 81 0 80 0;
#X connect 82 0 80 1;
#X connect 83 0 81 0;
#X connect 83 1 82 0;
#X connect 84 0 66 0;
#X connect 85 0 1 0;
#X connect 86 0 20 0;
#X connect 86 1 10 0;
#X connect 86 2 13 0;
#X connect 86 3 2 0;
#X connect 86 4 40 0;
#X connect 86 5 30 0;
#X connect 86 6 33 0;
#X connect 86 7 22 0;
#X connect 86 8 58 0;
#X connect 86 9 49 0;
#X connect 86 10 52 0;
#X connect 86 11 41 0;
#X connect 86 12 84 0;
#X connect 86 13 70 0;
#X connect 86 14 73 0;
#X connect 86 15 62 0;
#X connect 86 16 83 0;
#X connect 86 17 60 0;
#X connect 87 0 50 1;
#X connect 87 0 51 1;
#X connect 88 0 80 1;
