#N canvas 430 26 1361 1041 12;
#X obj 660 898 dac~;
#X obj 536 31 bng 15 250 50 0 empty empty empty 17 7 0 10 #fcfcfc #000000
#000000;
#X msg 1252 286 0;
#X obj 160 238 delay 25;
#X obj 24 767 osc~;
#X floatatom 76 443 5 0 0 0 - - - 0;
#X obj 56 677 osc~;
#X floatatom 24 710 5 0 0 0 - - - 0;
#X obj 68 709 *~;
#X floatatom 119 471 5 0 0 0 - - - 0;
#X obj 24 736 +~;
#X msg 63 283 0;
#X msg 30 283 440;
#X obj 76 419 line;
#X obj 119 448 line;
#X msg 98 282 20;
#X obj 75 472 vsl 15 128 0 2 0 0 empty empty empty 0 -9 0 10 #fcfcfc
#000000 #000000 0 1;
#X obj 120 495 vsl 15 128 0 10 0 0 empty empty empty 0 -9 0 10 #fcfcfc
#000000 #000000 0 1;
#X obj 160 262 t b b b;
#X msg 182 285 10;
#X obj 1252 240 delay 4000;
#X msg 215 285 3975;
#X obj 1252 264 t b b;
#X msg 150 284 4;
#X msg 1285 286 1000;
#X obj 536 7 loadbang;
#X obj 394 239 delay 25;
#X obj 258 768 osc~;
#X floatatom 310 444 5 0 0 0 - - - 0;
#X obj 290 678 osc~;
#X floatatom 258 711 5 0 0 0 - - - 0;
#X obj 302 710 *~;
#X floatatom 353 472 5 0 0 0 - - - 0;
#X obj 258 737 +~;
#X msg 311 285 0;
#X obj 310 420 line;
#X obj 353 449 line;
#X msg 346 284 20;
#X obj 309 473 vsl 15 128 0 2 0 0 empty empty empty 0 -9 0 10 #fcfcfc
#000000 #000000 0 1;
#X obj 354 496 vsl 15 128 0 10 0 0 empty empty empty 0 -9 0 10 #fcfcfc
#000000 #000000 0 1;
#X obj 394 263 t b b b;
#X msg 416 286 10;
#X msg 449 286 3975;
#X msg 384 285 4;
#X msg 257 285 523.25;
#X obj 625 239 delay 25;
#X obj 489 768 osc~;
#X floatatom 541 444 5 0 0 0 - - - 0;
#X obj 521 678 osc~;
#X floatatom 489 711 5 0 0 0 - - - 0;
#X obj 533 710 *~;
#X floatatom 584 472 5 0 0 0 - - - 0;
#X obj 489 737 +~;
#X msg 550 286 0;
#X obj 541 420 line;
#X obj 584 449 line;
#X msg 581 287 20;
#X obj 540 473 vsl 15 128 0 2 0 0 empty empty empty 0 -9 0 10 #fcfcfc
#000000 #000000 0 1;
#X obj 585 496 vsl 15 128 0 10 0 0 empty empty empty 0 -9 0 10 #fcfcfc
#000000 #000000 0 1;
#X obj 625 263 t b b b;
#X msg 647 286 10;
#X msg 680 286 3975;
#X msg 615 285 4;
#X obj 856 240 delay 25;
#X obj 720 769 osc~;
#X floatatom 772 445 5 0 0 0 - - - 0;
#X obj 752 679 osc~;
#X floatatom 720 712 5 0 0 0 - - - 0;
#X obj 764 711 *~;
#X floatatom 815 473 5 0 0 0 - - - 0;
#X obj 720 738 +~;
#X msg 786 286 0;
#X obj 772 421 line;
#X obj 815 450 line;
#X msg 815 286 20;
#X obj 771 474 vsl 15 128 0 2 0 0 empty empty empty 0 -9 0 10 #fcfcfc
#000000 #000000 0 1;
#X obj 816 497 vsl 15 128 0 10 0 0 empty empty empty 0 -9 0 10 #fcfcfc
#000000 #000000 0 1;
#X obj 856 264 t b b b;
#X msg 878 287 10;
#X msg 911 287 3975;
#X msg 846 286 4;
#X obj 1087 241 delay 25;
#X obj 951 770 osc~;
#X floatatom 1003 446 5 0 0 0 - - - 0;
#X obj 983 680 osc~;
#X floatatom 951 713 5 0 0 0 - - - 0;
#X obj 995 712 *~;
#X floatatom 1046 474 5 0 0 0 - - - 0;
#X obj 951 739 +~;
#X msg 1004 287 0;
#X obj 1003 422 line;
#X obj 1046 451 line;
#X msg 1039 286 20;
#X obj 1002 475 vsl 15 128 0 2 0 0 empty empty empty 0 -9 0 10 #fcfcfc
#000000 #000000 0 1;
#X obj 1047 498 vsl 15 128 0 10 0 0 empty empty empty 0 -9 0 10 #fcfcfc
#000000 #000000 0 1;
#X obj 1087 265 t b b b;
#X msg 1109 288 10;
#X msg 1142 288 3975;
#X msg 1077 287 4;
#X msg 485 286 659.255;
#X msg 719 286 739.989;
#X msg 970 287 880;
#X obj 1233 767 line~;
#X msg 1185 286 0.5;
#X obj 1176 250 t b b;
#X obj 536 51 t b b b b b b b b b b b b b b b b b b b b b b;
#X obj 659 866 *~;
#X msg 1220 286 1;
#X connect 1 0 105 0;
#X connect 2 0 102 0;
#X connect 3 0 18 0;
#X connect 4 0 106 0;
#X connect 5 0 16 0;
#X connect 6 0 8 0;
#X connect 7 0 10 0;
#X connect 8 0 10 1;
#X connect 9 0 17 0;
#X connect 10 0 4 0;
#X connect 11 0 13 0;
#X connect 11 0 14 0;
#X connect 12 0 7 0;
#X connect 13 0 5 0;
#X connect 14 0 9 0;
#X connect 15 0 13 1;
#X connect 15 0 14 1;
#X connect 16 0 6 0;
#X connect 17 0 8 1;
#X connect 18 0 23 0;
#X connect 18 1 19 0;
#X connect 18 2 21 0;
#X connect 19 0 14 0;
#X connect 20 0 22 0;
#X connect 21 0 13 1;
#X connect 21 0 14 1;
#X connect 22 0 2 0;
#X connect 22 1 24 0;
#X connect 23 0 13 0;
#X connect 24 0 102 1;
#X connect 25 0 1 0;
#X connect 26 0 40 0;
#X connect 27 0 106 0;
#X connect 28 0 38 0;
#X connect 29 0 31 0;
#X connect 30 0 33 0;
#X connect 31 0 33 1;
#X connect 32 0 39 0;
#X connect 33 0 27 0;
#X connect 34 0 35 0;
#X connect 34 0 36 0;
#X connect 35 0 28 0;
#X connect 36 0 32 0;
#X connect 37 0 35 1;
#X connect 37 0 36 1;
#X connect 38 0 29 0;
#X connect 39 0 31 1;
#X connect 40 0 43 0;
#X connect 40 1 41 0;
#X connect 40 2 42 0;
#X connect 41 0 36 0;
#X connect 42 0 35 1;
#X connect 42 0 36 1;
#X connect 43 0 35 0;
#X connect 44 0 30 0;
#X connect 45 0 59 0;
#X connect 46 0 106 0;
#X connect 47 0 57 0;
#X connect 48 0 50 0;
#X connect 49 0 52 0;
#X connect 50 0 52 1;
#X connect 51 0 58 0;
#X connect 52 0 46 0;
#X connect 53 0 54 0;
#X connect 53 0 55 0;
#X connect 54 0 47 0;
#X connect 55 0 51 0;
#X connect 56 0 54 1;
#X connect 56 0 55 1;
#X connect 57 0 48 0;
#X connect 58 0 50 1;
#X connect 59 0 62 0;
#X connect 59 1 60 0;
#X connect 59 2 61 0;
#X connect 60 0 55 0;
#X connect 61 0 54 1;
#X connect 61 0 55 1;
#X connect 62 0 54 0;
#X connect 63 0 77 0;
#X connect 64 0 106 0;
#X connect 65 0 75 0;
#X connect 66 0 68 0;
#X connect 67 0 70 0;
#X connect 68 0 70 1;
#X connect 69 0 76 0;
#X connect 70 0 64 0;
#X connect 71 0 72 0;
#X connect 71 0 73 0;
#X connect 72 0 65 0;
#X connect 73 0 69 0;
#X connect 74 0 72 1;
#X connect 74 0 73 1;
#X connect 75 0 66 0;
#X connect 76 0 68 1;
#X connect 77 0 80 0;
#X connect 77 1 78 0;
#X connect 77 2 79 0;
#X connect 78 0 73 0;
#X connect 79 0 72 1;
#X connect 79 0 73 1;
#X connect 80 0 72 0;
#X connect 81 0 95 0;
#X connect 82 0 106 0;
#X connect 83 0 93 0;
#X connect 84 0 86 0;
#X connect 85 0 88 0;
#X connect 86 0 88 1;
#X connect 87 0 94 0;
#X connect 88 0 82 0;
#X connect 89 0 90 0;
#X connect 89 0 91 0;
#X connect 90 0 83 0;
#X connect 91 0 87 0;
#X connect 92 0 90 1;
#X connect 92 0 91 1;
#X connect 93 0 84 0;
#X connect 94 0 86 1;
#X connect 95 0 98 0;
#X connect 95 1 96 0;
#X connect 95 2 97 0;
#X connect 96 0 91 0;
#X connect 97 0 90 1;
#X connect 97 0 91 1;
#X connect 98 0 90 0;
#X connect 99 0 49 0;
#X connect 100 0 67 0;
#X connect 101 0 85 0;
#X connect 102 0 106 1;
#X connect 103 0 102 0;
#X connect 104 0 103 0;
#X connect 104 1 107 0;
#X connect 105 0 12 0;
#X connect 105 1 11 0;
#X connect 105 2 3 0;
#X connect 105 3 44 0;
#X connect 105 4 34 0;
#X connect 105 5 26 0;
#X connect 105 6 99 0;
#X connect 105 7 53 0;
#X connect 105 8 45 0;
#X connect 105 9 100 0;
#X connect 105 10 71 0;
#X connect 105 11 63 0;
#X connect 105 12 101 0;
#X connect 105 13 89 0;
#X connect 105 14 81 0;
#X connect 105 15 20 0;
#X connect 105 16 15 0;
#X connect 105 17 37 0;
#X connect 105 18 56 0;
#X connect 105 19 74 0;
#X connect 105 20 92 0;
#X connect 105 21 104 0;
#X connect 106 0 0 0;
#X connect 107 0 102 1;
