#N canvas 38 25 1361 1117 12;
#X obj 661 1094 dac~;
#X obj 603 46 bng 15 250 50 0 empty empty empty 17 7 0 10 #fcfcfc #000000
#000000;
#X msg 1254 482 0;
#X obj 661 1036 *~;
#X obj 162 434 delay 25;
#X obj 26 963 osc~;
#X floatatom 78 639 5 0 0 0 - - - 0;
#X obj 58 873 osc~;
#X floatatom 26 906 5 0 0 0 - - - 0;
#X obj 70 905 *~;
#X floatatom 121 667 5 0 0 0 - - - 0;
#X obj 26 932 +~;
#X msg 65 479 0;
#X obj 78 615 line;
#X obj 121 644 line;
#X msg 100 478 20;
#X obj 77 668 vsl 15 128 0 2 0 0 empty empty empty 0 -9 0 10 #fcfcfc
#000000 #000000 0 1;
#X obj 122 691 vsl 15 128 0 10 0 0 empty empty empty 0 -9 0 10 #fcfcfc
#000000 #000000 0 1;
#X obj 162 458 t b b b;
#X msg 184 481 10;
#X obj 1254 436 delay 4000;
#X msg 217 481 3975;
#X obj 1254 460 t b b;
#X msg 152 480 4;
#X msg 1287 482 1000;
#X obj 603 22 loadbang;
#X obj 396 435 delay 25;
#X obj 260 964 osc~;
#X floatatom 312 640 5 0 0 0 - - - 0;
#X obj 292 874 osc~;
#X floatatom 260 907 5 0 0 0 - - - 0;
#X obj 304 906 *~;
#X floatatom 355 668 5 0 0 0 - - - 0;
#X obj 260 933 +~;
#X msg 313 481 0;
#X obj 312 616 line;
#X obj 355 645 line;
#X msg 348 480 20;
#X obj 311 669 vsl 15 128 0 2 0 0 empty empty empty 0 -9 0 10 #fcfcfc
#000000 #000000 0 1;
#X obj 356 692 vsl 15 128 0 10 0 0 empty empty empty 0 -9 0 10 #fcfcfc
#000000 #000000 0 1;
#X obj 396 459 t b b b;
#X msg 418 482 10;
#X msg 451 482 3975;
#X msg 386 481 4;
#X obj 627 435 delay 25;
#X obj 491 964 osc~;
#X floatatom 543 640 5 0 0 0 - - - 0;
#X obj 523 874 osc~;
#X floatatom 491 907 5 0 0 0 - - - 0;
#X obj 535 906 *~;
#X floatatom 586 668 5 0 0 0 - - - 0;
#X obj 491 933 +~;
#X msg 552 482 0;
#X obj 543 616 line;
#X obj 586 645 line;
#X msg 583 483 20;
#X obj 542 669 vsl 15 128 0 2 0 0 empty empty empty 0 -9 0 10 #fcfcfc
#000000 #000000 0 1;
#X obj 587 692 vsl 15 128 0 10 0 0 empty empty empty 0 -9 0 10 #fcfcfc
#000000 #000000 0 1;
#X obj 627 459 t b b b;
#X msg 649 482 10;
#X msg 682 482 3975;
#X msg 617 481 4;
#X obj 848 436 delay 25;
#X obj 722 965 osc~;
#X floatatom 774 641 5 0 0 0 - - - 0;
#X obj 754 875 osc~;
#X floatatom 722 908 5 0 0 0 - - - 0;
#X obj 766 907 *~;
#X floatatom 817 669 5 0 0 0 - - - 0;
#X obj 722 934 +~;
#X msg 788 482 0;
#X obj 774 617 line;
#X obj 817 646 line;
#X msg 817 482 20;
#X obj 773 670 vsl 15 128 0 2 0 0 empty empty empty 0 -9 0 10 #fcfcfc
#000000 #000000 0 1;
#X obj 818 693 vsl 15 128 0 10 0 0 empty empty empty 0 -9 0 10 #fcfcfc
#000000 #000000 0 1;
#X obj 848 460 t b b b;
#X msg 880 483 10;
#X msg 913 483 3975;
#X msg 848 482 4;
#X obj 1089 437 delay 25;
#X obj 953 966 osc~;
#X floatatom 1005 642 5 0 0 0 - - - 0;
#X obj 985 876 osc~;
#X floatatom 953 909 5 0 0 0 - - - 0;
#X obj 997 908 *~;
#X floatatom 1048 670 5 0 0 0 - - - 0;
#X obj 953 935 +~;
#X msg 1006 483 0;
#X obj 1005 618 line;
#X obj 1048 647 line;
#X msg 1041 482 20;
#X obj 1004 671 vsl 15 128 0 2 0 0 empty empty empty 0 -9 0 10 #fcfcfc
#000000 #000000 0 1;
#X obj 1049 694 vsl 15 128 0 10 0 0 empty empty empty 0 -9 0 10 #fcfcfc
#000000 #000000 0 1;
#X obj 1089 461 t b b b;
#X msg 1111 484 10;
#X msg 1144 484 3975;
#X msg 1079 483 4;
#X obj 660 1062 *~ 0.5;
#X msg 11 479 659.26;
#X msg 260 481 739.99;
#X msg 495 482 987.77;
#X msg 721 482 1174.66;
#X msg 950 482 1318.51;
#X obj 1235 963 line~;
#X msg 1186 483 0.5;
#X msg 1221 483 20;
#X obj 1177 447 t b b;
#X connect 1 0 4 0;
#X connect 1 0 12 0;
#X connect 1 0 99 0;
#X connect 1 0 15 0;
#X connect 1 0 20 0;
#X connect 1 0 26 0;
#X connect 1 0 100 0;
#X connect 1 0 34 0;
#X connect 1 0 37 0;
#X connect 1 0 101 0;
#X connect 1 0 52 0;
#X connect 1 0 55 0;
#X connect 1 0 44 0;
#X connect 1 0 70 0;
#X connect 1 0 73 0;
#X connect 1 0 62 0;
#X connect 1 0 103 0;
#X connect 1 0 88 0;
#X connect 1 0 91 0;
#X connect 1 0 80 0;
#X connect 1 0 102 0;
#X connect 1 0 107 0;
#X connect 2 0 104 0;
#X connect 3 0 98 0;
#X connect 4 0 18 0;
#X connect 5 0 3 0;
#X connect 6 0 16 0;
#X connect 7 0 9 0;
#X connect 8 0 11 0;
#X connect 9 0 11 1;
#X connect 10 0 17 0;
#X connect 11 0 5 0;
#X connect 12 0 13 0;
#X connect 12 0 14 0;
#X connect 13 0 6 0;
#X connect 14 0 10 0;
#X connect 15 0 13 1;
#X connect 15 0 14 1;
#X connect 16 0 7 0;
#X connect 17 0 9 1;
#X connect 18 0 23 0;
#X connect 18 1 19 0;
#X connect 18 2 21 0;
#X connect 19 0 14 0;
#X connect 20 0 22 0;
#X connect 21 0 13 1;
#X connect 21 0 14 1;
#X connect 22 0 2 0;
#X connect 22 1 24 0;
#X connect 23 0 13 0;
#X connect 24 0 104 1;
#X connect 25 0 1 0;
#X connect 26 0 40 0;
#X connect 27 0 3 0;
#X connect 28 0 38 0;
#X connect 29 0 31 0;
#X connect 30 0 33 0;
#X connect 31 0 33 1;
#X connect 32 0 39 0;
#X connect 33 0 27 0;
#X connect 34 0 35 0;
#X connect 34 0 36 0;
#X connect 35 0 28 0;
#X connect 36 0 32 0;
#X connect 37 0 35 1;
#X connect 37 0 36 1;
#X connect 38 0 29 0;
#X connect 39 0 31 1;
#X connect 40 0 43 0;
#X connect 40 1 41 0;
#X connect 40 2 42 0;
#X connect 41 0 36 0;
#X connect 42 0 35 1;
#X connect 42 0 36 1;
#X connect 43 0 35 0;
#X connect 44 0 58 0;
#X connect 45 0 3 0;
#X connect 46 0 56 0;
#X connect 47 0 49 0;
#X connect 48 0 51 0;
#X connect 49 0 51 1;
#X connect 50 0 57 0;
#X connect 51 0 45 0;
#X connect 52 0 53 0;
#X connect 52 0 54 0;
#X connect 53 0 46 0;
#X connect 54 0 50 0;
#X connect 55 0 53 1;
#X connect 55 0 54 1;
#X connect 56 0 47 0;
#X connect 57 0 49 1;
#X connect 58 0 61 0;
#X connect 58 1 59 0;
#X connect 58 2 60 0;
#X connect 59 0 54 0;
#X connect 60 0 53 1;
#X connect 60 0 54 1;
#X connect 61 0 53 0;
#X connect 62 0 76 0;
#X connect 63 0 3 0;
#X connect 64 0 74 0;
#X connect 65 0 67 0;
#X connect 66 0 69 0;
#X connect 67 0 69 1;
#X connect 68 0 75 0;
#X connect 69 0 63 0;
#X connect 70 0 71 0;
#X connect 70 0 72 0;
#X connect 71 0 64 0;
#X connect 72 0 68 0;
#X connect 73 0 71 1;
#X connect 73 0 72 1;
#X connect 74 0 65 0;
#X connect 75 0 67 1;
#X connect 76 0 79 0;
#X connect 76 1 77 0;
#X connect 76 2 78 0;
#X connect 77 0 72 0;
#X connect 78 0 71 1;
#X connect 78 0 72 1;
#X connect 79 0 71 0;
#X connect 80 0 94 0;
#X connect 81 0 3 0;
#X connect 82 0 92 0;
#X connect 83 0 85 0;
#X connect 84 0 87 0;
#X connect 85 0 87 1;
#X connect 86 0 93 0;
#X connect 87 0 81 0;
#X connect 88 0 89 0;
#X connect 88 0 90 0;
#X connect 89 0 82 0;
#X connect 90 0 86 0;
#X connect 91 0 89 1;
#X connect 91 0 90 1;
#X connect 92 0 83 0;
#X connect 93 0 85 1;
#X connect 94 0 97 0;
#X connect 94 1 95 0;
#X connect 94 2 96 0;
#X connect 95 0 90 0;
#X connect 96 0 89 1;
#X connect 96 0 90 1;
#X connect 97 0 89 0;
#X connect 98 0 0 0;
#X connect 99 0 8 0;
#X connect 100 0 30 0;
#X connect 101 0 48 0;
#X connect 102 0 66 0;
#X connect 103 0 84 0;
#X connect 104 0 3 1;
#X connect 105 0 104 0;
#X connect 106 0 104 1;
#X connect 107 0 105 0;
#X connect 107 1 106 0;
