#N canvas 34 52 1920 989 12;
#X obj 153 1075 dac~;
#X obj 219 356 osc~;
#X msg 27 287 500;
#X obj 59 230 delay 50;
#X obj 219 329 line;
#X obj 219 381 clip~ -0.8 0.8;
#X msg 97 285 20;
#X obj 59 254 t b b;
#X msg 60 285 700;
#X msg 129 230 0.5;
#X obj 219 406 *~;
#X msg 240 284 700;
#X msg 322 283 850;
#X msg 399 281 500;
#X msg 475 282 0;
#X msg 164 284 300;
#X msg 274 283 15;
#X msg 204 285 20;
#X msg 356 284 5;
#X msg 431 281 5;
#X obj 163 254 t b b;
#X obj 239 254 t b b;
#X obj 322 255 t b b;
#X obj 399 255 t b b;
#X obj 163 230 delay 70;
#X obj 239 231 delay 90;
#X obj 322 231 delay 105;
#X obj 399 229 delay 110;
#X obj 482 229 delay 115;
#X obj 416 165 bng 15 250 50 0 empty empty empty 17 7 0 10 #fcfcfc
#000000 #000000;
#X obj 577 190 delay 50;
#X obj 1108 185 delay 100;
#X obj 661 769 delay 150;
#X obj 1298 758 delay 200;
#X msg 553 281 500;
#X obj 585 224 delay 50;
#X msg 623 279 20;
#X obj 585 248 t b b;
#X msg 586 279 700;
#X msg 655 224 0.5;
#X msg 766 278 700;
#X msg 848 277 850;
#X msg 925 275 500;
#X msg 1001 276 0;
#X msg 690 278 300;
#X msg 800 277 15;
#X msg 730 279 20;
#X msg 882 278 5;
#X msg 957 275 5;
#X obj 689 248 t b b;
#X obj 765 248 t b b;
#X obj 848 249 t b b;
#X obj 925 249 t b b;
#X obj 689 224 delay 70;
#X obj 765 225 delay 90;
#X obj 848 225 delay 105;
#X obj 925 223 delay 110;
#X obj 1008 223 delay 115;
#X obj 779 355 osc~;
#X obj 779 328 line;
#X obj 779 380 clip~ -0.8 0.8;
#X obj 779 405 *~;
#X msg 1093 275 500;
#X obj 1125 218 delay 50;
#X msg 1163 273 20;
#X obj 1125 242 t b b;
#X msg 1126 273 700;
#X msg 1195 218 0.5;
#X msg 1306 272 700;
#X msg 1388 271 850;
#X msg 1465 269 500;
#X msg 1541 270 0;
#X msg 1230 272 300;
#X msg 1340 271 15;
#X msg 1270 273 20;
#X msg 1422 272 5;
#X msg 1497 269 5;
#X obj 1229 242 t b b;
#X obj 1305 242 t b b;
#X obj 1388 243 t b b;
#X obj 1465 243 t b b;
#X obj 1229 218 delay 70;
#X obj 1305 219 delay 90;
#X obj 1388 219 delay 105;
#X obj 1465 217 delay 110;
#X obj 1548 217 delay 115;
#X obj 1319 349 osc~;
#X obj 1319 322 line;
#X obj 1319 374 clip~ -0.8 0.8;
#X obj 1319 399 *~;
#X msg 637 860 500;
#X obj 669 803 delay 50;
#X msg 707 858 20;
#X obj 669 827 t b b;
#X msg 670 858 700;
#X msg 739 803 0.5;
#X msg 850 857 700;
#X msg 932 856 850;
#X msg 1009 854 500;
#X msg 1085 855 0;
#X msg 774 857 300;
#X msg 884 856 15;
#X msg 814 858 20;
#X msg 966 857 5;
#X msg 1041 854 5;
#X obj 773 827 t b b;
#X obj 849 827 t b b;
#X obj 932 828 t b b;
#X obj 1009 828 t b b;
#X obj 773 803 delay 70;
#X obj 849 804 delay 90;
#X obj 932 804 delay 105;
#X obj 1009 802 delay 110;
#X obj 1089 801 delay 115;
#X obj 863 934 osc~;
#X obj 863 907 line;
#X obj 863 959 clip~ -0.8 0.8;
#X obj 861 985 *~;
#X msg 1295 850 500;
#X obj 1327 793 delay 50;
#X msg 1365 848 20;
#X obj 1327 817 t b b;
#X msg 1328 848 700;
#X msg 1397 793 0.5;
#X msg 1508 847 700;
#X msg 1590 846 850;
#X msg 1667 844 500;
#X msg 1743 845 0;
#X msg 1432 847 300;
#X msg 1542 846 15;
#X msg 1472 848 20;
#X msg 1624 847 5;
#X msg 1699 844 5;
#X obj 1431 817 t b b;
#X obj 1507 817 t b b;
#X obj 1590 818 t b b;
#X obj 1667 818 t b b;
#X obj 1431 793 delay 70;
#X obj 1507 794 delay 90;
#X obj 1590 794 delay 105;
#X obj 1667 792 delay 110;
#X obj 1750 792 delay 115;
#X obj 1521 924 osc~;
#X obj 1521 897 line;
#X obj 1521 949 clip~ -0.8 0.8;
#X obj 1521 974 *~;
#X obj 153 1032 *~ 0.5;
#X msg 517 281 500;
#X msg 1043 275 500;
#X msg 1583 269 500;
#X msg 1128 854 500;
#X msg 1785 844 500;
#X obj 416 143 loadbang;
#X obj 482 254 t b b;
#X obj 1008 248 t b b;
#X obj 1548 241 t b b;
#X obj 1091 826 t b b;
#X obj 1750 815 t b b;
#X obj 473 354 line~;
#X obj 999 348 line~;
#X obj 1539 342 line~;
#X obj 1083 927 line~;
#X obj 1741 917 line~;
#X connect 1 0 5 0;
#X connect 2 0 4 0;
#X connect 3 0 7 0;
#X connect 4 0 1 0;
#X connect 5 0 10 0;
#X connect 6 0 4 1;
#X connect 7 0 8 0;
#X connect 7 1 6 0;
#X connect 8 0 4 0;
#X connect 9 0 158 0;
#X connect 10 0 146 0;
#X connect 11 0 4 0;
#X connect 12 0 4 0;
#X connect 13 0 4 0;
#X connect 14 0 158 0;
#X connect 15 0 4 0;
#X connect 16 0 4 1;
#X connect 17 0 4 1;
#X connect 18 0 4 1;
#X connect 19 0 4 1;
#X connect 20 0 15 0;
#X connect 20 1 17 0;
#X connect 21 0 11 0;
#X connect 21 1 16 0;
#X connect 22 0 12 0;
#X connect 22 1 18 0;
#X connect 23 0 13 0;
#X connect 23 1 19 0;
#X connect 24 0 20 0;
#X connect 25 0 21 0;
#X connect 26 0 22 0;
#X connect 27 0 23 0;
#X connect 28 0 153 0;
#X connect 29 0 3 0;
#X connect 29 0 2 0;
#X connect 29 0 9 0;
#X connect 29 0 24 0;
#X connect 29 0 25 0;
#X connect 29 0 26 0;
#X connect 29 0 27 0;
#X connect 29 0 28 0;
#X connect 29 0 30 0;
#X connect 29 0 31 0;
#X connect 30 0 35 0;
#X connect 30 0 53 0;
#X connect 30 0 39 0;
#X connect 30 0 54 0;
#X connect 30 0 55 0;
#X connect 30 0 56 0;
#X connect 30 0 57 0;
#X connect 30 0 34 0;
#X connect 31 0 63 0;
#X connect 31 0 67 0;
#X connect 31 0 62 0;
#X connect 31 0 81 0;
#X connect 31 0 82 0;
#X connect 31 0 83 0;
#X connect 31 0 84 0;
#X connect 31 0 85 0;
#X connect 32 0 90 0;
#X connect 32 0 91 0;
#X connect 32 0 95 0;
#X connect 32 0 109 0;
#X connect 32 0 110 0;
#X connect 32 0 111 0;
#X connect 32 0 112 0;
#X connect 32 0 113 0;
#X connect 33 0 118 0;
#X connect 33 0 119 0;
#X connect 33 0 123 0;
#X connect 33 0 137 0;
#X connect 33 0 138 0;
#X connect 33 0 139 0;
#X connect 33 0 140 0;
#X connect 33 0 141 0;
#X connect 34 0 59 0;
#X connect 35 0 37 0;
#X connect 36 0 59 1;
#X connect 37 0 38 0;
#X connect 37 1 36 0;
#X connect 38 0 59 0;
#X connect 39 0 159 0;
#X connect 40 0 59 0;
#X connect 41 0 59 0;
#X connect 42 0 59 0;
#X connect 43 0 159 0;
#X connect 44 0 59 0;
#X connect 45 0 59 1;
#X connect 46 0 59 1;
#X connect 47 0 59 1;
#X connect 48 0 59 1;
#X connect 49 0 44 0;
#X connect 49 1 46 0;
#X connect 50 0 40 0;
#X connect 50 1 45 0;
#X connect 51 0 41 0;
#X connect 51 1 47 0;
#X connect 52 0 42 0;
#X connect 52 1 48 0;
#X connect 53 0 49 0;
#X connect 54 0 50 0;
#X connect 55 0 51 0;
#X connect 56 0 52 0;
#X connect 57 0 154 0;
#X connect 58 0 60 0;
#X connect 59 0 58 0;
#X connect 60 0 61 0;
#X connect 61 0 146 0;
#X connect 62 0 87 0;
#X connect 63 0 65 0;
#X connect 64 0 87 1;
#X connect 65 0 66 0;
#X connect 65 1 64 0;
#X connect 66 0 87 0;
#X connect 67 0 160 0;
#X connect 68 0 87 0;
#X connect 69 0 87 0;
#X connect 70 0 87 0;
#X connect 71 0 160 0;
#X connect 72 0 87 0;
#X connect 73 0 87 1;
#X connect 74 0 87 1;
#X connect 75 0 87 1;
#X connect 76 0 87 1;
#X connect 77 0 72 0;
#X connect 77 1 74 0;
#X connect 78 0 68 0;
#X connect 78 1 73 0;
#X connect 79 0 69 0;
#X connect 79 1 75 0;
#X connect 80 0 70 0;
#X connect 80 1 76 0;
#X connect 81 0 77 0;
#X connect 82 0 78 0;
#X connect 83 0 79 0;
#X connect 84 0 80 0;
#X connect 85 0 155 0;
#X connect 86 0 88 0;
#X connect 87 0 86 0;
#X connect 88 0 89 0;
#X connect 89 0 146 0;
#X connect 90 0 115 0;
#X connect 91 0 93 0;
#X connect 92 0 115 1;
#X connect 93 0 94 0;
#X connect 93 1 92 0;
#X connect 94 0 115 0;
#X connect 95 0 161 0;
#X connect 96 0 115 0;
#X connect 97 0 115 0;
#X connect 98 0 115 0;
#X connect 99 0 161 0;
#X connect 100 0 115 0;
#X connect 101 0 115 1;
#X connect 102 0 115 1;
#X connect 103 0 115 1;
#X connect 104 0 115 1;
#X connect 105 0 100 0;
#X connect 105 1 102 0;
#X connect 106 0 96 0;
#X connect 106 1 101 0;
#X connect 107 0 97 0;
#X connect 107 1 103 0;
#X connect 108 0 98 0;
#X connect 108 1 104 0;
#X connect 109 0 105 0;
#X connect 110 0 106 0;
#X connect 111 0 107 0;
#X connect 112 0 108 0;
#X connect 113 0 156 0;
#X connect 114 0 116 0;
#X connect 115 0 114 0;
#X connect 116 0 117 0;
#X connect 117 0 146 0;
#X connect 118 0 143 0;
#X connect 119 0 121 0;
#X connect 120 0 143 1;
#X connect 121 0 122 0;
#X connect 121 1 120 0;
#X connect 122 0 143 0;
#X connect 123 0 162 0;
#X connect 124 0 143 0;
#X connect 125 0 143 0;
#X connect 126 0 143 0;
#X connect 127 0 162 0;
#X connect 128 0 143 0;
#X connect 129 0 143 1;
#X connect 130 0 143 1;
#X connect 131 0 143 1;
#X connect 132 0 143 1;
#X connect 133 0 128 0;
#X connect 133 1 130 0;
#X connect 134 0 124 0;
#X connect 134 1 129 0;
#X connect 135 0 125 0;
#X connect 135 1 131 0;
#X connect 136 0 126 0;
#X connect 136 1 132 0;
#X connect 137 0 133 0;
#X connect 138 0 134 0;
#X connect 139 0 135 0;
#X connect 140 0 136 0;
#X connect 141 0 157 0;
#X connect 142 0 144 0;
#X connect 143 0 142 0;
#X connect 144 0 145 0;
#X connect 145 0 146 0;
#X connect 146 0 0 0;
#X connect 147 0 158 1;
#X connect 148 0 159 1;
#X connect 149 0 160 1;
#X connect 150 0 161 1;
#X connect 151 0 162 1;
#X connect 152 0 29 0;
#X connect 153 0 14 0;
#X connect 153 1 147 0;
#X connect 154 0 43 0;
#X connect 154 1 148 0;
#X connect 155 0 71 0;
#X connect 155 1 149 0;
#X connect 156 0 99 0;
#X connect 156 1 150 0;
#X connect 157 0 127 0;
#X connect 157 1 151 0;
#X connect 158 0 10 1;
#X connect 159 0 61 1;
#X connect 160 0 89 1;
#X connect 161 0 117 1;
#X connect 162 0 145 1;
