#N canvas 272 2 1604 1041 12;
#X obj 35 294 osc~;
#X msg 6 207 500;
#X obj 37 123 delay 50;
#X obj 35 271 line;
#X msg 76 205 20;
#X msg 39 205 700;
#X obj 629 73 delay 100;
#X obj 976 76 delay 150;
#X obj 1285 67 delay 200;
#X obj 210 28 bng 15 250 50 0 empty empty empty 17 7 0 10 #fcfcfc #000000
#000000;
#X obj 446 835 dac~;
#X msg 179 205 0;
#X msg 111 205 0.5;
#X obj 170 146 delay 40;
#X obj 445 795 *~ 0.5;
#X obj 109 362 *~;
#X obj 322 75 delay 50;
#X msg 146 206 200;
#X msg 252 206 500;
#X msg 217 207 500;
#X obj 170 170 t b b b b;
#X obj 176 297 line~;
#X obj 1311 292 osc~;
#X msg 1282 205 500;
#X obj 1313 121 delay 50;
#X obj 1311 269 line;
#X msg 1352 203 20;
#X obj 1314 172 t b b;
#X msg 1315 203 700;
#X msg 1455 203 0;
#X msg 1387 203 0.5;
#X obj 1446 144 delay 40;
#X obj 1377 346 *~;
#X msg 1422 204 200;
#X msg 1528 204 500;
#X msg 1493 205 500;
#X obj 1446 168 t b b b b;
#X obj 1452 295 line~;
#X obj 210 4 loadbang;
#X obj 1285 93 t b b b b;
#X msg 1566 204 20;
#X obj 347 304 osc~;
#X msg 318 217 500;
#X obj 349 133 delay 50;
#X obj 347 281 line;
#X msg 388 215 20;
#X obj 350 184 t b b;
#X msg 351 215 700;
#X msg 491 215 0;
#X msg 423 215 0.5;
#X obj 482 156 delay 40;
#X obj 413 358 *~;
#X msg 458 216 200;
#X msg 564 216 500;
#X msg 529 217 500;
#X obj 482 180 t b b b b;
#X obj 488 307 line~;
#X obj 321 105 t b b b b;
#X msg 602 216 20;
#X obj 650 123 delay 50;
#X obj 675 352 osc~;
#X msg 646 265 500;
#X obj 677 181 delay 50;
#X obj 675 329 line;
#X msg 716 263 20;
#X obj 678 232 t b b;
#X msg 679 263 700;
#X msg 819 263 0;
#X msg 751 263 0.5;
#X obj 810 204 delay 40;
#X obj 741 406 *~;
#X msg 786 264 200;
#X msg 892 264 500;
#X msg 857 265 500;
#X obj 810 228 t b b b b;
#X obj 816 355 line~;
#X obj 649 153 t b b b b;
#X msg 930 264 20;
#X obj 974 122 delay 50;
#X obj 999 351 osc~;
#X msg 970 264 500;
#X obj 1001 180 delay 50;
#X obj 999 328 line;
#X msg 1040 262 20;
#X obj 1002 231 t b b;
#X msg 1003 262 700;
#X msg 1143 262 0;
#X msg 1075 262 0.5;
#X obj 1134 203 delay 40;
#X obj 1065 405 *~;
#X msg 1110 263 200;
#X msg 1216 263 500;
#X msg 1181 264 500;
#X obj 1134 227 t b b b b;
#X obj 1140 354 line~;
#X obj 973 152 t b b b b;
#X msg 1254 263 20;
#X obj 31 175 t b b;
#X obj 11 67 t b b b b;
#X msg 284 207 20;
#X obj 259 34 t b b b b b;
#X connect 0 0 15 0;
#X connect 1 0 3 0;
#X connect 2 0 13 0;
#X connect 2 0 97 0;
#X connect 3 0 0 0;
#X connect 4 0 3 1;
#X connect 5 0 3 0;
#X connect 6 0 59 0;
#X connect 7 0 78 0;
#X connect 8 0 39 0;
#X connect 9 0 100 0;
#X connect 11 0 21 0;
#X connect 12 0 21 0;
#X connect 13 0 20 0;
#X connect 14 0 10 0;
#X connect 15 0 14 0;
#X connect 16 0 57 0;
#X connect 17 0 3 0;
#X connect 18 0 21 1;
#X connect 19 0 3 1;
#X connect 20 0 17 0;
#X connect 20 1 11 0;
#X connect 20 2 19 0;
#X connect 20 3 18 0;
#X connect 21 0 15 1;
#X connect 22 0 32 0;
#X connect 23 0 25 0;
#X connect 24 0 27 0;
#X connect 24 0 31 0;
#X connect 25 0 22 0;
#X connect 26 0 25 1;
#X connect 27 0 28 0;
#X connect 27 1 26 0;
#X connect 28 0 25 0;
#X connect 29 0 37 0;
#X connect 30 0 37 0;
#X connect 31 0 36 0;
#X connect 32 0 14 0;
#X connect 33 0 25 0;
#X connect 34 0 37 1;
#X connect 35 0 25 1;
#X connect 36 0 33 0;
#X connect 36 1 29 0;
#X connect 36 2 35 0;
#X connect 36 3 34 0;
#X connect 37 0 32 1;
#X connect 38 0 9 0;
#X connect 39 0 23 0;
#X connect 39 1 24 0;
#X connect 39 2 30 0;
#X connect 39 3 40 0;
#X connect 40 0 37 1;
#X connect 41 0 51 0;
#X connect 42 0 44 0;
#X connect 43 0 46 0;
#X connect 43 0 50 0;
#X connect 44 0 41 0;
#X connect 45 0 44 1;
#X connect 46 0 47 0;
#X connect 46 1 45 0;
#X connect 47 0 44 0;
#X connect 48 0 56 0;
#X connect 49 0 56 0;
#X connect 50 0 55 0;
#X connect 51 0 14 0;
#X connect 52 0 44 0;
#X connect 53 0 56 1;
#X connect 54 0 44 1;
#X connect 55 0 52 0;
#X connect 55 1 48 0;
#X connect 55 2 54 0;
#X connect 55 3 53 0;
#X connect 56 0 51 1;
#X connect 57 0 42 0;
#X connect 57 1 43 0;
#X connect 57 2 49 0;
#X connect 57 3 58 0;
#X connect 58 0 56 1;
#X connect 59 0 76 0;
#X connect 60 0 70 0;
#X connect 61 0 63 0;
#X connect 62 0 65 0;
#X connect 62 0 69 0;
#X connect 63 0 60 0;
#X connect 64 0 63 1;
#X connect 65 0 66 0;
#X connect 65 1 64 0;
#X connect 66 0 63 0;
#X connect 67 0 75 0;
#X connect 68 0 75 0;
#X connect 69 0 74 0;
#X connect 70 0 14 0;
#X connect 71 0 63 0;
#X connect 72 0 75 1;
#X connect 73 0 63 1;
#X connect 74 0 71 0;
#X connect 74 1 67 0;
#X connect 74 2 73 0;
#X connect 74 3 72 0;
#X connect 75 0 70 1;
#X connect 76 0 61 0;
#X connect 76 1 62 0;
#X connect 76 2 68 0;
#X connect 76 3 77 0;
#X connect 77 0 75 1;
#X connect 78 0 95 0;
#X connect 79 0 89 0;
#X connect 80 0 82 0;
#X connect 81 0 84 0;
#X connect 81 0 88 0;
#X connect 82 0 79 0;
#X connect 83 0 82 1;
#X connect 84 0 85 0;
#X connect 84 1 83 0;
#X connect 85 0 82 0;
#X connect 86 0 94 0;
#X connect 87 0 94 0;
#X connect 88 0 93 0;
#X connect 89 0 14 0;
#X connect 90 0 82 0;
#X connect 91 0 94 1;
#X connect 92 0 82 1;
#X connect 93 0 90 0;
#X connect 93 1 86 0;
#X connect 93 2 92 0;
#X connect 93 3 91 0;
#X connect 94 0 89 1;
#X connect 95 0 80 0;
#X connect 95 1 81 0;
#X connect 95 2 87 0;
#X connect 95 3 96 0;
#X connect 96 0 94 1;
#X connect 97 0 5 0;
#X connect 97 1 4 0;
#X connect 98 0 1 0;
#X connect 98 1 2 0;
#X connect 98 2 12 0;
#X connect 98 3 99 0;
#X connect 99 0 21 1;
#X connect 100 0 98 0;
#X connect 100 1 16 0;
#X connect 100 2 6 0;
#X connect 100 3 7 0;
#X connect 100 4 8 0;
