#N canvas 850 25 380 511 12;
#X obj 99 426 osc~;
#X floatatom 63 289 5 0 0 0 - - - 0;
#X floatatom 103 289 5 0 0 0 - - - 0;
#X floatatom 143 289 5 0 0 0 - - - 0;
#X msg 143 264 100;
#X obj 42 88 bng 15 250 50 0 empty empty empty 17 7 0 10 #fcfcfc #000000
#000000;
#X obj 179 199 delay 25;
#X msg 63 264 500;
#X msg 103 264 2000;
#X obj 99 394 *~;
#X obj 42 57 loadbang;
#X msg 194 263 0.5;
#X msg 256 263 0;
#X obj 256 200 delay 125;
#X obj 194 338 line~;
#X obj 256 224 t b b;
#X msg 292 263 10;
#X msg 132 67 r Jump @hvparam 0 1 0;
#X floatatom 132 91 5 0 1 0 - - - 0;
#X obj 132 114 sel 1;
#X msg 178 114 sel 0;
#X obj 99 342 line~;
#X obj 99 472 dac~ 1;
#X connect 0 0 22 0;
#X connect 1 0 21 0;
#X connect 2 0 21 0;
#X connect 3 0 21 1;
#X connect 4 0 3 0;
#X connect 5 0 7 0;
#X connect 5 0 4 0;
#X connect 6 0 8 0;
#X connect 7 0 1 0;
#X connect 8 0 2 0;
#X connect 9 0 0 0;
#X connect 10 0 5 0;
#X connect 11 0 14 0;
#X connect 12 0 14 0;
#X connect 13 0 15 0;
#X connect 14 0 9 1;
#X connect 15 0 12 0;
#X connect 15 1 16 0;
#X connect 16 0 14 1;
#X connect 17 0 18 0;
#X connect 18 0 19 0;
#X connect 18 0 20 0;
#X connect 19 0 6 0;
#X connect 19 0 13 0;
#X connect 19 0 11 0;
#X connect 20 0 7 0;
#X connect 20 0 4 0;
#X connect 21 0 9 0;
