#N canvas 1233 25 559 688 12;
#X floatatom 16 293 5 0 0 0 - - - 0;
#X floatatom 56 293 5 0 0 0 - - - 0;
#X floatatom 96 293 5 0 0 0 - - - 0;
#X obj 51 38 bng 15 250 50 0 empty empty empty 17 7 0 10 #fcfcfc #000000
#000000;
#X obj 192 147 delay 25;
#X msg 166 207 0.5;
#X msg 253 195 0;
#X obj 256 171 t b b;
#X msg 16 268 1000;
#X msg 96 268 50;
#X obj 256 147 delay 75;
#X obj 51 7 loadbang;
#X obj 52 386 *~;
#X obj 52 410 osc~;
#X obj 200 290 line~;
#X msg 144 24 r Land @hv_param 0 1 0;
#X floatatom 144 48 5 0 1 0 - - - 0;
#X obj 130 72 sel 1;
#X obj 225 78 sel 0;
#X obj 144 95 t b b b;
#X msg 402 196 0;
#X msg 289 195 200;
#X msg 56 268 500;
#X obj 52 346 line~;
#X obj 52 476 dac~ 1;
#X connect 0 0 23 0;
#X connect 1 0 23 0;
#X connect 2 0 23 1;
#X connect 3 0 8 0;
#X connect 3 0 9 0;
#X connect 4 0 22 0;
#X connect 5 0 14 0;
#X connect 6 0 14 0;
#X connect 7 0 6 0;
#X connect 7 1 21 0;
#X connect 8 0 0 0;
#X connect 9 0 2 0;
#X connect 10 0 7 0;
#X connect 11 0 3 0;
#X connect 12 0 13 0;
#X connect 13 0 24 0;
#X connect 14 0 12 1;
#X connect 15 0 16 0;
#X connect 16 0 17 0;
#X connect 16 0 18 0;
#X connect 17 0 19 0;
#X connect 18 0 8 0;
#X connect 18 0 9 0;
#X connect 18 0 20 0;
#X connect 19 0 5 0;
#X connect 19 1 4 0;
#X connect 19 2 10 0;
#X connect 20 0 14 0;
#X connect 21 0 14 1;
#X connect 22 0 1 0;
#X connect 23 0 12 0;
