#N canvas 501 25 348 449 12;
#X obj 56 356 dac~;
#X obj 56 226 line;
#X floatatom 20 173 5 0 0 0 - - - 0;
#X floatatom 60 173 5 0 0 0 - - - 0;
#X floatatom 100 173 5 0 0 0 - - - 0;
#X obj 51 38 bng 15 250 50 0 empty empty empty 17 7 0 10 #fcfcfc #000000
#000000;
#X obj 139 98 delay 25;
#X msg 151 147 0.5;
#X msg 213 147 0;
#X obj 216 123 t b b;
#X msg 249 147 10;
#X msg 20 148 1000;
#X msg 60 148 200;
#X msg 100 148 50;
#X obj 216 99 delay 75;
#X obj 51 7 loadbang;
#X obj 56 266 *~;
#X obj 56 290 osc~;
#X obj 151 222 line~;
#X connect 1 0 16 0;
#X connect 2 0 1 0;
#X connect 3 0 1 0;
#X connect 4 0 1 1;
#X connect 5 0 11 0;
#X connect 5 0 13 0;
#X connect 5 0 7 0;
#X connect 5 0 6 0;
#X connect 5 0 14 0;
#X connect 6 0 12 0;
#X connect 7 0 18 0;
#X connect 8 0 18 0;
#X connect 9 0 8 0;
#X connect 9 1 10 0;
#X connect 10 0 18 1;
#X connect 11 0 2 0;
#X connect 12 0 3 0;
#X connect 13 0 4 0;
#X connect 14 0 9 0;
#X connect 15 0 5 0;
#X connect 16 0 17 0;
#X connect 17 0 0 0;
#X connect 17 0 0 1;
#X connect 18 0 16 1;
