#N canvas 788 6 1920 989 12;
#X obj 41 14 bng 15 250 50 0 empty empty empty 17 7 0 10 #fcfcfc #000000
#000000;
#X floatatom 67 551 5 0 0 0 - - - 0;
#X obj 67 580 osc~;
#X floatatom 28 597 5 0 0 0 - - - 0;
#X obj 47 626 *~;
#X obj 67 610 *~;
#X floatatom 110 580 5 0 0 0 - - - 0;
#X obj 47 656 osc~;
#X obj 162 894 dac~;
#X obj 162 869 *~ 0.5;
#X obj 110 438 vsl 15 128 0 200 0 0 empty empty empty 0 -9 0 10 #fcfcfc
#000000 #000000 0 1;
#X msg 64 372 200;
#X obj 110 406 line;
#X obj 110 346 delay 1000;
#X msg 204 387 2000;
#X msg 108 371 25;
#X msg 28 567 5;
#X obj 194 275 delay 3000;
#X msg 198 339 0;
#X obj 194 301 t b b;
#X msg 236 353 2000;
#X msg 67 521 18;
#X obj 340 38 delay 5000;
#X msg 341 122 0.5;
#X obj 237 10 noise~;
#X obj 339 451 *~;
#X msg 384 130 0;
#X obj 361 166 line;
#X obj 340 68 t b b b;
#X msg 456 100 20;
#X obj 384 100 delay 100;
#X obj 224 168 bp~;
#X msg 183 93 2.5;
#X msg 143 93 65;
#X obj 339 481 *~ 3;
#X msg 426 522 0.5;
#X obj 427 595 *~;
#X msg 469 520 0;
#X obj 446 560 line;
#X obj 425 441 t b b b;
#X obj 469 490 delay 100;
#X obj 317 219 bp~;
#X obj 427 625 *~ 3;
#X msg 541 490 50;
#X obj 425 411 delay 5070;
#X msg 286 105 2.5;
#X msg 246 105 45;
#X connect 0 0 11 0;
#X connect 0 0 13 0;
#X connect 0 0 14 0;
#X connect 0 0 17 0;
#X connect 0 0 21 0;
#X connect 0 0 16 0;
#X connect 0 0 33 0;
#X connect 0 0 32 0;
#X connect 0 0 22 0;
#X connect 0 0 44 0;
#X connect 0 0 46 0;
#X connect 0 0 45 0;
#X connect 1 0 2 0;
#X connect 2 0 5 0;
#X connect 3 0 4 0;
#X connect 4 0 7 0;
#X connect 5 0 4 1;
#X connect 6 0 5 1;
#X connect 7 0 9 0;
#X connect 9 0 8 0;
#X connect 10 0 6 0;
#X connect 11 0 12 0;
#X connect 12 0 10 0;
#X connect 13 0 15 0;
#X connect 14 0 12 1;
#X connect 15 0 12 0;
#X connect 16 0 3 0;
#X connect 17 0 19 0;
#X connect 18 0 12 0;
#X connect 19 0 18 0;
#X connect 19 1 20 0;
#X connect 20 0 12 1;
#X connect 21 0 1 0;
#X connect 22 0 28 0;
#X connect 23 0 27 0;
#X connect 24 0 31 0;
#X connect 24 0 41 0;
#X connect 25 0 34 0;
#X connect 26 0 27 0;
#X connect 27 0 25 1;
#X connect 28 0 23 0;
#X connect 28 1 30 0;
#X connect 28 2 29 0;
#X connect 29 0 27 1;
#X connect 30 0 26 0;
#X connect 31 0 25 0;
#X connect 32 0 31 2;
#X connect 33 0 31 1;
#X connect 34 0 9 0;
#X connect 35 0 38 0;
#X connect 36 0 42 0;
#X connect 37 0 38 0;
#X connect 38 0 36 1;
#X connect 39 0 35 0;
#X connect 39 1 40 0;
#X connect 39 2 43 0;
#X connect 40 0 37 0;
#X connect 41 0 36 0;
#X connect 42 0 9 0;
#X connect 43 0 38 1;
#X connect 44 0 39 0;
#X connect 45 0 41 2;
#X connect 46 0 41 1;
