#N canvas 496 1 455 548 12;
#X obj 112 35 bng 15 250 50 0 empty empty empty 17 7 0 10 #fcfcfc #000000
#000000;
#X floatatom 101 114 5 0 0 0 - - - 0;
#X obj 101 144 osc~;
#X floatatom 52 114 5 0 0 0 - - - 0;
#X obj 83 202 *~;
#X obj 101 174 *~;
#X floatatom 146 112 5 0 0 0 - - - 0;
#X obj 83 306 osc~;
#X obj 85 375 dac~;
#X obj 84 342 *~ 0.5;
#X msg 146 88 25;
#X msg 52 85 5;
#X msg 101 85 18;
#X obj 83 229 *~;
#X obj 186 113 phasor~;
#X msg 186 88 37;
#X obj 112 9 loadbang;
#X obj 83 253 *~;
#X msg 244 87 37;
#X obj 244 112 sig~;
#X connect 0 0 12 0;
#X connect 0 0 11 0;
#X connect 0 0 15 0;
#X connect 0 0 10 0;
#X connect 0 0 18 0;
#X connect 1 0 2 0;
#X connect 2 0 5 0;
#X connect 3 0 4 0;
#X connect 4 0 13 0;
#X connect 5 0 4 1;
#X connect 6 0 5 1;
#X connect 7 0 9 0;
#X connect 9 0 8 0;
#X connect 10 0 6 0;
#X connect 11 0 3 0;
#X connect 12 0 1 0;
#X connect 13 0 17 0;
#X connect 14 0 13 1;
#X connect 15 0 14 0;
#X connect 16 0 0 0;
#X connect 17 0 7 0;
#X connect 18 0 19 0;
#X connect 19 0 17 1;
