#N canvas 864 25 536 1041 12;
#X obj 207 41 bng 15 250 50 0 empty empty empty 17 7 0 10 #fcfcfc #000000
#000000;
#X obj 207 329 t b b;
#X obj 187 411 line;
#X obj 282 324 t b b;
#X floatatom 361 376 5 0 0 0 - - - 0;
#X floatatom 446 330 5 0 0 0 - - - 0;
#X msg 446 298 0.5;
#X obj 207 303 delay 10;
#X floatatom 195 356 5 0 0 0 - - - 0;
#X floatatom 278 356 5 0 0 0 - - - 0;
#X obj 179 713 *~, f 5;
#X obj 187 451 vsl 15 128 350 600 0 0 empty empty empty 0 -9 0 10 #fcfcfc
#000000 #000000 0 1;
#X msg 363 328 0;
#X floatatom 187 595 5 0 0 0 - - - 0;
#X obj 282 300 delay 110;
#X msg 404 328 10;
#X obj 29 322 + 400;
#X msg 490 299 10;
#X msg 240 358 100;
#X msg 323 358 70;
#X obj 355 270 delay 180;
#X obj 31 367 noise~;
#X obj 32 657 bp~;
#X msg 150 359 20;
#X obj 32 681 *~ 0.5;
#X obj 28 298 random 10;
#X obj 112 322 + 500;
#X obj 111 298 random 50;
#X obj 363 424 line~;
#X obj 207 11 loadbang;
#X obj 179 737 *~ 10;
#X obj 207 70 t b b b b b b b b;
#X obj 355 294 t b b;
#X obj 180 818 dac~ 1;
#X connect 0 0 31 0;
#X connect 1 0 8 0;
#X connect 1 1 18 0;
#X connect 2 0 11 0;
#X connect 3 0 9 0;
#X connect 3 1 19 0;
#X connect 4 0 28 0;
#X connect 5 0 28 0;
#X connect 6 0 5 0;
#X connect 7 0 1 0;
#X connect 8 0 2 0;
#X connect 9 0 2 0;
#X connect 10 0 30 0;
#X connect 11 0 13 0;
#X connect 12 0 4 0;
#X connect 13 0 22 1;
#X connect 14 0 3 0;
#X connect 15 0 28 1;
#X connect 16 0 9 0;
#X connect 17 0 28 1;
#X connect 18 0 2 1;
#X connect 19 0 2 1;
#X connect 20 0 32 0;
#X connect 21 0 22 0;
#X connect 22 0 24 0;
#X connect 23 0 22 2;
#X connect 24 0 10 0;
#X connect 25 0 16 0;
#X connect 26 0 8 0;
#X connect 27 0 26 0;
#X connect 28 0 10 1;
#X connect 29 0 0 0;
#X connect 30 0 33 0;
#X connect 31 0 25 0;
#X connect 31 1 27 0;
#X connect 31 2 7 0;
#X connect 31 3 14 0;
#X connect 31 4 20 0;
#X connect 31 5 6 0;
#X connect 31 6 23 0;
#X connect 31 7 17 0;
#X connect 32 0 12 0;
#X connect 32 1 15 0;
