#N canvas 61 139 1920 989 12;
#X obj 1751 1033 dac~ 1 2;
#X obj 310 915 bp~, f 6;
#X obj 591 979 *~ 0.2;
#X obj 840 604 vsl 15 128 100 1300 0 0 empty empty empty 0 -9 0 10
#fcfcfc #000000 #000000 0 1;
#X floatatom 840 746 6 0 0 0 - - - 0;
#X obj 434 929 bp~, f 6;
#X obj 925 603 vsl 15 128 400 2000 0 0 empty empty empty 0 -9 0 10
#fcfcfc #000000 #000000 0 1;
#X floatatom 925 744 7 0 0 0 - - - 0;
#X obj 19 501 hsl 128 15 0 5 0 0 empty empty empty -2 -8 0 10 #fcfcfc
#000000 #000000 0 1;
#X floatatom 13 531 5 0 0 0 - - - 0;
#X obj 757 421 random 200, f 11;
#X obj 757 445 + 100;
#X floatatom 757 469 5 0 0 0 - - - 0;
#X obj 821 -8 loadbang;
#X floatatom 891 471 5 0 0 0 - - - 0;
#X obj 891 423 random 400, f 11;
#X obj 891 447 + 400;
#X obj 804 211 random 3000;
#X obj 877 318 > 254;
#X floatatom 825 343 5 0 0 0 - - - 0;
#X floatatom 877 342 5 0 0 0 - - - 0;
#X floatatom 835 235 5 0 0 0 - - - 0;
#X floatatom 6 434 5 0 0 0 - - - 0;
#X obj 5 382 / 10;
#X obj 840 575 line;
#X obj 925 575 line;
#X obj 13 469 line;
#X floatatom 95 382 5 0 0 0 - - - 0;
#X floatatom 844 446 5 0 0 0 - - - 0;
#X msg 844 422 10000;
#X floatatom 978 447 5 0 0 0 - - - 0;
#X msg 978 423 10000;
#X obj 528 770 noise~;
#X obj 830 64 random 10000;
#X obj 976 155 delay;
#X obj 802 162 metro;
#X floatatom 830 91 5 0 0 0 - - - 0;
#X obj 976 125 random;
#X floatatom 319 434 5 0 0 0 - - - 0;
#X obj 825 317 > 1550;
#X obj 825 377 sel 1;
#X obj 877 377 sel 1;
#X obj 6 411 + 1;
#X msg 369 372 5;
#X obj 1118 677 bp~, f 6;
#X obj 1273 421 vsl 15 128 400 1200 0 0 empty empty empty 0 -9 0 10
#fcfcfc #000000 #000000 0 1;
#X floatatom 1273 559 7 0 0 0 - - - 0;
#X floatatom 1273 358 5 0 0 0 - - - 0;
#X floatatom 1273 219 5 0 0 0 - - - 0;
#X obj 1273 398 line;
#X floatatom 1360 334 5 0 0 0 - - - 0;
#X obj 1273 254 sel 1;
#X obj 1273 310 random 200, f 11;
#X obj 1273 334 + 600;
#X floatatom 1478 224 5 0 0 0 - - - 0;
#X obj 1478 259 sel 1;
#X floatatom 1447 346 5 0 0 0 - - - 0;
#X obj 1447 322 + 400;
#X obj 1447 298 random 50, f 11;
#X msg 1360 310 10000;
#X obj 1273 195 > 600;
#X obj 1477 200 < 600;
#X msg 95 358 10000;
#X obj 1556 423 vsl 15 128 400 1200 0 0 empty empty empty 0 -9 0 10
#fcfcfc #000000 #000000 0 1;
#X floatatom 1556 561 7 0 0 0 - - - 0;
#X floatatom 1556 360 5 0 0 0 - - - 0;
#X floatatom 1556 221 5 0 0 0 - - - 0;
#X obj 1556 400 line;
#X floatatom 1643 336 5 0 0 0 - - - 0;
#X obj 1556 256 sel 1;
#X obj 1556 312 random 200, f 11;
#X obj 1556 336 + 600;
#X floatatom 1761 226 5 0 0 0 - - - 0;
#X obj 1761 261 sel 1;
#X floatatom 1730 348 5 0 0 0 - - - 0;
#X obj 1730 300 random 50, f 11;
#X msg 1643 312 10000;
#X obj 1556 197 > 600;
#X obj 1760 202 < 600;
#X obj 1313 749 bp~, f 6;
#X obj 1312 772 *~ 0.5;
#X obj 1730 324 + 200;
#X obj 6 337 random 20, f 11;
#X obj 1117 702 *~ 0.1;
#X obj 1921 400 hsl 128 15 25 125 0 0 empty empty empty -2 -8 0 10
#fcfcfc #000000 #000000 0 1;
#X floatatom 1916 430 5 0 0 0 - - - 0;
#X floatatom 1909 333 5 0 0 0 - - - 0;
#X obj 1916 368 line;
#X obj 1840 281 random 50, f 11;
#X obj 2 579 + -5;
#X floatatom 2 608 5 0 0 0 - - - 0;
#X obj 5 659 hsl 128 15 0 5 0 0 empty empty empty -2 -8 0 10 #fcfcfc
#000000 #000000 0 1;
#X obj 2 631 * -1;
#X floatatom 2 679 5 0 0 0 - - - 0;
#X obj 810 999 *~;
#X obj 889 1035 *~;
#X floatatom 1865 738 5 0 2 0 - - - 0;
#X obj 651 117 t b b b;
#X msg 698 181 1300;
#X obj 821 16 bng 15 250 50 0 empty empty empty 17 7 0 10 #fcfcfc #000000
#000000;
#X obj 1924 133 random 10000;
#X obj 2011 198 delay;
#X obj 1837 205 metro;
#X floatatom 1924 160 5 0 0 0 - - - 0;
#X obj 2011 168 random;
#X obj 1909 310 + 25;
#X floatatom 1991 290 5 0 0 0 - - - 0;
#X msg 1991 266 10000;
#X obj 1877 229 t b b;
#X msg 2144 222 0;
#X obj 1968 71 t b b b b;
#X msg 2179 223 50;
#X msg 598 467 0;
#X msg 654 455 0;
#X msg 440 481 2.5;
#X msg 483 481 2.5;
#X obj 817 34 t b b b;
#X obj 835 263 t b f b b;
#X msg 7 252 200;
#X msg 43 252 400;
#X msg 70 145 800;
#X msg 103 145 1000;
#X obj 96 79 sel 1;
#X obj 23 186 sel 0;
#X floatatom 22 39 5 0 2 0 - - - 0;
#X obj 1268 137 bng 15 250 50 0 empty empty empty 17 7 0 10 #fcfcfc
#000000 #000000;
#X obj 1386 127 bng 15 250 50 0 empty empty empty 17 7 0 10 #fcfcfc
#000000 #000000;
#X obj 1386 103 sel 1;
#X obj 1268 108 sel 0;
#X floatatom 1300 78 5 0 2 0 - - - 0;
#X msg 1250 157 20;
#X msg 1386 156 10;
#X obj 310 939 *~ 0.2;
#X msg 1283 158 50;
#X obj 1474 126 bng 15 250 50 0 empty empty empty 17 7 0 10 #fcfcfc
#000000 #000000;
#X msg 1512 154 100;
#X msg 1424 155 75;
#X msg 1474 155 5;
#X obj 1474 102 sel 2;
#X floatatom 6 360 5 0 0 0 - - - 0;
#X msg 264 141 1200;
#X msg 305 141 1600;
#X obj 286 61 sel 2;
#X obj 318 478 line;
#X obj 449 205 t b b b b b b;
#X msg 408 372 10;
#X msg 74 252 5;
#X msg 424 111 20000;
#X msg 343 141 50;
#X msg 137 145 20;
#X msg 182 144 400;
#X obj 91 102 t b b b b b;
#X obj 286 88 t b b b b b;
#X msg 380 142 600;
#X msg 109 252 200;
#X obj 23 210 t b b b b b;
#X obj 2545 909 bp~, f 6;
#X obj 2625 1051 *~ 0.2;
#X obj 3075 598 vsl 15 128 100 1300 0 0 empty empty empty 0 -9 0 10
#fcfcfc #000000 #000000 0 1;
#X floatatom 3075 740 6 0 0 0 - - - 0;
#X obj 2669 923 bp~, f 6;
#X obj 3160 597 vsl 15 128 400 2000 0 0 empty empty empty 0 -9 0 10
#fcfcfc #000000 #000000 0 1;
#X floatatom 3160 738 7 0 0 0 - - - 0;
#X obj 2254 495 hsl 128 15 0 5 0 0 empty empty empty -2 -8 0 10 #fcfcfc
#000000 #000000 0 1;
#X floatatom 2248 525 5 0 0 0 - - - 0;
#X obj 2992 415 random 200, f 11;
#X obj 2992 439 + 100;
#X floatatom 2992 463 5 0 0 0 - - - 0;
#X obj 3056 -14 loadbang;
#X floatatom 3126 465 5 0 0 0 - - - 0;
#X obj 3126 417 random 400, f 11;
#X obj 3126 441 + 400;
#X obj 3039 205 random 3000;
#X obj 3112 312 > 254;
#X floatatom 3060 337 5 0 0 0 - - - 0;
#X floatatom 3112 336 5 0 0 0 - - - 0;
#X floatatom 3070 229 5 0 0 0 - - - 0;
#X floatatom 2241 428 5 0 0 0 - - - 0;
#X obj 2240 376 / 10;
#X obj 3075 569 line;
#X obj 3160 569 line;
#X obj 2248 463 line;
#X floatatom 2330 376 5 0 0 0 - - - 0;
#X floatatom 3079 440 5 0 0 0 - - - 0;
#X msg 3079 416 10000;
#X floatatom 3213 441 5 0 0 0 - - - 0;
#X msg 3213 417 10000;
#X obj 2763 764 noise~;
#X obj 3065 58 random 10000;
#X obj 3211 149 delay;
#X obj 3037 156 metro;
#X floatatom 3065 85 5 0 0 0 - - - 0;
#X obj 3211 119 random;
#X floatatom 2554 428 5 0 0 0 - - - 0;
#X obj 3060 311 > 1550;
#X obj 3060 371 sel 1;
#X obj 3112 371 sel 1;
#X obj 2241 405 + 1;
#X msg 2604 366 5;
#X obj 3353 671 bp~, f 6;
#X obj 3508 415 vsl 15 128 400 1200 0 0 empty empty empty 0 -9 0 10
#fcfcfc #000000 #000000 0 1;
#X floatatom 3508 553 7 0 0 0 - - - 0;
#X floatatom 3508 352 5 0 0 0 - - - 0;
#X floatatom 3508 213 5 0 0 0 - - - 0;
#X obj 3508 392 line;
#X floatatom 3595 328 5 0 0 0 - - - 0;
#X obj 3508 248 sel 1;
#X obj 3508 304 random 200, f 11;
#X obj 3508 328 + 600;
#X floatatom 3713 218 5 0 0 0 - - - 0;
#X obj 3713 253 sel 1;
#X floatatom 3682 340 5 0 0 0 - - - 0;
#X obj 3682 316 + 400;
#X obj 3682 292 random 50, f 11;
#X msg 3595 304 10000;
#X obj 3508 189 > 600;
#X obj 3712 194 < 600;
#X msg 2330 352 10000;
#X obj 3791 417 vsl 15 128 400 1200 0 0 empty empty empty 0 -9 0 10
#fcfcfc #000000 #000000 0 1;
#X floatatom 3791 555 7 0 0 0 - - - 0;
#X floatatom 3791 354 5 0 0 0 - - - 0;
#X floatatom 3791 215 5 0 0 0 - - - 0;
#X obj 3791 394 line;
#X floatatom 3878 330 5 0 0 0 - - - 0;
#X obj 3791 250 sel 1;
#X obj 3791 306 random 200, f 11;
#X obj 3791 330 + 600;
#X floatatom 3996 220 5 0 0 0 - - - 0;
#X obj 3996 255 sel 1;
#X floatatom 3965 342 5 0 0 0 - - - 0;
#X obj 3965 294 random 50, f 11;
#X msg 3878 306 10000;
#X obj 3791 191 > 600;
#X obj 3995 196 < 600;
#X obj 3548 743 bp~, f 6;
#X obj 3547 766 *~ 0.5;
#X obj 3965 318 + 200;
#X obj 2241 331 random 20, f 11;
#X obj 3352 696 *~ 0.1;
#X obj 4156 394 hsl 128 15 25 125 0 0 empty empty empty -2 -8 0 10
#fcfcfc #000000 #000000 0 1;
#X floatatom 4151 424 5 0 0 0 - - - 0;
#X floatatom 4144 327 5 0 0 0 - - - 0;
#X obj 4151 362 line;
#X obj 4075 275 random 50, f 11;
#X obj 2237 573 + -5;
#X floatatom 2237 602 5 0 0 0 - - - 0;
#X obj 2240 653 hsl 128 15 0 5 0 0 empty empty empty -2 -8 0 10 #fcfcfc
#000000 #000000 0 1;
#X obj 2237 625 * -1;
#X floatatom 2237 673 5 0 0 0 - - - 0;
#X obj 2431 861 *~;
#X obj 2332 1020 *~;
#X floatatom 1925 743 5 0 2 0 - - - 0;
#X obj 2886 111 t b b b;
#X msg 2933 175 1300;
#X obj 3056 10 bng 15 250 50 0 empty empty empty 17 7 0 10 #fcfcfc
#000000 #000000;
#X obj 4159 127 random 10000;
#X obj 4246 192 delay;
#X obj 4072 199 metro;
#X floatatom 4159 154 5 0 0 0 - - - 0;
#X obj 4246 162 random;
#X obj 4144 304 + 25;
#X floatatom 4226 284 5 0 0 0 - - - 0;
#X msg 4226 260 10000;
#X obj 4112 223 t b b;
#X msg 4379 216 0;
#X obj 4203 65 t b b b b;
#X msg 4414 217 50;
#X msg 2833 461 0;
#X msg 2889 449 0;
#X msg 2675 475 2.5;
#X msg 2718 475 2.5;
#X obj 3052 28 t b b b;
#X obj 3070 257 t b f b b;
#X msg 2242 246 200;
#X msg 2278 246 400;
#X msg 2305 139 800;
#X msg 2338 139 1000;
#X obj 2331 73 sel 1;
#X obj 2258 180 sel 0;
#X floatatom 2257 33 5 0 2 0 - - - 0;
#X obj 3503 131 bng 15 250 50 0 empty empty empty 17 7 0 10 #fcfcfc
#000000 #000000;
#X obj 3621 121 bng 15 250 50 0 empty empty empty 17 7 0 10 #fcfcfc
#000000 #000000;
#X obj 3621 97 sel 1;
#X obj 3503 102 sel 0;
#X floatatom 3535 72 5 0 2 0 - - - 0;
#X msg 3485 151 20;
#X msg 3621 150 10;
#X obj 2545 933 *~ 0.2;
#X msg 3518 152 50;
#X obj 3709 120 bng 15 250 50 0 empty empty empty 17 7 0 10 #fcfcfc
#000000 #000000;
#X msg 3747 148 100;
#X msg 3659 149 75;
#X msg 3709 149 5;
#X obj 3709 96 sel 2;
#X floatatom 2241 354 5 0 0 0 - - - 0;
#X msg 2499 135 1200;
#X msg 2540 135 1600;
#X obj 2521 55 sel 2;
#X obj 2553 472 line;
#X obj 2684 199 t b b b b b b;
#X msg 2643 366 10;
#X msg 2309 246 5;
#X msg 2659 105 20000;
#X msg 2578 135 50;
#X msg 2372 139 20;
#X msg 2417 138 400;
#X obj 2326 96 t b b b b b;
#X obj 2521 82 t b b b b b;
#X msg 2615 136 600;
#X msg 2344 246 200;
#X obj 2258 204 t b b b b b;
#X obj 1738 688 r GainLeft @hv_param 0 2 0;
#X obj 1954 688 r GainRight @hv_param 0 2 0;
#X msg 3534 29 r TempRight @hv_param 0 2 0;
#X msg 2256 9 r WindRight @hv_param 0 2 0;
#X msg 1302 25 r TempLeft @hv_param 0 2 0;
#X msg 21 15 r ForceLeft @hv_param 0 2 0;
#X connect 1 0 132 0;
#X connect 2 0 94 0;
#X connect 3 0 4 0;
#X connect 4 0 1 1;
#X connect 5 0 2 0;
#X connect 6 0 7 0;
#X connect 7 0 5 1;
#X connect 8 0 9 0;
#X connect 9 0 89 0;
#X connect 9 0 44 2;
#X connect 9 0 1 2;
#X connect 10 0 11 0;
#X connect 11 0 12 0;
#X connect 12 0 24 0;
#X connect 13 0 99 0;
#X connect 14 0 25 0;
#X connect 14 0 60 0;
#X connect 14 0 61 0;
#X connect 14 0 77 0;
#X connect 14 0 78 0;
#X connect 15 0 16 0;
#X connect 16 0 14 0;
#X connect 17 0 21 0;
#X connect 18 0 20 0;
#X connect 19 0 40 0;
#X connect 20 0 41 0;
#X connect 21 0 117 0;
#X connect 22 0 26 0;
#X connect 23 0 42 0;
#X connect 24 0 3 0;
#X connect 25 0 6 0;
#X connect 26 0 8 0;
#X connect 27 0 26 1;
#X connect 28 0 24 1;
#X connect 29 0 28 0;
#X connect 30 0 25 1;
#X connect 31 0 30 0;
#X connect 32 0 1 0;
#X connect 32 0 5 0;
#X connect 32 0 44 0;
#X connect 32 0 79 0;
#X connect 33 0 36 0;
#X connect 34 0 33 0;
#X connect 35 0 17 0;
#X connect 35 0 37 0;
#X connect 36 0 35 1;
#X connect 36 0 37 1;
#X connect 37 0 34 0;
#X connect 38 0 143 0;
#X connect 39 0 19 0;
#X connect 40 0 10 0;
#X connect 40 0 29 0;
#X connect 41 0 15 0;
#X connect 41 0 31 0;
#X connect 42 0 22 0;
#X connect 43 0 38 0;
#X connect 44 0 83 0;
#X connect 45 0 46 0;
#X connect 46 0 44 1;
#X connect 47 0 49 0;
#X connect 48 0 51 0;
#X connect 49 0 45 0;
#X connect 50 0 49 1;
#X connect 51 0 52 0;
#X connect 51 0 59 0;
#X connect 52 0 53 0;
#X connect 53 0 47 0;
#X connect 54 0 55 0;
#X connect 55 0 58 0;
#X connect 55 0 59 0;
#X connect 56 0 49 0;
#X connect 57 0 56 0;
#X connect 58 0 57 0;
#X connect 59 0 50 0;
#X connect 60 0 48 0;
#X connect 61 0 54 0;
#X connect 62 0 27 0;
#X connect 63 0 64 0;
#X connect 64 0 79 1;
#X connect 65 0 67 0;
#X connect 66 0 69 0;
#X connect 67 0 63 0;
#X connect 68 0 67 1;
#X connect 69 0 70 0;
#X connect 69 0 76 0;
#X connect 70 0 71 0;
#X connect 71 0 65 0;
#X connect 72 0 73 0;
#X connect 73 0 75 0;
#X connect 73 0 76 0;
#X connect 74 0 67 0;
#X connect 75 0 81 0;
#X connect 76 0 68 0;
#X connect 77 0 66 0;
#X connect 78 0 72 0;
#X connect 79 0 80 0;
#X connect 80 0 2 0;
#X connect 81 0 74 0;
#X connect 82 0 139 0;
#X connect 83 0 2 0;
#X connect 84 0 85 0;
#X connect 85 0 79 2;
#X connect 86 0 87 0;
#X connect 87 0 84 0;
#X connect 88 0 105 0;
#X connect 89 0 90 0;
#X connect 90 0 92 0;
#X connect 91 0 93 0;
#X connect 92 0 91 0;
#X connect 93 0 94 1;
#X connect 94 0 95 0;
#X connect 95 0 0 0;
#X connect 96 0 95 1;
#X connect 97 0 35 0;
#X connect 97 1 98 0;
#X connect 97 2 33 0;
#X connect 98 0 117 0;
#X connect 99 0 116 0;
#X connect 100 0 103 0;
#X connect 101 0 100 0;
#X connect 102 0 104 0;
#X connect 102 0 108 0;
#X connect 103 0 102 1;
#X connect 103 0 104 1;
#X connect 103 0 108 0;
#X connect 104 0 101 0;
#X connect 105 0 86 0;
#X connect 106 0 87 1;
#X connect 107 0 106 0;
#X connect 108 0 88 0;
#X connect 108 1 107 0;
#X connect 109 0 87 1;
#X connect 110 0 102 0;
#X connect 110 1 100 0;
#X connect 110 2 109 0;
#X connect 110 3 111 0;
#X connect 111 0 87 0;
#X connect 112 0 24 1;
#X connect 113 0 25 1;
#X connect 114 0 93 0;
#X connect 115 0 9 0;
#X connect 116 0 97 0;
#X connect 116 1 144 0;
#X connect 116 2 110 0;
#X connect 117 0 18 0;
#X connect 117 0 39 0;
#X connect 117 1 18 0;
#X connect 117 1 39 0;
#X connect 117 2 82 0;
#X connect 117 3 62 0;
#X connect 118 0 10 1;
#X connect 119 0 15 1;
#X connect 120 0 10 1;
#X connect 121 0 15 1;
#X connect 122 0 151 0;
#X connect 123 0 155 0;
#X connect 124 0 123 0;
#X connect 124 0 122 0;
#X connect 124 0 142 0;
#X connect 125 0 130 0;
#X connect 125 0 133 0;
#X connect 126 0 131 0;
#X connect 126 0 136 0;
#X connect 127 0 126 0;
#X connect 128 0 125 0;
#X connect 129 0 128 0;
#X connect 129 0 127 0;
#X connect 129 0 138 0;
#X connect 130 0 82 1;
#X connect 131 0 82 1;
#X connect 132 0 2 0;
#X connect 133 0 88 1;
#X connect 134 0 137 0;
#X connect 134 0 135 0;
#X connect 135 0 88 1;
#X connect 136 0 88 1;
#X connect 137 0 82 1;
#X connect 138 0 134 0;
#X connect 139 0 23 0;
#X connect 140 0 10 1;
#X connect 141 0 15 1;
#X connect 142 0 152 0;
#X connect 143 0 5 2;
#X connect 144 0 112 0;
#X connect 144 1 113 0;
#X connect 144 2 114 0;
#X connect 144 3 115 0;
#X connect 144 4 43 0;
#X connect 144 5 145 0;
#X connect 145 0 143 1;
#X connect 146 0 38 0;
#X connect 147 0 143 1;
#X connect 148 0 38 0;
#X connect 149 0 38 0;
#X connect 150 0 70 1;
#X connect 150 0 52 1;
#X connect 151 0 120 0;
#X connect 151 1 121 0;
#X connect 151 2 149 0;
#X connect 151 3 147 0;
#X connect 151 3 150 0;
#X connect 152 0 140 0;
#X connect 152 1 141 0;
#X connect 152 2 148 0;
#X connect 152 3 153 0;
#X connect 152 4 147 0;
#X connect 153 0 70 1;
#X connect 153 0 52 1;
#X connect 154 0 52 1;
#X connect 154 0 70 1;
#X connect 155 0 118 0;
#X connect 155 1 119 0;
#X connect 155 2 146 0;
#X connect 155 3 154 0;
#X connect 155 4 147 0;
#X connect 156 0 287 0;
#X connect 157 0 249 0;
#X connect 158 0 159 0;
#X connect 159 0 156 1;
#X connect 160 0 157 0;
#X connect 161 0 162 0;
#X connect 162 0 160 1;
#X connect 163 0 164 0;
#X connect 164 0 244 0;
#X connect 164 0 199 2;
#X connect 164 0 156 2;
#X connect 165 0 166 0;
#X connect 166 0 167 0;
#X connect 167 0 179 0;
#X connect 168 0 254 0;
#X connect 169 0 180 0;
#X connect 169 0 215 0;
#X connect 169 0 216 0;
#X connect 169 0 232 0;
#X connect 169 0 233 0;
#X connect 170 0 171 0;
#X connect 171 0 169 0;
#X connect 172 0 176 0;
#X connect 173 0 175 0;
#X connect 174 0 195 0;
#X connect 175 0 196 0;
#X connect 176 0 272 0;
#X connect 177 0 181 0;
#X connect 178 0 197 0;
#X connect 179 0 158 0;
#X connect 180 0 161 0;
#X connect 181 0 163 0;
#X connect 182 0 181 1;
#X connect 183 0 179 1;
#X connect 184 0 183 0;
#X connect 185 0 180 1;
#X connect 186 0 185 0;
#X connect 187 0 156 0;
#X connect 187 0 160 0;
#X connect 187 0 199 0;
#X connect 187 0 234 0;
#X connect 188 0 191 0;
#X connect 189 0 188 0;
#X connect 190 0 172 0;
#X connect 190 0 192 0;
#X connect 191 0 190 1;
#X connect 191 0 192 1;
#X connect 192 0 189 0;
#X connect 193 0 298 0;
#X connect 194 0 174 0;
#X connect 195 0 165 0;
#X connect 195 0 184 0;
#X connect 196 0 170 0;
#X connect 196 0 186 0;
#X connect 197 0 177 0;
#X connect 198 0 193 0;
#X connect 199 0 238 0;
#X connect 200 0 201 0;
#X connect 201 0 199 1;
#X connect 202 0 204 0;
#X connect 203 0 206 0;
#X connect 204 0 200 0;
#X connect 205 0 204 1;
#X connect 206 0 207 0;
#X connect 206 0 214 0;
#X connect 207 0 208 0;
#X connect 208 0 202 0;
#X connect 209 0 210 0;
#X connect 210 0 213 0;
#X connect 210 0 214 0;
#X connect 211 0 204 0;
#X connect 212 0 211 0;
#X connect 213 0 212 0;
#X connect 214 0 205 0;
#X connect 215 0 203 0;
#X connect 216 0 209 0;
#X connect 217 0 182 0;
#X connect 218 0 219 0;
#X connect 219 0 234 1;
#X connect 220 0 222 0;
#X connect 221 0 224 0;
#X connect 222 0 218 0;
#X connect 223 0 222 1;
#X connect 224 0 225 0;
#X connect 224 0 231 0;
#X connect 225 0 226 0;
#X connect 226 0 220 0;
#X connect 227 0 228 0;
#X connect 228 0 230 0;
#X connect 228 0 231 0;
#X connect 229 0 222 0;
#X connect 230 0 236 0;
#X connect 231 0 223 0;
#X connect 232 0 221 0;
#X connect 233 0 227 0;
#X connect 234 0 235 0;
#X connect 235 0 157 0;
#X connect 236 0 229 0;
#X connect 237 0 294 0;
#X connect 238 0 157 0;
#X connect 239 0 240 0;
#X connect 240 0 234 2;
#X connect 241 0 242 0;
#X connect 242 0 239 0;
#X connect 243 0 260 0;
#X connect 244 0 245 0;
#X connect 245 0 247 0;
#X connect 246 0 248 0;
#X connect 247 0 246 0;
#X connect 248 0 249 1;
#X connect 249 0 250 0;
#X connect 250 0 0 1;
#X connect 251 0 250 1;
#X connect 252 0 190 0;
#X connect 252 1 253 0;
#X connect 252 2 188 0;
#X connect 253 0 272 0;
#X connect 254 0 271 0;
#X connect 255 0 258 0;
#X connect 256 0 255 0;
#X connect 257 0 259 0;
#X connect 257 0 263 0;
#X connect 258 0 257 1;
#X connect 258 0 259 1;
#X connect 258 0 263 0;
#X connect 259 0 256 0;
#X connect 260 0 241 0;
#X connect 261 0 242 1;
#X connect 262 0 261 0;
#X connect 263 0 243 0;
#X connect 263 1 262 0;
#X connect 264 0 242 1;
#X connect 265 0 257 0;
#X connect 265 1 255 0;
#X connect 265 2 264 0;
#X connect 265 3 266 0;
#X connect 266 0 242 0;
#X connect 267 0 179 1;
#X connect 268 0 180 1;
#X connect 269 0 248 0;
#X connect 270 0 164 0;
#X connect 271 0 252 0;
#X connect 271 1 299 0;
#X connect 271 2 265 0;
#X connect 272 0 173 0;
#X connect 272 0 194 0;
#X connect 272 1 173 0;
#X connect 272 1 194 0;
#X connect 272 2 237 0;
#X connect 272 3 217 0;
#X connect 273 0 165 1;
#X connect 274 0 170 1;
#X connect 275 0 165 1;
#X connect 276 0 170 1;
#X connect 277 0 306 0;
#X connect 278 0 310 0;
#X connect 279 0 278 0;
#X connect 279 0 277 0;
#X connect 279 0 297 0;
#X connect 280 0 285 0;
#X connect 280 0 288 0;
#X connect 281 0 286 0;
#X connect 281 0 291 0;
#X connect 282 0 281 0;
#X connect 283 0 280 0;
#X connect 284 0 283 0;
#X connect 284 0 282 0;
#X connect 284 0 293 0;
#X connect 285 0 237 1;
#X connect 286 0 237 1;
#X connect 287 0 157 0;
#X connect 288 0 243 1;
#X connect 289 0 292 0;
#X connect 289 0 290 0;
#X connect 290 0 243 1;
#X connect 291 0 243 1;
#X connect 292 0 237 1;
#X connect 293 0 289 0;
#X connect 294 0 178 0;
#X connect 295 0 165 1;
#X connect 296 0 170 1;
#X connect 297 0 307 0;
#X connect 298 0 160 2;
#X connect 299 0 267 0;
#X connect 299 1 268 0;
#X connect 299 2 269 0;
#X connect 299 3 270 0;
#X connect 299 4 198 0;
#X connect 299 5 300 0;
#X connect 300 0 298 1;
#X connect 301 0 193 0;
#X connect 302 0 298 1;
#X connect 303 0 193 0;
#X connect 304 0 193 0;
#X connect 305 0 225 1;
#X connect 305 0 207 1;
#X connect 306 0 275 0;
#X connect 306 1 276 0;
#X connect 306 2 304 0;
#X connect 306 3 302 0;
#X connect 306 3 305 0;
#X connect 307 0 295 0;
#X connect 307 1 296 0;
#X connect 307 2 303 0;
#X connect 307 3 308 0;
#X connect 307 4 302 0;
#X connect 308 0 225 1;
#X connect 308 0 207 1;
#X connect 309 0 207 1;
#X connect 309 0 225 1;
#X connect 310 0 273 0;
#X connect 310 1 274 0;
#X connect 310 2 301 0;
#X connect 310 3 309 0;
#X connect 310 4 302 0;
#X connect 311 0 96 0;
#X connect 312 0 251 0;
#X connect 313 0 284 0;
#X connect 314 0 279 0;
#X connect 315 0 129 0;
#X connect 316 0 124 0;
