#N canvas -20 45 1920 989 12;
#X obj 103 1093 dac~ 1 2;
#X obj 310 915 bp~, f 6;
#X obj 390 1057 *~ 0.2;
#X obj 840 604 vsl 15 128 100 300 0 0 empty empty empty 0 -9 0 10 #fcfcfc
#000000 #000000 0 1;
#X floatatom 840 746 6 0 0 0 - - - 0;
#X obj 434 929 bp~, f 6;
#X obj 925 603 vsl 15 128 400 800 0 0 empty empty empty 0 -9 0 10 #fcfcfc
#000000 #000000 0 1;
#X floatatom 925 744 7 0 0 0 - - - 0;
#X obj 18 501 hsl 128 15 0 5 0 0 empty empty empty -2 -8 0 10 #fcfcfc
#000000 #000000 0 1;
#X floatatom 13 531 5 0 0 0 - - - 0;
#X obj 757 421 random 200, f 11;
#X obj 757 445 + 100;
#X floatatom 757 469 5 0 0 0 - - - 0;
#X obj 7 7 loadbang;
#X floatatom 891 471 5 0 0 0 - - - 0;
#X obj 891 423 random 400, f 11;
#X obj 891 447 + 400;
#X obj 804 211 random 3000;
#X obj 877 318 > 254;
#X floatatom 825 343 5 0 0 0 - - - 0;
#X floatatom 877 342 5 0 0 0 - - - 0;
#X floatatom 835 235 5 0 0 0 - - - 0;
#X floatatom 6 434 5 0 0 0 - - - 0;
#X obj 5 382 / 10;
#X obj 840 575 line;
#X obj 925 575 line;
#X obj 13 469 line;
#X floatatom 95 382 5 0 0 0 - - - 0;
#X floatatom 844 446 5 0 0 0 - - - 0;
#X msg 844 422 10000;
#X floatatom 978 447 5 0 0 0 - - - 0;
#X msg 978 423 10000;
#X obj 528 770 noise~;
#X obj 830 64 random 10000;
#X obj 976 155 delay;
#X obj 802 162 metro;
#X floatatom 830 91 5 0 0 0 - - - 0;
#X obj 976 125 random;
#X floatatom 172 469 5 0 0 0 - - - 0;
#X obj 825 317 > 1550;
#X obj 825 377 sel 1;
#X obj 877 377 sel 1;
#X obj 6 411 + 1;
#X msg 174 445 5;
#X obj 542 928 bp~, f 6;
#X obj 1356 824 vsl 15 128 400 800 0 0 empty empty empty 0 -9 0 10
#fcfcfc #000000 #000000 0 1;
#X floatatom 1356 962 7 0 0 0 - - - 0;
#X floatatom 1356 761 5 0 0 0 - - - 0;
#X floatatom 1356 622 5 0 0 0 - - - 0;
#X obj 1356 801 line;
#X floatatom 1443 737 5 0 0 0 - - - 0;
#X obj 1356 657 sel 1;
#X obj 1356 713 random 200, f 11;
#X obj 1356 737 + 600;
#X floatatom 1561 627 5 0 0 0 - - - 0;
#X obj 1561 662 sel 1;
#X floatatom 1530 749 5 0 0 0 - - - 0;
#X obj 1530 725 + 400;
#X obj 1530 701 random 50, f 11;
#X msg 1443 713 10000;
#X obj 1356 598 > 600;
#X obj 1560 603 < 600;
#X msg 95 358 10000;
#X obj 1639 826 vsl 15 128 400 800 0 0 empty empty empty 0 -9 0 10
#fcfcfc #000000 #000000 0 1;
#X floatatom 1639 964 7 0 0 0 - - - 0;
#X floatatom 1639 763 5 0 0 0 - - - 0;
#X floatatom 1639 624 5 0 0 0 - - - 0;
#X obj 1639 803 line;
#X floatatom 1726 739 5 0 0 0 - - - 0;
#X obj 1639 659 sel 1;
#X obj 1639 715 random 200, f 11;
#X obj 1639 739 + 600;
#X floatatom 1844 629 5 0 0 0 - - - 0;
#X obj 1844 664 sel 1;
#X floatatom 1813 751 5 0 0 0 - - - 0;
#X obj 1813 703 random 50, f 11;
#X msg 1726 715 10000;
#X obj 1639 600 > 600;
#X obj 1843 605 < 600;
#X obj 1365 1008 bp~, f 6;
#X obj 1364 1031 *~ 0.5;
#X obj 1813 727 + 200;
#X obj 310 939 *~ 0.5;
#X obj 6 357 random 20, f 11;
#X obj 541 953 *~ 0.1;
#X obj 1469 470 hsl 128 15 25 75 0 0 empty empty empty -2 -8 0 10 #fcfcfc
#000000 #000000 0 1;
#X floatatom 1464 500 5 0 0 0 - - - 0;
#X floatatom 1457 403 5 0 0 0 - - - 0;
#X obj 1464 438 line;
#X obj 1388 351 random 50, f 11;
#X obj 2 579 + -5;
#X floatatom 2 608 5 0 0 0 - - - 0;
#X obj 5 659 hsl 128 15 0 5 0 0 empty empty empty -2 -8 0 10 #fcfcfc
#000000 #000000 0 1;
#X obj 2 631 * -1;
#X floatatom 2 679 5 0 0 0 - - - 0;
#X obj 196 867 *~;
#X obj 97 1026 *~;
#X floatatom 13 902 5 0 1 0 - - - 0;
#X obj 13 876 r Gain @hv_param 0 1 0.5;
#X obj 651 117 t b b b;
#X msg 698 181 1300;
#X obj 7 31 bng 15 250 50 0 empty empty empty 17 7 0 10 #fcfcfc #000000
#000000;
#X obj 1472 203 random 10000;
#X obj 1559 268 delay;
#X obj 1385 275 metro;
#X floatatom 1472 230 5 0 0 0 - - - 0;
#X obj 1559 238 random;
#X obj 1457 380 + 25;
#X floatatom 1539 360 5 0 0 0 - - - 0;
#X msg 1539 336 10000;
#X obj 1425 299 t b b;
#X msg 1692 292 0;
#X obj 1516 141 t b b b b;
#X msg 1727 293 50;
#X msg 598 467 0;
#X msg 654 455 0;
#X msg 440 481 2.5;
#X msg 483 481 2.5;
#X obj 449 205 t b b b b b;
#X obj 206 47 t b b b;
#X obj 835 263 t b f b b;
#X connect 1 0 82 0;
#X connect 2 0 95 0;
#X connect 3 0 4 0;
#X connect 4 0 1 1;
#X connect 5 0 2 0;
#X connect 6 0 7 0;
#X connect 7 0 5 1;
#X connect 8 0 9 0;
#X connect 9 0 1 2;
#X connect 9 0 44 2;
#X connect 9 0 90 0;
#X connect 10 0 11 0;
#X connect 11 0 12 0;
#X connect 12 0 24 0;
#X connect 13 0 101 0;
#X connect 14 0 25 0;
#X connect 14 0 60 0;
#X connect 14 0 61 0;
#X connect 14 0 77 0;
#X connect 14 0 78 0;
#X connect 15 0 16 0;
#X connect 16 0 14 0;
#X connect 17 0 21 0;
#X connect 18 0 20 0;
#X connect 19 0 40 0;
#X connect 20 0 41 0;
#X connect 21 0 120 0;
#X connect 22 0 26 0;
#X connect 23 0 42 0;
#X connect 24 0 3 0;
#X connect 25 0 6 0;
#X connect 26 0 8 0;
#X connect 27 0 26 1;
#X connect 28 0 24 1;
#X connect 29 0 28 0;
#X connect 30 0 25 1;
#X connect 31 0 30 0;
#X connect 32 0 1 0;
#X connect 32 0 5 0;
#X connect 32 0 44 0;
#X connect 32 0 79 0;
#X connect 33 0 36 0;
#X connect 34 0 33 0;
#X connect 35 0 17 0;
#X connect 35 0 37 0;
#X connect 36 0 35 1;
#X connect 36 0 37 1;
#X connect 37 0 34 0;
#X connect 38 0 5 2;
#X connect 39 0 19 0;
#X connect 40 0 10 0;
#X connect 40 0 29 0;
#X connect 41 0 15 0;
#X connect 41 0 31 0;
#X connect 42 0 22 0;
#X connect 43 0 38 0;
#X connect 44 0 84 0;
#X connect 45 0 46 0;
#X connect 46 0 44 1;
#X connect 47 0 49 0;
#X connect 48 0 51 0;
#X connect 49 0 45 0;
#X connect 50 0 49 1;
#X connect 51 0 52 0;
#X connect 51 0 59 0;
#X connect 52 0 53 0;
#X connect 53 0 47 0;
#X connect 54 0 55 0;
#X connect 55 0 58 0;
#X connect 55 0 59 0;
#X connect 56 0 49 0;
#X connect 57 0 56 0;
#X connect 58 0 57 0;
#X connect 59 0 50 0;
#X connect 60 0 48 0;
#X connect 61 0 54 0;
#X connect 62 0 27 0;
#X connect 63 0 64 0;
#X connect 64 0 79 1;
#X connect 65 0 67 0;
#X connect 66 0 69 0;
#X connect 67 0 63 0;
#X connect 68 0 67 1;
#X connect 69 0 70 0;
#X connect 69 0 76 0;
#X connect 70 0 71 0;
#X connect 71 0 65 0;
#X connect 72 0 73 0;
#X connect 73 0 75 0;
#X connect 73 0 76 0;
#X connect 74 0 67 0;
#X connect 75 0 81 0;
#X connect 76 0 68 0;
#X connect 77 0 66 0;
#X connect 78 0 72 0;
#X connect 79 0 80 0;
#X connect 80 0 2 0;
#X connect 81 0 74 0;
#X connect 82 0 2 0;
#X connect 83 0 23 0;
#X connect 84 0 2 0;
#X connect 85 0 86 0;
#X connect 86 0 79 2;
#X connect 87 0 88 0;
#X connect 88 0 85 0;
#X connect 89 0 107 0;
#X connect 90 0 91 0;
#X connect 91 0 93 0;
#X connect 92 0 94 0;
#X connect 93 0 92 0;
#X connect 94 0 95 1;
#X connect 95 0 96 0;
#X connect 96 0 0 0;
#X connect 97 0 96 1;
#X connect 98 0 97 0;
#X connect 99 0 35 0;
#X connect 99 1 100 0;
#X connect 99 2 33 0;
#X connect 100 0 120 0;
#X connect 101 0 119 0;
#X connect 102 0 105 0;
#X connect 103 0 102 0;
#X connect 104 0 106 0;
#X connect 104 0 110 0;
#X connect 105 0 104 1;
#X connect 105 0 106 1;
#X connect 105 0 110 0;
#X connect 106 0 103 0;
#X connect 107 0 87 0;
#X connect 108 0 88 1;
#X connect 109 0 108 0;
#X connect 110 0 89 0;
#X connect 110 1 109 0;
#X connect 111 0 88 1;
#X connect 112 0 104 0;
#X connect 112 1 102 0;
#X connect 112 2 111 0;
#X connect 112 3 113 0;
#X connect 113 0 88 0;
#X connect 114 0 24 1;
#X connect 115 0 25 1;
#X connect 116 0 94 0;
#X connect 117 0 9 0;
#X connect 118 0 114 0;
#X connect 118 1 115 0;
#X connect 118 2 116 0;
#X connect 118 3 117 0;
#X connect 118 4 43 0;
#X connect 119 0 99 0;
#X connect 119 1 118 0;
#X connect 119 2 112 0;
#X connect 120 0 18 0;
#X connect 120 0 39 0;
#X connect 120 0 43 0;
#X connect 120 1 18 0;
#X connect 120 1 39 0;
#X connect 120 2 83 0;
#X connect 120 3 62 0;
